<svg width="282" height="192" viewBox="0 0 282 192" fill="none" xmlns="http://www.w3.org/2000/svg">
<rect width="282" height="192" fill="#EEFCFF"/>
<path d="M173.598 125.943L173.671 125.914L173.659 125.996L173.598 125.943ZM167.994 129.383C168.35 129.023 168.712 128.664 169.074 128.304C169.219 128.45 169.37 128.595 169.514 128.741C169.134 129.086 168.748 129.432 168.368 129.777C168.241 129.646 168.115 129.515 167.994 129.383ZM190.755 119.966C190.749 119.974 190.749 119.974 190.755 119.966V119.966ZM190.785 119.959C190.779 119.973 190.779 119.982 190.779 119.986C190.779 119.982 190.779 119.974 190.785 119.959ZM190.761 119.947C190.773 119.926 190.791 119.897 190.809 119.867C190.803 119.898 190.791 119.928 190.785 119.95C190.791 119.932 190.797 119.904 190.809 119.868C190.785 119.906 190.773 119.93 190.761 119.947ZM211.248 109.411C211.193 109.421 211.139 109.434 211.085 109.449C211.748 112.67 208.678 112.157 207.236 113.115C204.039 115.239 200.636 117.053 197.324 119.008C195.026 120.365 192.746 121.747 190.29 123.215C190.429 122.77 190.532 122.457 190.628 122.145C191.141 121.75 191.805 121.44 192.112 120.919C192.354 120.517 192.13 119.84 192.112 119.286C191.678 119.478 191.244 119.671 190.809 119.863V119.863V119.864C188.716 121.264 186.623 122.665 184.523 124.065C184.439 123.955 184.36 123.846 184.276 123.737C184.523 123.439 184.771 123.141 185.018 122.844C178.376 124.996 173.616 129.931 168.066 133.776C171.764 130.364 175.468 126.952 179.166 123.54C179.1 123.349 179.034 123.158 178.967 122.966C177.465 123.515 175.891 123.913 174.497 124.651C173.031 125.426 171.734 126.527 170.214 127.588C170.353 126.89 170.431 126.513 170.504 126.135C169.635 126.409 168.634 126.496 167.916 126.994C165.919 128.378 164.043 129.933 161.569 131.844C162.215 130.684 162.529 130.113 162.848 129.542L162.83 129.532C162.806 129.098 162.782 128.664 162.764 128.23C162.39 128.403 162.028 128.61 161.642 128.741C160.484 129.133 159.313 129.493 157.503 130.073C157.751 129.644 157.564 129.973 157.878 129.424C155.29 130.664 153.438 131.553 151.579 132.442C151.495 132.062 151.411 131.683 151.326 131.303C150.144 131.549 148.919 131.674 147.791 132.064C145.239 132.943 142.681 133.831 140.238 134.959C138.827 135.613 137.626 136.74 135.859 137.111C136.745 136.418 137.674 135.766 138.513 135.02C139.05 134.543 139.466 133.927 139.931 133.374C139.285 133.351 138.561 133.494 138.006 133.25C137.59 133.066 137.439 132.346 137.083 131.94C137.047 131.898 137.005 131.859 136.969 131.822C145.131 129.843 153.341 128.05 161.419 125.76C165.967 124.47 170.196 122.089 174.696 120.572C178.075 119.431 181.706 119.046 185.139 118.027C188.674 116.976 192.136 115.651 195.575 114.29C199.188 112.857 202.82 111.415 206.265 109.633C208.068 108.7 209.492 107.03 211.332 105.492C211.236 107 211.157 108.222 211.079 109.443C211.133 109.432 211.193 109.422 211.248 109.411ZM199.08 118.497C199.086 118.436 199.086 118.374 199.092 118.314C199.098 118.309 199.189 118.311 199.189 118.315C199.195 118.375 199.195 118.437 199.195 118.498C199.146 118.497 199.116 118.497 199.08 118.497ZM186.49 126.049C187.148 125.356 187.811 124.664 188.469 123.972C188.644 124.194 188.819 124.418 188.993 124.641C188.155 125.11 187.322 125.58 186.49 126.049ZM210.849 113.782C209.323 115.458 207.743 117.081 206.174 118.715L206.168 118.709C205.879 119.33 205.752 120.268 205.269 120.524C199.985 123.324 194.64 126.018 189.313 128.741C189.114 128.376 188.915 128.012 188.716 127.647C191.443 126.075 194.175 124.503 196.794 122.998C197.349 122.73 197.898 122.567 198.332 122.246C200.395 120.712 202.476 119.197 204.449 117.556C206.066 116.212 207.526 114.675 209.106 113.281C209.42 113.004 209.963 112.877 210.391 112.901C210.572 112.911 210.934 113.688 210.849 113.782ZM184.451 127.77C184.451 127.769 184.451 127.768 184.451 127.768L184.475 127.796L184.451 127.77ZM181.953 131.885C181.579 131.504 181.211 131.122 180.837 130.741C181.76 129.875 182.683 129.008 183.938 127.833C183.124 129.492 182.539 130.688 181.953 131.885ZM175.42 132.702C175.227 132.582 175.094 132.367 174.938 132.189C175.082 132.097 175.263 131.903 175.372 131.935C175.559 131.988 175.698 132.186 175.939 132.393C175.698 132.542 175.481 132.743 175.42 132.702ZM161.22 136.006C161.581 135.683 161.95 135.36 162.311 135.037C162.42 135.166 162.523 135.294 162.631 135.422C162.233 135.735 161.835 136.048 161.437 136.361C161.364 136.242 161.292 136.124 161.22 136.006ZM160.309 132.525L160.393 132.52L160.357 132.592L160.309 132.525ZM152.858 148.943C152.527 148.636 152.201 148.328 151.875 148.022C153.124 146.181 154.167 144.146 155.682 142.56C156.973 141.203 158.668 139.895 160.423 139.381C164.996 138.042 169.701 137.15 174.352 136.085C174.696 136.006 175.052 135.971 175.402 135.916C175.535 136.206 175.662 136.494 175.794 136.783C168.151 140.837 160.502 144.89 152.858 148.943ZM155.271 132.696C155.277 132.649 155.374 132.614 155.428 132.575C155.47 132.634 155.537 132.698 155.531 132.749C155.519 132.795 155.428 132.827 155.374 132.865C155.338 132.808 155.265 132.746 155.271 132.696ZM150.071 136.697C151.35 136.567 152.677 136.606 153.896 136.259C155.187 135.893 156.393 135.196 157.594 134.569C158.233 134.234 158.794 133.745 159.398 133.326C159.555 133.61 159.717 133.894 159.874 134.178C156.816 135.709 153.757 137.239 150.699 138.769C150.494 138.079 150.282 137.388 150.071 136.697ZM147.924 135.658C148.099 135.284 148.268 134.908 148.437 134.531C148.569 134.619 148.696 134.707 148.829 134.795C148.527 135.083 148.225 135.371 147.924 135.658ZM140.793 152.196C140.48 152.117 140.039 151.119 140.13 151.034C141.499 149.704 142.875 148.349 144.407 147.216C145.71 146.256 147.2 145.544 148.648 144.807C148.817 144.72 149.263 145.17 149.444 145.283C149.227 149.23 144.262 153.056 140.793 152.196ZM144.009 138.433C144.92 137.744 145.83 137.057 146.741 136.369C146.15 137.316 145.553 138.265 144.962 139.214C144.648 138.954 144.328 138.693 144.009 138.433ZM125.175 145.768C117.676 146.246 109.979 146.354 102.601 145.155C95.1449 143.943 87.9781 140.93 80.1418 138.541C82.9651 136.075 85.3117 134.025 88.2255 131.482C88.2255 132.927 88.3823 133.424 88.2014 133.674C85.9391 136.789 88.7805 137.913 90.5782 138.477C94.6984 139.772 98.9815 140.667 103.259 141.326C107.868 142.037 112.543 142.569 117.2 142.67C121.736 142.768 126.285 142.143 130.827 141.999C132.619 141.942 134.423 142.52 136.215 142.471C139.768 142.374 143.315 142.042 147.013 142.505C139.738 143.641 132.492 145.301 125.175 145.768ZM134.344 153.598C134.513 153.258 134.688 152.919 134.863 152.579C135.014 152.807 135.171 153.034 135.322 153.262C134.996 153.374 134.67 153.485 134.344 153.598ZM133.518 148.68C133.47 148.7 133.198 148.42 133.222 148.323C133.259 148.168 133.434 147.986 133.59 147.938C133.699 147.904 133.868 148.076 134.121 148.219C133.856 148.435 133.705 148.6 133.518 148.68ZM131.889 151.017C131.835 150.977 131.781 150.936 131.72 150.896C131.859 150.711 132.004 150.526 132.143 150.341C132.191 150.377 132.239 150.412 132.293 150.447C132.155 150.638 132.022 150.827 131.889 151.017ZM129.506 154.431C129.331 154.298 129.156 154.166 128.982 154.033C129.555 153.363 130.128 152.693 130.701 152.023C130.779 152.087 130.864 152.151 130.942 152.216C130.466 152.954 129.983 153.692 129.506 154.431ZM127.582 150.556C126.689 151.828 125.911 153.205 124.867 154.345C124.318 154.949 123.323 155.147 122.527 155.528C122.72 154.97 122.786 154.304 123.136 153.875C124.113 152.68 125.235 151.603 126.249 150.438C126.593 150.045 126.792 149.529 127.226 148.783C127.504 148.807 128.143 148.86 128.788 148.913C128.384 149.46 127.974 150.001 127.582 150.556ZM117.833 156.082C117.634 155.944 117.441 155.805 117.242 155.665C118.835 153.494 120.433 151.323 122.032 149.153C122.189 149.263 122.352 149.374 122.509 149.485C120.952 151.684 119.39 153.884 117.833 156.082ZM112.277 156.383C112.32 155.992 112.217 155.471 112.434 155.231C114.202 153.252 116.03 151.323 117.839 149.38C117.882 149.47 117.924 149.56 117.966 149.65C116.518 151.741 115.095 153.852 113.586 155.9C113.357 156.212 112.724 156.229 112.277 156.383ZM107.282 154.989C109.026 152.985 110.842 150.897 112.657 148.809C112.826 148.955 112.995 149.101 113.164 149.246C111.68 151.547 110.196 153.848 108.718 156.14C108.278 155.785 107.874 155.465 107.282 154.989ZM102.969 155.394C102.842 154.996 102.493 154.433 102.631 154.256C104.043 152.463 105.515 150.719 107.023 149.006C107.222 148.78 107.705 148.806 108.055 148.715C108.097 148.984 108.272 149.349 108.157 149.506C106.8 151.39 105.412 153.25 104.001 155.095C103.886 155.241 103.572 155.229 102.969 155.394ZM100.363 152.748C99.6512 154.416 98.6196 154.948 96.9787 154.144C96.7616 154.039 96.4298 153.733 96.466 153.627C96.7133 152.896 96.9365 152.121 97.3769 151.504C97.763 150.955 98.4145 150.592 98.9453 150.147L98.9273 150.139C99.3918 149.651 99.7658 148.963 100.327 148.725C101.069 148.411 101.962 148.45 102.788 148.339C102.571 148.886 102.42 149.472 102.131 149.974C101.569 150.919 100.791 151.754 100.363 152.748ZM93.1903 153.142C92.8706 153.497 91.7967 153.166 91.0427 153.131C93.1842 151.028 95.3198 148.925 97.4614 146.822C97.6061 146.99 97.7449 147.159 97.8896 147.327C96.3453 149.284 94.8674 151.305 93.1903 153.142ZM88.0746 153.563C87.7006 153.334 87.3206 153.231 87.2301 153.011C87.1577 152.823 87.3628 152.464 87.5317 152.244C88.9795 150.306 90.4093 148.348 91.9476 146.483C92.2794 146.08 93.0395 146.027 93.6005 145.812C93.4256 146.268 93.3351 146.779 93.0636 147.17C91.8148 148.995 90.5359 150.799 89.2208 152.58C88.9433 152.962 88.4849 153.217 88.0746 153.563ZM83.6709 152.888C83.3391 152.689 82.8686 152.565 82.7238 152.277C82.5609 151.948 82.5126 151.352 82.7117 151.082C84.1837 149.037 85.6677 146.992 87.2965 145.074C87.6826 144.623 88.6297 144.653 89.3174 144.461C89.2812 145.05 89.4561 145.801 89.1605 146.202C87.5498 148.394 85.8185 150.501 84.1173 152.63C84.0328 152.738 83.8639 152.78 83.6709 152.888ZM79.979 150.694C79.6532 150.4 79.3093 150.217 79.1887 149.937C79.0861 149.715 79.1706 149.317 79.3214 149.095C80.6425 147.134 81.9697 145.176 83.3692 143.269C83.5924 142.971 84.1655 142.935 84.5758 142.778C84.5999 143.167 84.7809 143.652 84.618 143.93C83.4054 145.98 82.1326 147.996 80.8416 150.003C80.6727 150.269 80.3289 150.423 79.979 150.694ZM77.4996 148.188C77.3487 148.188 77.204 148.188 77.0532 148.188C77.3186 146.296 77.4755 144.38 77.9158 142.53C78.0244 142.068 79.0318 141.819 79.629 141.472C79.6894 142.271 80.0212 143.178 79.7618 143.848C79.1645 145.357 78.2717 146.749 77.4996 148.188ZM130.007 128.258C130.061 128.278 130.122 128.298 130.182 128.318C130.152 128.382 130.128 128.44 130.085 128.487C130.079 128.496 129.995 128.467 129.995 128.45C129.989 128.387 130.001 128.322 130.007 128.258ZM116.705 124.831C116.705 124.87 116.699 124.855 116.705 124.831V124.831ZM110.455 126.021C110.461 126.017 110.461 126.017 110.455 126.021V126.021ZM110.395 126.139L110.371 126.113C110.377 126.11 110.377 126.108 110.377 126.105C110.389 126.121 110.395 126.139 110.395 126.139ZM109.255 123.33L109.315 123.34C109.315 123.347 109.315 123.354 109.309 123.361L109.255 123.33ZM107.397 124.841C108.055 124.042 108.145 123.935 108.229 123.827C108.278 123.883 108.32 123.938 108.362 123.994C108.266 124.078 108.169 124.163 107.397 124.841ZM106.902 124.804C106.902 124.803 106.908 124.802 106.914 124.799C106.908 124.802 106.902 124.803 106.902 124.804ZM107.059 124.759C106.987 124.779 106.945 124.791 106.92 124.798C106.951 124.79 107.005 124.775 107.059 124.759ZM102.909 125.554C102.993 125.277 103.084 124.998 103.168 124.721C104.073 125.03 104.978 125.34 105.883 125.649C105.81 125.891 105.732 126.132 105.654 126.373C104.743 126.1 103.826 125.827 102.909 125.554ZM100.043 124.133C100.11 124.106 100.182 124.051 100.242 124.062C100.279 124.069 100.303 124.173 100.333 124.233C100.273 124.285 100.212 124.332 100.158 124.379C100.122 124.297 100.079 124.215 100.043 124.133ZM96.4177 123.909C96.4841 123.827 96.5565 123.672 96.6168 123.677C96.7374 123.687 96.852 123.785 97.214 123.972C96.9546 124.08 96.834 124.178 96.7495 124.153C96.6228 124.118 96.5263 123.995 96.4177 123.909ZM95.6637 120.77C95.736 120.695 95.7964 120.582 95.8808 120.557C95.9411 120.539 96.0376 120.64 96.1402 120.703C96.0557 120.821 95.9954 120.903 95.9351 120.985C95.8446 120.913 95.7541 120.842 95.6637 120.77ZM94.1736 122.121C94.2219 122.074 94.2641 122.026 94.3365 121.958C94.3727 122.006 94.439 122.055 94.439 122.098C94.433 122.16 94.3727 122.216 94.3365 122.275C94.2822 122.224 94.2279 122.173 94.1736 122.121ZM91.9416 123.97C92.7559 123.252 92.8947 123.129 93.0334 123.007C93.0817 123.085 93.136 123.163 93.1903 123.24C93.0335 123.332 92.8766 123.424 91.9416 123.97ZM117.936 139.198C117.912 139.215 117.882 139.232 117.851 139.248C117.839 139.22 117.827 139.193 117.815 139.164C117.857 139.176 117.9 139.187 117.936 139.198ZM125.03 137.953C124.922 138.596 124.825 139.139 124.716 139.779C124.21 139.67 123.667 139.553 122.593 139.322C123.697 138.702 124.361 138.33 125.03 137.953ZM127.956 136.016C127.443 136.566 126.936 137.115 126.424 137.665C126.243 137.568 126.068 137.47 125.887 137.373C126.49 136.844 127.093 136.315 127.691 135.787C127.781 135.863 127.865 135.94 127.956 136.016ZM129.241 132.699C125.977 134.474 122.756 136.318 119.522 138.143C119.812 137.845 120.108 137.555 120.367 137.233C120.916 136.545 121.441 135.835 121.972 135.134C121.073 135.236 120.065 135.115 119.299 135.484C117.212 136.484 115.227 137.706 113.188 138.808C112.772 139.033 112.277 139.114 111.228 139.452C113.918 137.242 116.108 135.438 118.756 133.258C117.387 133.459 116.747 133.552 115.957 133.667C112.875 135.378 109.605 137.193 106.341 139.007C106.197 138.811 106.058 138.614 105.913 138.418C107.306 137.232 108.718 136.065 110.081 134.845C110.335 134.62 110.395 134.181 110.546 133.841C110.54 133.841 110.54 133.84 110.54 133.84C109.207 134.172 107.765 134.294 106.552 134.885C104.489 135.895 102.565 137.2 100.297 137.922C102.378 136.309 104.459 134.696 106.54 133.083C106.414 132.877 106.287 132.671 106.16 132.466C102.649 134.087 99.1444 135.709 95.6335 137.33C95.4887 137.095 95.3439 136.861 95.1991 136.627C96.2488 135.839 97.3467 135.106 98.33 134.242C99.078 133.584 99.6813 132.759 100.351 132.008C99.3133 132.093 98.2094 131.986 97.2623 132.317C96.285 132.655 95.5008 133.489 94.5657 133.981C93.7694 134.4 92.8766 134.64 92.026 134.96C92.0863 134.244 92.1406 133.527 92.2009 132.811C92.6051 132.859 93.1903 133.079 93.3592 132.901C94.4813 131.739 95.5128 130.485 96.5685 129.262C96.3876 129.157 96.1644 128.922 96.0256 128.967C95.0302 129.294 94.0228 129.623 93.0636 130.06C92.5207 130.31 92.0682 130.762 91.5735 131.127C91.4529 130.178 91.3564 129.491 91.29 128.801C91.1392 127.287 91.1272 126.232 93.3592 126.696C99.5908 127.992 105.847 129.293 112.157 130.093C117.508 130.771 122.943 130.741 128.342 131.05C130.001 131.145 131.666 131.305 133.319 131.504C133.494 131.525 133.759 132.232 133.735 132.248C132.432 133.118 131.105 133.947 129.784 134.781C129.561 134.496 129.337 134.213 129.114 133.928C129.392 133.876 129.742 133.91 129.923 133.753C130.206 133.515 130.375 133.145 130.586 132.831C130.134 132.777 129.567 132.521 129.241 132.699ZM135.026 138.345C135.032 138.384 134.839 138.43 134.224 138.69C134.682 138.183 134.797 138.056 134.906 137.93C134.954 138.069 135.026 138.206 135.026 138.345ZM136.263 134.723C136.239 134.733 136.209 134.744 136.178 134.755C136.166 134.726 136.16 134.698 136.148 134.669C136.184 134.687 136.227 134.705 136.263 134.723ZM136.19 133.249C136.19 132.883 136.19 132.517 136.19 132.15C136.245 132.139 136.299 132.127 136.353 132.115C136.402 132.484 136.45 132.853 136.498 133.221C136.396 133.231 136.293 133.24 136.19 133.249ZM138.501 124.341C138.266 124.767 138.036 125.193 137.801 125.618C137.65 125.484 137.493 125.349 137.343 125.215C137.729 124.924 138.115 124.633 138.501 124.341ZM139.128 123.883C139.122 123.885 139.104 123.89 139.086 123.897C139.11 123.889 139.122 123.885 139.128 123.883ZM138.899 123.964C138.893 123.964 138.893 123.966 138.893 123.967C139.05 123.783 139.183 123.634 138.893 123.966C138.893 123.966 138.893 123.964 138.899 123.964ZM139.02 123.92C138.996 123.93 138.959 123.941 138.929 123.953C138.965 123.94 138.996 123.929 139.02 123.92ZM140.564 126.79C140.341 126.947 140.118 127.104 139.894 127.261C139.84 127.189 139.786 127.118 139.725 127.047C139.937 126.878 140.142 126.709 140.353 126.54C140.425 126.623 140.492 126.707 140.564 126.79ZM140.383 122.755C140.6 122.476 140.817 122.197 141.035 121.918C141.149 122.014 141.264 122.111 141.378 122.208C141.137 122.465 140.896 122.724 140.655 122.981C140.564 122.906 140.474 122.831 140.383 122.755ZM141.795 125.739C141.795 125.74 141.789 125.741 141.783 125.743C141.789 125.741 141.795 125.74 141.795 125.739ZM141.752 125.755C141.74 125.759 141.722 125.763 141.71 125.769C141.722 125.763 141.74 125.759 141.752 125.755ZM141.62 125.798L141.626 125.798L141.62 125.798ZM141.59 125.827C141.608 125.849 141.632 125.886 141.632 125.886L141.584 125.838C141.584 125.834 141.59 125.831 141.59 125.827ZM144.509 124.488C144.202 124.129 143.888 123.769 143.574 123.41C144.425 122.926 145.275 122.442 146.126 121.957C145.589 122.801 145.046 123.644 144.509 124.488ZM146.41 125.851C146.464 125.824 146.675 126.114 146.82 126.257C146.271 126.628 145.728 126.999 145.185 127.37C145.034 127.177 144.889 126.984 144.739 126.791C145.294 126.47 145.836 126.135 146.41 125.851ZM152.696 124.306C152.231 124.934 151.766 125.562 151.296 126.19C151.061 125.943 150.825 125.697 150.59 125.45C151.29 125.069 151.996 124.688 152.696 124.306ZM154.451 120.682L154.463 120.658C154.469 120.656 154.451 120.682 154.451 120.682ZM162.396 120.272C162.281 120.413 162.227 120.512 162.149 120.559C162.118 120.576 162.004 120.48 161.956 120.415C161.943 120.395 162.016 120.27 162.064 120.254C162.143 120.23 162.239 120.26 162.396 120.272ZM84.9739 121.494C86.5484 119.89 88.1169 118.286 89.6914 116.682C89.5768 116.486 89.4622 116.291 89.3475 116.094C87.3749 117.074 85.4022 118.053 83.3451 119.077C83.8338 117.975 84.3104 116.896 84.4431 116.594C85.4747 115.897 85.8426 115.554 86.2769 115.38C86.7596 115.189 87.3387 114.974 87.8092 115.079C92.5508 116.143 97.2442 117.478 102.028 118.319C106.498 119.106 111.053 119.782 115.577 119.804C122.436 119.836 129.301 119.292 136.166 118.924C138.03 118.824 139.888 118.262 141.746 118.289C146.162 118.351 149.8 115.863 153.854 114.758C158.788 113.413 163.657 111.652 168.338 109.576C173.749 107.178 179.1 104.686 183.051 99.8066C185.603 96.6625 189.066 94.2628 192.354 91.3245C192.704 94.2036 192.71 96.8358 193.403 99.2699C194.242 102.2 191.889 103.627 190.574 104.776C185.513 109.202 179.993 113.11 174.642 117.203C174.533 117.287 174.358 117.283 173.822 117.418C175.064 116.107 176.048 115.064 177.743 113.275C176.391 113.681 175.722 113.706 175.294 114.037C172.283 116.376 169.315 118.781 166.323 121.151C166.208 121.243 165.985 121.2 164.622 121.356C167.343 119.276 169.273 117.802 171.203 116.327C170.902 115.97 170.594 115.612 170.293 115.255C168.145 116.547 166.003 117.839 163.705 119.225C163.663 119.108 163.47 118.576 163.12 117.595C159.681 119.796 156.267 121.984 152.846 124.172C154.342 121.984 155.838 119.8 157.117 117.938C155.018 116.713 153.679 121.003 150.735 121.58C151.791 120.629 152.623 119.879 153.456 119.129C153.341 118.943 153.226 118.757 153.112 118.571C150.807 119.673 148.509 120.774 146.204 121.875C146.476 121.03 146.747 120.185 147.013 119.339C145.915 119.734 144.841 120.237 143.707 120.494C142.416 120.788 141.053 120.793 139.756 121.064C139.08 121.204 138.477 121.648 138.501 121.636C136.969 122.587 136.148 123.097 135.328 123.608C135.249 123.278 135.171 122.949 135.092 122.619C133.808 122.986 132.408 123.133 131.28 123.766C129.271 124.889 127.443 126.321 125.513 127.584C125.229 127.771 124.795 127.738 123.902 127.908C125.579 126.334 126.876 125.122 128.167 123.91C127.992 123.611 127.817 123.312 127.642 123.014C124.517 124.598 121.393 126.182 118.268 127.766C118.207 127.646 118.141 127.526 118.075 127.405C119.812 125.979 121.555 124.554 123.299 123.128C123.16 122.82 123.015 122.513 122.877 122.205C120.838 123 118.805 123.794 116.868 124.55C117.23 123.926 117.598 123.306 117.96 122.684C116.91 122.914 115.794 122.996 114.829 123.414C113.81 123.853 112.929 124.615 111.427 124.648C111.915 124.376 112.525 124.206 112.868 123.81C113.357 123.251 113.653 122.524 114.033 121.868C113.001 122.044 111.97 122.191 110.95 122.407C110.437 122.515 109.943 122.739 109.442 122.916C109.955 122.28 110.474 121.636 111.493 120.38C107.741 121.164 104.797 121.781 102.149 122.335C102.42 121.89 102.873 121.147 103.331 120.404C102.058 120.624 100.779 120.845 99.5848 121.053C99.6633 120.984 99.9709 120.744 100.236 120.468C100.677 120.023 101.087 119.554 101.503 119.095C100.84 119.054 100.182 119.002 99.5124 118.977C98.5472 118.94 97.5337 118.733 96.6168 118.939C95.1871 119.261 93.8237 119.867 92.2794 119.644C91.7183 119.717 91.1271 119.694 90.6023 119.88C88.7925 120.525 87.0009 121.242 84.9739 121.494ZM81.0105 112.623C81.7586 112.834 82.6212 112.884 83.2064 113.313C83.5985 113.598 83.8941 114.572 83.701 114.978C83.2908 115.825 82.5247 116.5 81.5173 117.717C81.3242 115.743 81.1674 114.183 81.0105 112.623ZM79.6653 108.011C79.8824 106.9 80.0996 105.789 80.3108 104.678C80.6305 104.784 80.9502 104.89 81.2699 104.997C80.914 106.056 80.5581 107.116 80.2021 108.176C80.0272 108.121 79.8463 108.066 79.6653 108.011ZM85.2454 106.928C85.0162 108.328 84.4431 109.672 83.9966 111.038C83.7855 110.765 83.5683 110.492 83.1823 110C83.4658 108.49 83.7614 106.932 84.051 105.375C84.4732 105.897 85.3178 106.488 85.2454 106.928ZM89.619 107.291C89.2872 109.306 89.058 110.842 88.7564 112.364C88.7262 112.516 88.1531 112.749 88.0325 112.662C87.5619 112.327 86.7897 111.85 86.8199 111.476C86.9405 109.78 87.2723 108.097 87.6162 106.427C87.6403 106.307 88.4487 106.161 88.7141 106.322C89.1545 106.586 89.4441 107.091 89.619 107.291ZM93.6729 107.479C93.1722 110.031 92.8766 111.692 92.4784 113.326C92.4302 113.541 91.6942 113.838 91.5193 113.724C91.1272 113.476 90.5842 112.923 90.6506 112.607C90.9582 111.074 91.4167 109.565 91.9114 108.078C92.0139 107.772 92.4905 107.457 92.8404 107.398C93.2868 107.32 93.7815 107.494 93.6729 107.479ZM97.0632 108.212C96.653 110.436 96.2428 112.659 95.8326 114.883C95.4284 114.79 95.0302 114.697 94.6321 114.603C95.175 112.411 95.7119 110.218 96.2548 108.025C96.5203 108.088 96.7917 108.15 97.0632 108.212ZM100.743 109.334C100.447 111.323 100.122 113.311 99.6813 115.271C99.621 115.54 98.8428 115.846 98.4627 115.779C98.1732 115.729 97.9922 115.109 97.8957 114.962C98.4688 112.732 98.9091 110.9 99.4279 109.092C99.5064 108.824 99.9769 108.67 100.26 108.462C100.435 108.755 100.785 109.073 100.743 109.334ZM105.243 108.705C104.622 111.308 104.091 113.656 103.446 115.972C103.385 116.193 102.595 116.315 102.155 116.281C101.962 116.265 101.594 115.7 101.654 115.476C102.251 113.22 102.885 110.971 103.609 108.753C103.705 108.468 104.357 108.28 104.773 108.227C104.948 108.205 105.189 108.643 105.243 108.705ZM108.573 108.718C108.284 110.513 108 112.308 107.705 114.102C107.662 114.333 107.602 114.565 107.524 114.785C107.24 115.531 106.951 116.272 106.661 117.015C106.42 116.122 105.816 115.14 106.003 114.351C106.48 112.387 107.319 110.511 108.006 108.599C108.199 108.639 108.386 108.679 108.573 108.718ZM112.507 109.406C111.933 111.774 111.318 114.134 110.709 116.492C110.612 116.856 110.431 117.199 110.293 117.552C109.997 117.198 109.701 116.844 109.539 116.645C110.148 113.89 110.667 111.401 111.294 108.942C111.372 108.635 112.06 108.484 112.464 108.26C112.482 108.644 112.591 109.049 112.507 109.406ZM120.277 108.31C120.307 108.351 120.313 108.359 120.277 108.31V108.31ZM114.075 116.771C113.96 117.107 113.496 117.325 113.194 117.598C113.068 117.21 112.736 116.753 112.838 116.446C113.725 113.85 114.654 111.269 115.662 108.72C115.818 108.33 116.44 108.126 116.959 107.759C115.927 111.021 115.034 113.907 114.075 116.771ZM119.583 117.377C119.553 117.439 119.516 117.499 119.474 117.542C119.456 117.555 119.378 117.528 119.372 117.515C119.372 117.45 119.378 117.384 119.384 117.319C119.45 117.338 119.516 117.357 119.583 117.377ZM118.557 116.938C118.485 117.251 117.429 117.335 116.832 117.526C116.886 117.06 116.862 116.57 117.001 116.131C117.797 113.607 118.618 111.092 119.468 108.586C119.547 108.359 119.866 108.216 120.071 108.033C120.138 108.118 120.198 108.202 120.24 108.261C120.24 108.26 120.24 108.26 120.24 108.258C119.643 111.477 119.191 114.228 118.557 116.938ZM159.681 100.395C159.802 100.062 160.586 99.9732 161.063 99.771C161.057 100.219 161.141 100.688 161.033 101.111C160.254 104.275 159.53 107.46 158.541 110.558C158.36 111.135 157.051 111.352 155.597 112.059C157.099 107.717 158.336 104.037 159.681 100.395ZM150.831 111.318C151.706 109.163 152.768 107.079 153.57 104.899C153.824 104.22 153.48 103.323 153.359 101.899C153.926 101.755 155.103 101.456 156.792 101.028C155.7 104.095 154.783 106.723 153.836 109.344C153.395 110.574 153.051 111.875 152.388 112.972C152.122 113.4 151.091 113.355 150.403 113.526C150.542 112.787 150.554 111.999 150.831 111.318ZM151.537 102.69C150.421 106.311 149.438 109.928 148.129 113.425C147.809 114.292 146.452 114.771 145.348 115.592C145.312 112.563 150.367 102.621 151.537 102.69ZM135.919 115.234C137.065 112.385 138.429 109.624 139.641 106.8C139.804 106.429 139.484 105.853 139.351 105.173C140.13 105.06 141.029 104.93 142.072 104.777C141.602 106.252 141.167 107.626 140.727 108.998C140.142 110.801 139.502 112.589 139.026 114.419C138.953 114.691 139.611 115.2 140.003 115.501C140.069 115.552 140.648 115.161 140.769 114.878C142.078 111.898 143.345 108.901 144.594 105.9C144.739 105.556 144.654 105.098 144.835 104.791C145.064 104.401 145.432 104.057 145.812 103.8C146.011 103.662 146.367 103.746 146.657 103.731C146.591 104.119 146.591 104.532 146.452 104.893C145.155 108.273 143.906 111.677 142.452 114.992C142.169 115.65 141.137 116.132 140.347 116.382C139.315 116.71 138.163 116.914 137.107 116.791C136.631 116.736 135.786 115.569 135.919 115.234ZM131.889 115.361C133.078 112.355 134.332 109.372 135.684 106.433C135.871 106.014 136.679 105.879 137.204 105.612C137.113 106.019 137.071 106.442 136.926 106.831C135.786 110.006 134.64 113.176 133.464 116.337C133.337 116.677 133.017 116.946 132.082 118.185C131.95 116.548 131.69 115.864 131.889 115.361ZM127.685 114.399C128.595 112.079 129.675 109.817 130.803 107.593C131.063 107.09 131.799 106.832 132.312 106.461C132.33 107.066 132.492 107.713 132.336 108.27C131.588 110.943 130.749 113.592 129.947 116.25C129.736 116.937 129.518 117.622 129.307 118.309C128.674 117.986 128.046 117.663 127.413 117.34C127.491 116.354 127.341 115.279 127.685 114.399ZM121.797 117.08C121.73 117.272 121.314 117.475 121.091 117.45C120.856 117.425 120.433 117.053 120.464 116.96C121.501 113.903 122.557 110.851 123.697 107.832C123.83 107.484 124.481 107.335 124.94 107.069C123.848 110.561 122.846 113.828 121.797 117.08ZM127.624 107.026C127.781 107.081 127.932 107.136 128.083 107.191C126.949 110.539 125.814 113.887 124.68 117.235C124.33 117.088 123.981 116.94 123.631 116.793C124.964 113.537 126.297 110.282 127.624 107.026ZM163.759 108.308C163.494 109.044 162.161 109.39 161.316 109.916C161.316 109.253 161.117 108.511 161.346 107.941C162.667 104.634 164.049 101.345 165.527 98.1066C165.78 97.5536 166.625 97.271 167.427 96.7005C166.142 100.878 165.092 104.644 163.759 108.308ZM166.383 106.536C167.566 103.645 168.815 100.782 170.039 97.9085C170.54 96.7422 169.351 94.6757 171.825 94.5671C172.139 94.5532 172.458 94.5477 172.772 94.538C172.748 94.8296 172.76 95.1303 172.687 95.4116C171.831 98.924 171.101 102.481 169.991 105.912C169.695 106.828 168.205 107.356 166.643 108.528C166.48 107.374 166.245 106.879 166.383 106.536ZM177.598 101.871C175.921 102.983 174.244 104.096 172.573 105.209C172.319 105.09 172.066 104.97 171.813 104.85C173.242 100.949 174.672 97.0483 176.102 93.1471C175.836 93.0155 175.571 92.8845 175.306 92.7529C176.428 92.1202 177.556 91.4875 178.841 90.7649C178.111 94.6051 177.435 98.1579 176.753 101.711C177.037 101.764 177.314 101.817 177.598 101.871ZM187.045 84.3041C186.092 90.6985 185.344 97.195 178.889 100.311C179.818 97.4485 181.585 94.2163 181.76 90.9014C181.959 86.9634 184.891 86.1521 187.045 84.3041ZM71.9557 89.7501C69.3918 83.7469 70.9663 78.3051 74.1213 73.7562C77.6745 68.6471 82.6272 64.5057 87.031 60.0039C89.1665 57.8173 91.4469 55.7677 93.7694 53.5515C93.9986 54.0182 94.1253 54.276 94.1133 54.2549C94.8492 53.592 95.5249 52.7824 96.3755 52.2409C100.858 49.3896 105.231 46.3138 109.937 43.8911C113.719 41.9423 117.918 40.7935 121.954 39.3458C122.376 39.1949 122.931 39.4255 123.425 39.4793C123.739 39.4799 124.059 39.4805 124.373 39.4811C124.837 39.2981 125.308 39.1146 125.905 38.8816C125.905 38.887 126.074 39.172 126.225 39.4285C130.695 38.4004 135.129 37.382 139.593 36.3569C139.611 36.4444 139.629 36.5887 139.647 36.7016C145.257 33.2183 151.157 34.6871 156.955 35.7339C162.402 36.7173 167.952 37.5444 173.158 39.3175C177.749 40.8817 182.213 43.2415 186.212 46.0059C190.966 49.2888 192.631 54.5869 193.373 60.2019C194.35 67.5725 192.462 74.2181 188.113 80.0233C186.442 82.2521 183.842 83.9461 181.374 85.3823C174.546 89.3577 167.572 93.091 160.622 96.8533C159.85 97.2716 158.843 97.2596 157.413 97.5584C157.606 97.2257 157.437 97.5161 157.829 96.8442C155.839 97.888 154.741 98.6366 153.522 99.0501C152.563 99.3761 151.411 99.1232 150.439 99.4226C148.986 99.8706 147.664 100.843 146.198 101.13C139.593 102.424 132.969 103.635 126.321 104.709C123.178 105.216 119.981 105.4 116.802 105.64C114.226 105.833 111.638 105.929 109.056 105.995C107.234 106.041 105.358 106.22 103.59 105.9C96.8882 104.689 90.0172 103.911 83.5985 101.793C78.0244 99.9539 74.3747 95.4219 71.9557 89.7501ZM77.6866 108.322C76.9024 107.693 75.8828 107.236 75.9009 106.823C75.9794 104.942 76.3534 103.073 76.6188 101.199C77.1618 101.656 78.1511 102.105 78.1571 102.569C78.1813 104.355 77.8917 106.145 77.6866 108.322ZM74.236 106.266C72.5408 106.047 70.8758 98.4386 71.8591 95.76C73.8921 96.8243 74.6582 100.188 74.236 106.266ZM101.455 45.3696L101.407 45.4275L101.383 45.3569L101.455 45.3696ZM103.283 44.1664C103.337 44.0535 103.476 43.9563 103.596 43.911C103.645 43.8941 103.826 44.0583 103.814 44.1084C103.783 44.231 103.675 44.3342 103.53 44.5492C103.397 44.3566 103.259 44.2183 103.283 44.1664ZM108.984 41.3694L108.953 41.4274L108.917 41.3737L108.984 41.3694ZM116.597 38.5115L116.536 38.5568L116.53 38.4789L116.597 38.5115ZM122.937 36.5911C122.967 36.7022 122.997 36.8133 123.027 36.925C122.623 37.0246 122.225 37.1242 121.821 37.2244C121.791 37.1019 121.761 36.9793 121.73 36.8568C122.135 36.7686 122.533 36.6799 122.937 36.5911ZM124.228 36.4058L124.161 36.4752L124.137 36.3895L124.228 36.4058ZM128.746 34.812C128.776 34.8332 128.825 34.8494 128.831 34.8772C128.843 34.9044 128.813 34.9424 128.794 34.9756C128.758 34.9714 128.722 34.9714 128.686 34.9714C128.71 34.9183 128.728 34.8652 128.746 34.812ZM133.271 33.8202C133.331 33.8479 133.385 33.8787 133.434 33.9101C133.397 33.953 133.361 34.0006 133.319 34.0357C133.307 34.0435 133.24 34.0079 133.24 33.994C133.24 33.9355 133.259 33.8781 133.271 33.8202ZM133.415 34.7831C133.385 34.7849 133.355 34.7867 133.331 34.7885C133.343 34.7438 133.355 34.6991 133.367 34.6545C133.391 34.6695 133.427 34.6798 133.44 34.7009C133.446 34.7227 133.421 34.7553 133.415 34.7831ZM193.771 74.1444C195.732 80.9753 191.998 91.068 187.678 92.4511C188.342 89.7912 188.861 87.0292 189.742 84.3923C190.827 81.1612 192.227 78.0341 193.771 74.1444ZM195.913 98.0594C195.448 93.6567 195.454 93.3717 199.78 94.0382C202.705 94.488 205.668 95.5469 208.262 96.9746C210.656 98.2943 210.228 103.406 207.887 104.937C205.131 106.742 202.464 108.765 199.514 110.176C196.299 111.713 192.794 112.65 189.422 113.861C187.926 114.399 186.448 114.978 184.952 115.519C183.474 116.055 181.99 116.568 180.512 117.091C186.997 113.261 191.775 107.903 195.792 101.834C196.383 100.936 196.052 99.3194 195.913 98.0594ZM74.5315 151.826C74.5315 151.822 74.5315 151.818 74.5315 151.814C74.5798 151.623 74.5557 151.71 74.5315 151.826ZM212.762 98.1675C212.466 98.31 212.177 98.4525 211.887 98.5943C210.862 94.785 203.562 90.5168 199.55 91.1658C198.109 91.3994 196.558 90.9835 195.056 90.8633C195.623 89.5412 196.196 88.2233 196.745 86.8934C196.902 86.5076 197.089 86.0832 197.071 85.683C196.866 79.2795 197.27 72.7686 196.202 66.5088C195.34 61.4691 196.076 56.334 193.645 51.2176C191.256 46.1864 187.624 43.4081 183.299 41.0797C179.782 39.1877 175.903 37.932 172.114 36.5972C169.707 35.7484 167.168 35.2715 164.242 34.512C164.242 34.5114 163.795 34.119 163.168 33.5708C163.06 34.2754 163.005 34.6297 162.969 34.8205C162.384 34.6321 161.883 34.4703 161.334 34.2941C161.37 34.2192 161.461 34.0278 161.557 33.8316C160.858 33.7978 160.158 33.761 159.464 33.7302C158.994 33.7097 158.445 33.8371 158.077 33.6366C157.805 33.4887 157.757 32.917 157.739 32.8572C156.267 32.7311 154.765 32.6019 153.263 32.4721C153.281 32.3145 153.305 32.157 153.323 32C150.108 32.1503 146.886 32.3006 143.068 32.4787C142.989 32.5608 142.808 32.6918 142.615 32.7081C140.522 32.8862 138.392 32.8156 136.323 33.1283C134.284 33.4368 131.25 31.569 130.622 36.5115C130.405 34.969 130.333 34.4643 130.212 33.6119C129.301 34.0544 128.451 34.3399 127.757 34.8416C127.208 35.2376 126.852 35.8999 126.412 36.4438C126.249 36.314 126.08 36.1849 125.911 36.0551C126.357 35.7049 126.804 35.3554 127.25 35.0058C126.689 34.9606 126.098 34.7806 125.573 34.8941C123.812 35.2745 122.05 35.6777 120.337 36.2362C119.348 36.5592 118.509 37.3476 117.514 37.6428C116.717 37.88 115.788 37.6911 114.926 37.6911C114.889 37.897 114.859 38.1034 114.829 38.3099C115.203 38.4735 115.583 38.6377 116.452 39.0174C115.064 39.2818 114.509 39.3875 113.918 39.4998C114.003 39.1478 114.081 38.808 114.256 38.0431C112.669 38.8683 111.421 39.5173 110.172 40.1663C103.5 42.1983 98.4869 46.8408 93.3049 51.2309C87.9118 55.8033 82.4885 60.3365 76.9144 65.0267C76.8963 65.0985 76.8843 65.4867 76.7093 65.7626C74.797 68.7051 72.7821 71.5823 70.9361 74.5676C66.46 81.8313 68.0526 89.5135 69.5306 97.1708L69.5185 97.1805C69.1686 99.093 68.4869 101.018 68.5533 102.917C68.68 106.651 71.9194 107.585 74.616 108.986C75.7924 109.598 77.5177 110.431 77.7107 111.415C78.2717 114.297 78.0425 117.325 78.4225 120.257C78.5975 121.601 79.1404 123.5 80.1056 123.998C81.5716 124.751 83.6106 124.282 85.2876 124.749C86.47 125.077 88.0384 125.877 88.4064 126.854C89.2691 129.166 87.2603 129.969 85.535 130.728C79.7316 133.278 76.1845 137.686 74.8875 143.868C74.5557 145.448 74.984 148.183 74.242 148.512C70.3389 150.233 74.2239 150.824 74.5255 151.86C74.5255 151.86 74.5255 151.86 74.5255 151.861V151.861C74.5316 151.868 74.5315 151.875 74.5315 151.882C74.5315 151.876 74.5315 151.87 74.5315 151.864C75.7923 152.466 77.1376 152.929 78.2838 153.687C83.1279 156.884 88.9071 155.831 94.1494 157.254C96.8822 157.996 99.8503 157.925 102.722 158.097C108.953 158.471 115.209 159.157 121.429 158.968C126.508 158.814 131.6 157.778 136.601 156.748C140.087 156.031 143.478 154.767 146.838 153.562C151.7 151.822 156.629 150.179 161.292 148.003C166.329 145.657 171.143 142.82 175.951 140.018C177.055 139.374 177.731 138.001 178.605 136.963C177.863 136.501 177.121 136.039 176.301 135.526C178.062 135.071 180.017 134.566 181.978 134.061L181.984 134.067C185.73 132.611 189.567 131.334 193.21 129.651C197.439 127.697 201.795 125.789 205.547 123.1C208.449 121.021 211.616 118.137 212.677 114.949C214.125 110.583 213.763 105.593 213.998 100.862C214.041 99.9859 213.196 99.067 212.762 98.1675Z" fill="#4C494A"/>
<path d="M98.4502 89.868C98.4684 89.8409 98.4866 89.8144 98.5048 89.7879C98.5532 89.8439 98.6017 89.9006 98.6562 89.9566C98.5895 89.9271 98.5169 89.8976 98.4502 89.868ZM140.691 43.93C140.678 43.9119 140.666 43.892 140.648 43.8703C140.666 43.8926 140.678 43.9125 140.691 43.93ZM140.727 43.9878C140.721 43.9764 140.709 43.9631 140.703 43.948C140.715 43.9643 140.721 43.977 140.727 43.9878ZM85.7994 84.968C85.9871 84.5488 86.1627 84.1216 86.3686 83.712C88.1551 80.1777 91.1771 82.1879 93.7327 82.0939C95.4344 82.0313 97.2027 82.256 98.8136 81.853C99.619 81.6506 100.097 80.2819 100.812 79.5289C103.053 77.1879 105.36 74.9168 107.577 72.5572C108.255 71.8343 108.727 70.918 109.29 70.0885C109.375 70.4879 109.466 70.8879 109.496 71.0361C115.516 64.8885 121.578 58.6951 128.034 52.1005C125.151 51.8914 122.498 51.6993 119.846 51.5071C119.689 51.23 119.537 50.9523 119.38 50.6752C121.82 49.5776 124.17 48.1179 126.726 47.4842C129.324 46.839 132.188 47.2679 134.816 46.7005C136.003 46.4444 136.827 44.7938 137.959 43.983C139.582 42.8258 141.345 41.8589 143.04 40.8107C143.204 41.089 143.367 41.3667 143.531 41.645C142.52 42.3571 141.508 43.0685 140.563 43.7384C140.582 43.7673 140.6 43.7932 140.612 43.8173C140.588 43.7758 140.557 43.73 140.521 43.6824C140.321 43.848 139.928 44.1047 139.952 44.1643C140.364 45.0426 140.89 46.6595 141.278 46.6324C144.276 46.4258 147.697 47.8697 150.071 44.6932C150.374 44.2956 151.21 44.3004 151.258 44.286C151.573 43.3257 151.719 41.9637 152.076 41.9077C154.123 41.5866 156.224 41.5752 158.804 41.4312C157.26 43.0981 156.133 44.1396 155.285 45.3752C155.104 45.648 155.873 46.6462 156.303 47.2414C157.211 48.5083 158.84 49.6764 158.949 50.9854C159.064 52.3541 158.12 54.5378 156.975 55.1487C153.13 57.2053 148.987 58.6969 144.99 60.48C144.585 60.6614 144.27 61.3264 144.173 61.818C144.112 62.1065 144.482 62.6848 144.797 62.8095C146.91 63.662 150.871 64.4186 150.877 65.2246C150.895 68.4517 150.217 71.9451 148.775 74.8385C147.479 77.4475 145.039 79.618 142.744 81.5716C141.084 82.9885 138.838 83.7192 136.869 84.7957C136.53 84.9819 136.3 85.3674 135.9 85.7921C135.737 85.515 135.585 85.25 135.428 84.9855C133.999 85.5265 132.564 86.0686 130.462 86.8632C131.576 87.0915 131.891 87.1566 132.309 87.2427C132.176 87.3921 132.091 87.5783 132 87.5795C129.517 87.603 127.028 87.5114 124.551 87.665C123.625 87.7229 122.347 87.1644 122.311 89.4825C122.287 91.1126 120.016 92.8644 118.465 94.2482C117.696 94.9301 116.309 95.0397 115.171 95.1596C113.778 95.3072 112.355 95.1952 109.829 95.1952C113.136 92.2994 115.825 89.9445 118.32 87.7608C112.264 85.6391 107.268 86.4722 104.391 92.6367C104.209 92.4903 104.349 92.612 104.5 92.7229C104.621 92.8144 104.761 92.8934 104.966 93.0289C102.035 97.4512 97.9719 94.4458 93.6116 95.1909C95.1679 93.4476 96.1126 92.3837 97.7114 90.5927C97.8083 90.5373 98.2504 90.2789 98.7106 90.015C98.7106 90.018 98.7107 90.0204 98.7167 90.0229C98.7228 90.0144 98.7288 90.006 98.7409 89.9976C98.7409 89.997 98.7409 89.9957 98.7409 89.9951C98.7409 89.9945 98.7409 89.9945 98.7409 89.9939C99.0498 89.659 99.3647 89.3102 100.134 88.4686C98.0384 87.7289 96.3004 86.9283 94.4715 86.5192C92.0127 85.9686 89.4814 85.7283 86.9863 85.3331C86.5806 85.2692 86.193 85.0921 85.7994 84.968ZM109.393 70.0439C109.399 70.0427 109.406 70.0415 109.406 70.0403C109.406 70.0415 109.399 70.0427 109.393 70.0439ZM109.345 70.0602C109.351 70.0571 109.363 70.0535 109.375 70.0511C109.363 70.0535 109.357 70.0565 109.345 70.0602ZM109.418 70.0379C109.418 70.0361 109.424 70.0348 109.424 70.0342C109.424 70.0348 109.424 70.0361 109.418 70.0379ZM133.92 86.7253C133.884 86.6457 133.847 86.5662 133.805 86.4867C134.035 86.3801 134.265 86.274 134.495 86.1674C134.538 86.2542 134.574 86.3409 134.616 86.4277C134.386 86.5265 134.15 86.6259 133.92 86.7253ZM94.2353 90.6783C92.9696 92.3223 91.4556 93.7795 90.1838 95.4175C89.875 95.8169 90.0143 96.6982 90.2081 97.2729C90.2687 97.4524 91.171 97.3873 91.6857 97.3735C92.261 97.3584 92.8424 97.1897 93.4056 97.2331C95.9915 97.4325 98.5774 97.8777 101.157 97.8663C104.579 97.8512 106.069 95.1277 107.564 92.6403C109.333 89.6958 111.604 88.2584 113.457 89.112C111.313 91.3524 109.151 93.5668 107.062 95.85C106.759 96.1759 106.583 97.0205 106.789 97.2928C107.068 97.6608 107.782 97.8747 108.303 97.8638C110.81 97.8114 113.572 96.9584 115.77 97.7253C118.441 98.6554 119.107 97.0337 119.913 95.6915C122.256 91.7626 125.787 90.7765 130.099 90.1259C133.811 89.5656 137.608 87.921 140.775 85.8548C144.5 83.4204 147.588 80.015 150.907 77.0734C151.513 71.9318 156.6 66.7716 151.731 61.4884C153.481 60.3957 155.667 59.1433 157.732 57.718C161.111 55.3878 163.189 49.0577 159.385 45.6734C159.113 45.4324 159.222 44.4011 159.513 43.977C160.142 43.0468 161.075 42.3197 161.741 41.4089C162.002 41.0517 162.086 40.333 161.899 39.9505C161.753 39.6619 161.063 39.601 160.597 39.5203C160.106 39.4348 159.603 39.4276 159.101 39.4185C156.521 39.3733 153.366 38.4185 151.507 39.5534C149.544 40.7474 148.824 43.9444 147.558 46.2661C146.716 45.5294 145.875 44.7926 145.033 44.0559C145.396 43.4655 145.82 42.9028 146.105 42.2769C146.541 41.3161 147.358 39.5474 147.189 39.4432C145.402 38.3384 138.165 39.9035 136.797 41.5179C136.47 41.9035 136.3 42.6028 135.919 42.7312C133.872 43.4161 131.8 44.1059 129.687 44.5185C127.87 44.8734 125.502 44.2077 124.218 45.139C121.451 47.1468 119.192 49.8607 116.812 52.3734C116.521 52.6824 116.733 53.5402 116.866 54.1083C116.897 54.2258 117.617 54.2523 117.999 54.2053C119.525 54.0216 121.045 53.78 122.565 53.5939C122.765 53.5698 123.062 53.6914 123.171 53.8451C123.255 53.9692 123.189 54.2963 123.074 54.4409C122.583 55.0511 122.093 55.6722 121.523 56.2083C113.863 63.4583 106.093 70.5957 98.5835 78.0005C96.6395 79.9192 94.8591 80.121 92.467 79.7011C90.7834 79.4054 88.5245 78.9174 87.386 79.724C85.3391 81.1801 83.8977 83.5102 82.299 85.5506C81.9841 85.9572 81.9296 86.7482 82.081 87.2698C82.1658 87.5668 82.8925 87.8018 83.3527 87.8536C86.7925 88.2421 90.2504 88.5379 93.6842 89.003C93.9567 89.0403 94.4473 90.397 94.2353 90.6783Z" fill="#4C494A"/>
<path d="M110.057 77.516C112.854 74.7439 116.522 72.5342 118.405 69.2357C120.887 64.8996 124.174 67.0036 127.104 66.8449C131.238 66.6216 135.409 66.8704 139.544 67.1578C140.997 67.2586 142.401 68.0574 143.824 68.5439C144.387 72.5802 140.833 77.6535 136.517 78.201C128.066 79.2723 119.567 80.0045 111.086 80.7815C110.245 80.8587 109.343 80.2782 108.471 80.0026C108.992 79.1653 109.379 78.1867 110.057 77.516ZM143.951 68.3423C143.951 68.3392 143.951 68.3361 143.951 68.3337C143.951 68.3361 143.951 68.3386 143.951 68.3423ZM143.902 68.4406C143.914 68.4145 143.927 68.3902 143.933 68.371C143.927 68.3884 143.914 68.4114 143.902 68.4406ZM143.945 68.4363C143.927 68.4481 143.908 68.4624 143.884 68.4767C143.908 68.4606 143.927 68.4475 143.945 68.4363ZM144.011 68.3865C144.017 68.3809 144.017 68.3815 144.011 68.3865V68.3865ZM144.786 69.1144C144.835 69.13 144.889 69.1461 144.937 69.1623C144.919 69.194 144.901 69.2258 144.883 69.2569C144.847 69.2463 144.798 69.2451 144.786 69.2227C144.768 69.1965 144.786 69.1511 144.786 69.1144ZM106.098 81.3439C107.315 82.2354 108.925 83.0012 110.39 83C113.647 82.9981 116.898 82.4345 120.161 82.2317C124.222 81.9785 128.327 82.1259 132.358 81.6176C138.43 80.8512 143.067 77.5478 146.178 72.0825C148.097 68.7187 146.536 65.3326 142.734 65.2268C135.73 65.0314 128.714 65.1708 121.698 65.1708C121.644 64.7807 121.595 64.3901 121.541 64C120.754 64.4299 119.816 64.7067 119.204 65.3232C118.024 66.5146 117.116 67.9902 115.935 69.1822C112.993 72.1553 109.876 74.9492 107.031 78.0119C106.304 78.7933 105.772 81.1025 106.098 81.3439Z" fill="#4C494A"/>
<path d="M136.841 50.8015C138.042 49.9912 140.103 50.141 141.786 50.1088C144.478 50.0583 147.183 50.1065 149.857 50.3573C150.55 50.4227 151.151 51.3921 151.794 51.9459C151.361 52.3368 150.996 52.9606 150.494 53.08C146.96 53.9162 143.426 54.7696 139.843 55.3717C137.255 55.8055 134.6 55.8601 131.747 56.1034C133.591 54.1062 134.928 52.0866 136.841 50.8015ZM135.956 58.2493C135.906 58.1253 135.863 58.0014 135.82 57.8774C136.141 57.7867 136.463 57.696 136.779 57.6054C136.816 57.7064 136.859 57.8074 136.897 57.9084C136.581 58.022 136.265 58.1357 135.956 58.2493ZM129.005 57.8935C130.775 57.9411 132.545 57.9153 134.322 57.9411C134.532 57.9445 134.743 58.1052 135.095 58.251C134.637 58.4915 134.377 58.6298 133.672 59C135.733 59 137.293 59 138.852 59C138.741 58.7435 138.63 58.4863 138.518 58.2292C138.871 57.9359 139.18 57.4711 139.589 57.3758C143.73 56.4093 147.951 55.6845 151.992 54.4517C153.001 54.1435 153.892 52.2886 153.998 51.0805C154.066 50.3527 152.642 49.0224 151.664 48.7997C149.281 48.2568 146.762 47.9578 144.305 48.0048C140.505 48.0783 136.711 48.5219 131.827 48.8904C133.548 49.6376 134.186 49.9143 135.51 50.4905C133.022 52.5348 130.664 54.4517 128.343 56.4151C128.089 56.6349 127.934 57.1629 128.027 57.4694C128.089 57.6857 128.659 57.8843 129.005 57.8935Z" fill="#4C494A"/>
</svg>
