<svg width="64" height="64" viewBox="0 0 64 64" fill="none" xmlns="http://www.w3.org/2000/svg">
<path d="M50 34C57.1797 34 63 28.1797 63 21C63 13.8203 57.1797 8 50 8C42.8203 8 37 13.8203 37 21C37 28.1797 42.8203 34 50 34Z" fill="#212121"/>
<path d="M37 36H15C14.4477 36 14 36.4477 14 37V59C14 59.5523 14.4477 60 15 60H37C37.5523 60 38 59.5523 38 59V37C38 36.4477 37.5523 36 37 36Z" fill="#212121"/>
<path d="M30.874 27.486C30.9605 27.3305 31.004 27.1547 31 26.9768C30.9959 26.7989 30.9445 26.6253 30.851 26.474L17.851 5.47395C17.755 5.33777 17.6276 5.22665 17.4797 5.14994C17.3318 5.07324 17.1676 5.0332 17.001 5.0332C16.8344 5.0332 16.6702 5.07324 16.5222 5.14994C16.3743 5.22665 16.247 5.33777 16.151 5.47395L3.15098 26.474C3.05736 26.6253 3.00584 26.7989 3.00173 26.9769C2.99762 27.1548 3.04108 27.3306 3.1276 27.4861C3.21413 27.6417 3.34061 27.7713 3.49396 27.8616C3.64732 27.9519 3.822 27.9997 3.99998 28H30C30.1783 28 30.3533 27.9523 30.507 27.8619C30.6606 27.7716 30.7873 27.6418 30.874 27.486V27.486Z" fill="#212121"/>
</svg>
