<svg width="31" height="24" viewBox="0 0 31 24" fill="none" xmlns="http://www.w3.org/2000/svg">
<path d="M24.1614 4.03338C22.5668 3.30172 20.8569 2.76267 19.069 2.45393C19.0364 2.44797 19.0039 2.46286 18.9872 2.49265C18.7672 2.88378 18.5236 3.39404 18.3531 3.79511C16.4301 3.50723 14.517 3.50723 12.6335 3.79511C12.4629 3.38513 12.2105 2.88378 11.9896 2.49265C11.9728 2.46386 11.9403 2.44897 11.9077 2.45393C10.1208 2.76168 8.41091 3.30074 6.81535 4.03338C6.80154 4.03934 6.7897 4.04927 6.78184 4.06217C3.53844 8.90773 2.64994 13.6342 3.08581 18.3021C3.08778 18.3249 3.1006 18.3467 3.11835 18.3606C5.25825 19.9321 7.33111 20.8862 9.36548 21.5185C9.39804 21.5285 9.43253 21.5165 9.45325 21.4897C9.93448 20.8326 10.3635 20.1396 10.7313 19.4109C10.753 19.3683 10.7322 19.3176 10.6879 19.3007C10.0075 19.0426 9.35956 18.7279 8.73632 18.3706C8.68703 18.3418 8.68308 18.2713 8.72843 18.2375C8.85958 18.1392 8.99077 18.037 9.116 17.9337C9.13866 17.9149 9.17023 17.9109 9.19687 17.9228C13.2913 19.7922 17.7239 19.7922 21.77 17.9228C21.7966 17.9099 21.8282 17.9139 21.8518 17.9327C21.9771 18.036 22.1083 18.1392 22.2404 18.2375C22.2857 18.2713 22.2828 18.3418 22.2335 18.3706C21.6103 18.7349 20.9624 19.0426 20.2809 19.2998C20.2366 19.3166 20.2169 19.3683 20.2386 19.4109C20.6143 20.1386 21.0432 20.8315 21.5156 21.4887C21.5353 21.5165 21.5708 21.5285 21.6034 21.5185C23.6476 20.8862 25.7204 19.9321 27.8603 18.3606C27.8791 18.3467 27.8909 18.3259 27.8929 18.3031C28.4145 12.9065 27.0192 8.21878 24.1939 4.06316C24.187 4.04927 24.1752 4.03934 24.1614 4.03338ZM11.3427 15.4598C10.11 15.4598 9.09429 14.3281 9.09429 12.9383C9.09429 11.5484 10.0903 10.4167 11.3427 10.4167C12.6049 10.4167 13.6108 11.5584 13.591 12.9383C13.591 14.3281 12.595 15.4598 11.3427 15.4598ZM19.6557 15.4598C18.4231 15.4598 17.4074 14.3281 17.4074 12.9383C17.4074 11.5484 18.4033 10.4167 19.6557 10.4167C20.918 10.4167 21.9238 11.5584 21.9041 12.9383C21.9041 14.3281 20.918 15.4598 19.6557 15.4598Z" fill="black"/>
</svg>
