<svg width="31" height="24" viewBox="0 0 31 24" fill="none" xmlns="http://www.w3.org/2000/svg">
<path d="M24.1614 4.03314C22.5668 3.30148 20.8569 2.76243 19.069 2.45369C19.0364 2.44773 19.0039 2.46262 18.9872 2.4924C18.7672 2.88354 18.5236 3.3938 18.3531 3.79487C16.4301 3.50698 14.517 3.50698 12.6335 3.79487C12.4629 3.38489 12.2105 2.88354 11.9896 2.4924C11.9728 2.46361 11.9403 2.44872 11.9077 2.45369C10.1208 2.76144 8.41091 3.30049 6.81535 4.03314C6.80154 4.03909 6.7897 4.04903 6.78184 4.06193C3.53844 8.90749 2.64994 13.634 3.08581 18.3018C3.08778 18.3247 3.1006 18.3465 3.11835 18.3604C5.25825 19.9319 7.33111 20.8859 9.36548 21.5183C9.39804 21.5282 9.43253 21.5163 9.45325 21.4895C9.93448 20.8323 10.3635 20.1394 10.7313 19.4107C10.753 19.368 10.7322 19.3174 10.6879 19.3005C10.0075 19.0424 9.35956 18.7277 8.73632 18.3703C8.68703 18.3415 8.68308 18.271 8.72843 18.2373C8.85958 18.139 8.99077 18.0367 9.116 17.9335C9.13866 17.9146 9.17023 17.9107 9.19687 17.9226C13.2913 19.7919 17.7239 19.7919 21.77 17.9226C21.7966 17.9097 21.8282 17.9136 21.8518 17.9325C21.9771 18.0357 22.1083 18.139 22.2404 18.2373C22.2857 18.271 22.2828 18.3415 22.2335 18.3703C21.6103 18.7346 20.9624 19.0424 20.2809 19.2995C20.2366 19.3164 20.2169 19.368 20.2386 19.4107C20.6143 20.1384 21.0432 20.8313 21.5156 21.4885C21.5353 21.5163 21.5708 21.5282 21.6034 21.5183C23.6476 20.8859 25.7204 19.9319 27.8603 18.3604C27.8791 18.3465 27.8909 18.3256 27.8929 18.3028C28.4145 12.9062 27.0192 8.21854 24.1939 4.06291C24.187 4.04903 24.1752 4.03909 24.1614 4.03314ZM11.3427 15.4596C10.11 15.4596 9.09429 14.3279 9.09429 12.938C9.09429 11.5482 10.0903 10.4165 11.3427 10.4165C12.6049 10.4165 13.6108 11.5581 13.591 12.938C13.591 14.3279 12.595 15.4596 11.3427 15.4596ZM19.6557 15.4596C18.4231 15.4596 17.4074 14.3279 17.4074 12.938C17.4074 11.5482 18.4033 10.4165 19.6557 10.4165C20.918 10.4165 21.9238 11.5581 21.9041 12.938C21.9041 14.3279 20.918 15.4596 19.6557 15.4596Z" fill="white"/>
</svg>
