<svg width="24" height="24" viewBox="0 0 24 24" fill="none" xmlns="http://www.w3.org/2000/svg">
<g clip-path="url(#clip0_56_31)">
<path d="M6.00003 10.231C6.26524 10.231 6.5196 10.1257 6.70713 9.93812C6.89467 9.75058 7.00003 9.49623 7.00003 9.23101V7.98101C7.00003 7.91471 7.02637 7.85112 7.07325 7.80423C7.12013 7.75735 7.18372 7.73101 7.25003 7.73101H17.358C17.7559 7.73101 18.1374 7.57298 18.4187 7.29167C18.7 7.01037 18.858 6.62884 18.858 6.23101C18.858 5.83319 18.7 5.45166 18.4187 5.17035C18.1374 4.88905 17.7559 4.73101 17.358 4.73101H7.25003C7.18372 4.73101 7.12013 4.70467 7.07325 4.65779C7.02637 4.6109 7.00003 4.54732 7.00003 4.48101V3.23101C6.99999 3.05401 6.95298 2.8802 6.8638 2.72731C6.77461 2.57443 6.64644 2.44796 6.49239 2.36081C6.33833 2.27366 6.16391 2.22897 5.98692 2.23129C5.80994 2.23361 5.63675 2.28286 5.48503 2.37401L0.485028 5.37401C0.336948 5.46286 0.214399 5.58853 0.129315 5.73881C0.0442311 5.88908 -0.000488281 6.05882 -0.000488281 6.23151C-0.000488281 6.4042 0.0442311 6.57394 0.129315 6.72422C0.214399 6.87449 0.336948 7.00017 0.485028 7.08901L5.48503 10.089C5.64064 10.1822 5.81866 10.2313 6.00003 10.231Z" fill="#212121"/>
<path d="M23.515 16.911L18.515 13.911C18.3632 13.8198 18.1899 13.7705 18.0128 13.7683C17.8358 13.766 17.6613 13.8108 17.5072 13.898C17.3531 13.9853 17.2249 14.1119 17.1358 14.2649C17.0467 14.418 16.9998 14.5919 17 14.769V16.019C17 16.0853 16.9736 16.1489 16.9267 16.1958C16.8799 16.2427 16.8163 16.269 16.75 16.269H6.64197C6.24414 16.269 5.86261 16.427 5.58131 16.7083C5.3 16.9896 5.14197 17.3712 5.14197 17.769C5.14197 18.1668 5.3 18.5484 5.58131 18.8297C5.86261 19.111 6.24414 19.269 6.64197 19.269H16.75C16.7828 19.2689 16.8154 19.2752 16.8458 19.2878C16.8762 19.3003 16.9038 19.3187 16.927 19.3419C16.9503 19.3652 16.9687 19.3928 16.9812 19.4232C16.9937 19.4536 17.0001 19.4861 17 19.519V20.769C17 20.946 17.047 21.1198 17.1362 21.2727C17.2254 21.4256 17.3535 21.5521 17.5076 21.6392C17.6617 21.7263 17.8361 21.771 18.0131 21.7687C18.1901 21.7664 18.3632 21.7172 18.515 21.626L23.515 18.626C23.663 18.5372 23.7856 18.4115 23.8707 18.2612C23.9558 18.1109 24.0005 17.9412 24.0005 17.7685C24.0005 17.5958 23.9558 17.4261 23.8707 17.2758C23.7856 17.1255 23.663 16.9998 23.515 16.911Z" fill="#212121"/>
</g>
<defs>
<clipPath id="clip0_56_31">
<rect width="24" height="24" fill="white"/>
</clipPath>
</defs>
</svg>
