<svg width="282" height="192" viewBox="0 0 282 192" fill="none" xmlns="http://www.w3.org/2000/svg">
<rect width="282" height="192" fill="#EEFFF7"/>
<path d="M180.425 97.1086C180.412 97.1014 180.412 97.1006 180.425 97.1086V97.1086ZM180.425 97.104C180.425 97.1065 180.429 97.1099 180.429 97.1133C180.429 97.1124 180.429 97.1116 180.425 97.1108C180.429 97.1116 180.429 97.1124 180.429 97.1133C180.425 97.1095 180.425 97.1065 180.425 97.104ZM201.006 75.6359C200.574 79.1676 200.498 82.8196 199.489 86.1868C197.865 91.593 193.609 94.906 188.522 96.7504C183.159 98.6945 177.576 100.04 172.078 101.609C169.674 102.294 167.262 102.973 164.825 103.496C159.7 104.595 155.164 107.031 150.598 109.459C149.712 109.932 148.551 109.895 147.512 110.086C147.097 110.164 146.673 110.223 146.482 110.253C146.715 106.755 146.957 103.123 147.156 100.132C148.775 100.326 150.674 100.751 152.569 100.738C155.677 100.717 158.886 100.835 161.87 100.124C165.919 99.16 169.874 97.6525 173.723 96.023C175.978 95.067 178.225 93.7122 179.971 92.0169C182.447 89.6125 184.694 86.8846 186.597 84.0019C188.204 81.5627 189.586 78.8161 190.34 76.0098C191.434 71.9381 191.989 67.6044 190.396 63.539C188.992 59.9577 187.763 56.3205 184.495 53.5917C180.976 50.6527 177.263 48.211 173.1 46.4373C170.365 45.2724 167.534 44.319 164.698 43.416C161.582 42.4224 159.886 39.8746 158.012 37.5418C153.841 32.3581 148.627 29.2754 141.84 29.2644C136.999 29.2567 132.645 30.8833 128.601 33.4238C127.957 33.8283 127.41 34.4506 126.952 35.0716C125.706 36.7626 123.972 36.7588 122.098 36.8241C118.168 36.9606 114.247 37.3252 110.19 37.6054C111.882 35.6545 113.522 33.3844 115.549 31.5387C117.643 29.6332 119.906 27.6446 122.463 26.5793C126.647 24.8378 131.051 23.3685 135.507 22.6237C139.36 21.9789 143.413 22.4473 147.376 22.5262C149.67 22.572 152.044 22.4978 154.235 23.0497C157.953 23.9853 161.633 25.1786 165.181 26.6268C168.771 28.0922 172.29 29.8129 175.63 31.7786C177.686 32.9885 179.45 34.7672 181.163 36.4705C183.35 38.6427 185.402 40.9577 187.428 43.2838C189.039 45.1303 190.51 47.0961 192.07 48.9846C192.35 49.3233 192.774 49.5442 193.168 49.8502C193.634 50.9923 194.16 52.2182 194.639 53.462C195.771 56.4053 196.882 59.3575 198.005 62.3041C198.06 62.4499 198.162 62.5797 198.242 62.7149L198.255 62.7259C198.255 62.7285 198.255 62.731 198.255 62.7335C198.255 62.7365 198.259 62.7391 198.259 62.7416L198.255 62.7357C198.501 64.1566 198.976 65.5823 198.929 66.991C198.844 69.6909 198.624 72.4095 198.166 75.0696C197.31 80.0167 194.995 84.4017 191.413 87.7896C188.691 90.3599 185.398 92.4252 182.099 94.2476C178.725 96.1103 175.113 97.605 171.472 98.8823C168.398 99.9591 165.113 100.409 161.968 101.289C158.021 102.392 154.112 103.634 150.204 104.869C149.852 104.981 149.615 105.471 149.322 105.785C149.661 105.885 150.03 106.128 150.331 106.061C153.294 105.393 156.24 104.653 159.199 103.975C161.773 103.386 164.367 102.895 166.932 102.273C168.106 101.988 169.234 101.49 170.382 101.092C173.134 100.138 175.893 99.2108 178.632 98.2155C179.285 97.9781 179.857 97.5207 180.463 97.1608C180.463 97.1625 180.467 97.1637 180.467 97.165C182.523 96.154 184.622 95.2213 186.618 94.1018C187.767 93.457 188.746 92.5095 189.798 91.6986L189.781 91.685C189.942 91.6867 190.171 91.7562 190.243 91.6782C191.926 89.908 193.694 88.2068 195.237 86.3195C197.899 83.0591 199.272 79.1934 200.091 75.1039C200.26 74.2565 200.578 73.4396 201.023 71.9733C201.023 73.6359 201.125 74.6495 201.006 75.6359V75.6359ZM179.611 103.476C179.628 103.442 179.645 103.408 179.662 103.374C179.692 103.403 179.721 103.43 179.738 103.462C179.742 103.472 179.717 103.514 179.709 103.513C179.675 103.506 179.641 103.489 179.611 103.476ZM179.747 104.024C179.747 105.907 179.747 107.79 179.747 109.673C179.645 109.668 179.543 109.663 179.442 109.658C179.442 107.777 179.442 105.896 179.442 104.014C179.543 104.017 179.645 104.021 179.747 104.024ZM178.577 101.695C178.628 101.637 178.674 101.58 178.725 101.522C178.772 101.567 178.844 101.606 178.857 101.659C178.869 101.701 178.806 101.762 178.763 101.83C178.687 101.773 178.632 101.734 178.577 101.695ZM178.339 102.219C178.356 102.219 178.377 102.219 178.399 102.219C178.403 102.256 178.403 102.292 178.403 102.327C178.382 102.327 178.344 102.33 178.344 102.326C178.339 102.291 178.339 102.255 178.339 102.219V102.219ZM189.107 99.7619C188.899 99.3257 188.827 99.1748 188.653 98.8132C187.983 100.121 187.356 101.243 186.822 102.408C185.826 104.604 184.885 106.828 183.901 109.03C183.842 109.161 183.604 109.212 183.452 109.301C183.392 109.058 183.282 108.816 183.282 108.575C183.295 106.821 183.367 105.066 183.316 103.314C183.308 102.993 182.829 102.686 182.566 102.372C182.456 102.692 182.252 103.011 182.252 103.331C182.239 105.928 182.396 108.534 182.231 111.12C182.138 112.55 181.519 113.945 181.154 115.361C181.129 115.458 181.116 115.558 181.112 115.628C180.565 116.724 180.238 117.38 179.798 118.267C180.281 117.975 180.586 117.792 180.879 117.615C180.116 118.622 179.272 119.583 178.611 120.654C178.098 121.492 177.818 122.474 177.432 123.392C177.445 123.427 177.462 123.463 177.479 123.498C177.47 123.486 177.458 123.474 177.449 123.46C177.445 123.442 177.441 123.422 177.436 123.403C177.068 123.704 176.576 123.94 176.364 124.328C175.923 125.136 175.626 126.025 175.266 126.881C175.27 126.881 175.27 126.881 175.274 126.882C174.537 128.287 173.795 129.692 173.057 131.098C173.002 131.062 172.947 131.027 172.892 130.991C171.531 133.351 170.17 135.711 168.725 138.218C168.763 138.231 168.161 138.068 168.17 138.014C168.797 134.479 166.075 130.746 168.763 127.34C168.763 129.112 168.763 130.886 168.763 132.66C168.937 132.672 169.111 132.685 169.28 132.698C169.535 130.81 169.674 128.898 170.073 127.041C170.408 125.464 171.039 123.949 171.54 122.408C171.404 125.375 171.264 128.341 171.124 131.308C171.353 131.32 171.586 131.332 171.815 131.344C172.036 129.713 172.32 128.088 172.468 126.451C172.756 123.358 172.96 120.258 173.218 117.162C173.235 116.971 173.43 116.794 173.545 116.611C173.693 116.909 173.973 117.209 173.969 117.504C173.901 120.684 173.786 123.863 173.693 127.043C173.689 127.153 173.727 127.264 174.24 127.42C174.554 124.471 174.872 121.522 175.185 118.573C175.253 118.564 175.317 118.556 175.38 118.547C175.465 120.17 175.55 121.793 175.63 123.417C175.77 123.418 175.91 123.42 176.05 123.421C176.355 121.008 176.737 118.602 176.94 116.18C177.152 113.65 177.178 111.105 177.318 108.568C177.326 108.384 177.564 108.212 177.691 108.034C177.831 108.239 178.093 108.448 178.085 108.649C178.026 110.678 177.898 112.705 177.839 114.734C177.797 116.147 177.831 117.562 177.831 118.976C178.051 118.984 178.271 118.993 178.488 119.001C178.831 116.073 179.17 113.143 179.514 110.214C179.556 110.211 179.594 110.207 179.636 110.204C179.636 111.261 179.598 112.321 179.653 113.374C179.679 113.795 179.921 114.204 180.06 114.617C180.213 114.223 180.472 113.838 180.506 113.435C180.76 110.227 180.972 107.016 181.197 103.806C181.201 103.757 181.209 103.7 181.188 103.66C179.692 100.738 182.464 101.031 183.765 100.412C185.27 99.695 186.924 99.291 188.522 98.77C188.725 98.7043 188.963 98.7522 189.183 98.7475C189.166 98.9874 189.149 99.2274 189.107 99.7619V99.7619ZM188.992 101.308C189.005 101.281 189.009 101.256 189.022 101.252C189.031 101.247 189.052 101.264 189.069 101.272C189.047 101.282 189.022 101.293 188.992 101.308V101.308ZM183.931 110.02C183.893 110.013 183.854 109.995 183.816 109.98C183.838 109.945 183.859 109.909 183.88 109.874C183.914 109.904 183.944 109.932 183.965 109.966C183.969 109.976 183.939 110.022 183.931 110.02ZM183.596 111.209C183.579 111.178 183.558 111.147 183.541 111.116C183.562 111.109 183.587 111.092 183.604 111.099C183.621 111.105 183.626 111.135 183.638 111.155C183.626 111.173 183.609 111.191 183.596 111.209ZM181.506 117.12C181.481 117.149 181.442 117.17 181.404 117.198C181.387 117.153 181.375 117.114 181.358 117.076C181.4 117.069 181.442 117.059 181.485 117.06C181.493 117.061 181.514 117.113 181.506 117.12ZM181.336 119.071C181.328 119.052 181.319 119.034 181.315 119.016C181.341 119.025 181.366 119.034 181.4 119.046C181.37 119.057 181.353 119.064 181.336 119.071ZM177.301 125.811C177.271 125.793 177.254 125.743 177.233 125.707C177.267 125.692 177.313 125.656 177.335 125.667C177.369 125.685 177.381 125.733 177.407 125.769C177.369 125.789 177.322 125.823 177.301 125.811ZM175.592 126.883L175.609 126.9H175.605C175.601 126.891 175.592 126.883 175.592 126.883ZM175.647 128.303C175.588 128.267 175.525 128.231 175.465 128.195C175.546 128.019 175.626 127.842 175.711 127.666C175.762 127.689 175.817 127.712 175.872 127.735C175.796 127.924 175.724 128.114 175.647 128.303ZM175.113 127.949V127.949C175.075 128.132 175.041 128.278 175.113 127.949ZM175.067 130.916C175.045 130.928 174.923 130.814 174.931 130.795C174.965 130.715 175.024 130.641 175.096 130.587C175.109 130.575 175.198 130.655 175.296 130.724C175.202 130.808 175.143 130.882 175.067 130.916ZM174.261 132.212C174.227 132.173 174.176 132.143 174.181 132.117C174.181 132.087 174.232 132.042 174.261 132.041C174.287 132.039 174.338 132.089 174.338 132.117C174.338 132.147 174.291 132.178 174.261 132.212ZM172.756 132.092C172.731 132.063 172.701 132.036 172.688 132.003C172.68 131.988 172.705 131.942 172.71 131.942C172.748 131.943 172.782 131.956 172.824 131.966C172.799 132.012 172.778 132.053 172.756 132.092ZM171.205 134.693C171.175 134.69 171.128 134.639 171.133 134.611C171.133 134.582 171.179 134.554 171.209 134.525C171.234 134.554 171.26 134.583 171.298 134.622C171.264 134.648 171.234 134.695 171.205 134.693V134.693ZM169.95 139.474L169.946 139.423L169.988 139.444L169.95 139.474ZM168.517 139.651C168.509 139.655 168.487 139.639 168.475 139.633C168.479 139.617 168.483 139.594 168.496 139.589C168.509 139.584 168.526 139.6 168.543 139.606C168.534 139.622 168.53 139.645 168.517 139.651ZM169.056 125.733C168.933 125.801 168.818 125.896 168.788 125.875C168.708 125.815 168.666 125.707 168.606 125.618C168.682 125.575 168.772 125.488 168.839 125.5C168.907 125.512 168.958 125.623 169.056 125.733V125.733ZM170.166 123.05C170.137 123.174 170.107 123.299 170.073 123.423C170.031 123.413 169.988 123.402 169.942 123.392C169.971 123.268 170.005 123.144 170.035 123.021C170.077 123.031 170.12 123.041 170.166 123.05ZM170.705 118.885C170.675 118.911 170.649 118.937 170.62 118.963C170.599 118.928 170.582 118.894 170.577 118.859C170.577 118.847 170.616 118.816 170.624 118.82C170.654 118.837 170.679 118.863 170.705 118.885V118.885ZM171.747 121.191C171.68 121.588 171.612 121.985 171.544 122.382C171.493 121.983 171.438 121.584 171.387 121.185C171.506 121.187 171.624 121.189 171.747 121.191ZM172.519 117.404C172.519 117.567 172.519 117.73 172.519 117.893C172.46 117.894 172.404 117.896 172.345 117.898C172.345 117.729 172.345 117.561 172.345 117.393C172.404 117.396 172.46 117.4 172.519 117.404V117.404ZM175.758 115.098C175.669 115.092 175.575 115.086 175.486 115.08C175.503 114.771 175.524 114.463 175.546 114.154C175.639 114.16 175.732 114.166 175.825 114.172C175.804 114.481 175.783 114.789 175.758 115.098V115.098ZM175.469 115.87C175.482 115.854 175.491 115.832 175.503 115.826C175.516 115.821 175.537 115.836 175.55 115.842C175.55 115.861 175.55 115.88 175.55 115.899C175.525 115.889 175.499 115.879 175.469 115.87ZM175.173 113.671C175.219 113.281 175.262 112.891 175.308 112.501C175.474 112.52 175.639 112.54 175.804 112.559C175.758 112.949 175.711 113.339 175.669 113.729C175.503 113.71 175.338 113.69 175.173 113.671V113.671ZM175.592 116.663C175.656 116.695 175.724 116.726 175.792 116.758C175.698 116.947 175.605 117.135 175.516 117.324C175.461 117.304 175.41 117.283 175.359 117.263C175.435 117.063 175.516 116.863 175.592 116.663V116.663ZM177.038 107.417C177.046 107.402 177.076 107.402 177.097 107.395C177.11 107.414 177.118 107.433 177.131 107.453C177.097 107.462 177.063 107.472 177.029 107.482C177.029 107.46 177.025 107.431 177.038 107.417V107.417ZM166.338 117.105C166.325 116.938 166.3 116.064 166.181 115.204C165.813 112.501 165.541 109.775 164.977 107.112C164.392 104.351 166.406 104.801 167.869 104.443C168.305 104.337 168.695 104.046 169.043 103.87C169.289 103.96 169.585 104.19 169.785 104.124C171.154 103.678 172.485 103.121 173.858 102.696C174.829 102.395 175.842 102.178 176.851 102.07C177.161 102.037 177.61 102.425 177.822 102.739C177.924 102.885 177.606 103.316 177.466 103.614C176.805 105.051 176.152 106.493 175.469 107.919C175.224 108.433 174.867 108.893 174.609 109.403C173.502 111.616 172.277 113.785 171.353 116.073C170.382 118.466 169.763 120.999 168.869 123.427C168.543 124.317 167.864 125.08 167.347 125.898C167.05 123.303 166.732 120.541 166.338 117.105V117.105ZM163.693 158.925C164.443 157.029 165.054 155.502 165.66 153.974C165.935 153.81 166.296 153.593 166.656 153.377C167.411 154.55 166.012 157.469 163.693 158.925V158.925ZM163.417 159.709V159.663L163.456 159.682L163.417 159.709ZM164.63 153.512L164.613 153.549L164.587 153.514L164.63 153.512ZM166.046 144.942C165.02 146.66 163.905 148.323 162.769 149.971C162.612 150.197 162.18 150.233 161.879 150.357C161.84 149.83 161.743 149.297 161.785 148.777C161.836 148.175 162.006 147.583 162.129 146.988C162.302 147.145 162.481 147.302 162.65 147.455C163.714 146.081 164.765 144.729 166.075 143.041C166.075 143.956 166.266 144.571 166.046 144.942V144.942ZM162.044 151.524C161.925 151.407 161.811 151.291 161.692 151.174C161.794 151.067 161.891 150.96 161.989 150.853C162.048 150.917 162.167 150.985 162.163 151.045C162.15 151.207 162.086 151.364 162.044 151.524V151.524ZM164.414 138.831C164.782 138.273 165.189 137.742 165.592 137.179C166.567 139.584 165.016 141.144 163.981 142.913C163.235 144.184 162.735 145.598 162.129 146.95C161.997 146.573 161.819 146.206 161.739 145.818C161.132 142.92 163.01 140.963 164.414 138.831V138.831ZM160.789 140.754C161.353 139.005 161.734 137.821 162.116 136.637C163.167 135.201 164.219 133.766 165.253 132.358C165.821 133.653 163.282 138.975 160.789 140.754ZM165.588 127.893C164.24 130.259 162.888 132.624 161.497 135.067C160.323 133.229 162.892 129.901 164.905 127.544C165.134 127.66 165.359 127.777 165.588 127.893ZM164.753 111.044L164.799 111.028L164.791 111.079L164.753 111.044ZM160.344 130.145C160.874 128.951 161.302 127.697 161.955 126.579C162.697 125.316 163.642 124.175 164.503 122.98C164.706 123.052 164.914 123.124 165.122 123.197C164.774 124.014 164.541 124.906 164.057 125.634C163.015 127.214 161.84 128.71 160.344 130.145V130.145ZM159.793 124.411C160.382 123.616 160.993 122.741 161.658 121.91C162.188 121.243 162.765 120.606 163.371 120.006C163.6 119.779 163.964 119.692 164.269 119.542C164.295 120.087 164.558 120.803 164.308 121.148C163.303 122.529 162.154 123.803 161.035 125.097C160.844 125.317 160.539 125.439 160.285 125.607C160.166 125.312 160.043 125.016 159.793 124.411V124.411ZM159.64 121.21C159.89 120.6 160.047 119.928 160.403 119.393C161.289 118.079 162.26 116.823 163.218 115.562C163.32 115.427 163.574 115.407 163.757 115.335C163.782 115.612 163.943 115.984 163.82 116.152C162.798 117.563 161.722 118.932 160.675 120.324C160.433 120.646 160.238 121.004 160.022 121.346C159.895 121.3 159.767 121.255 159.64 121.21ZM163.693 111.108C162.345 113.418 160.997 115.727 159.534 118.224C159.06 116.684 161.561 112.018 163.693 111.108ZM158.547 108.823C158.606 108.236 158.542 107.591 158.78 107.086C158.886 106.853 159.577 106.891 160.005 106.807C159.691 107.511 159.377 108.214 159.064 108.919C158.89 108.887 158.72 108.855 158.547 108.823V108.823ZM160.204 109.803C160.836 108.677 161.768 107.721 162.565 106.691C162.718 106.753 162.866 106.816 163.015 106.878C161.819 109.052 160.624 111.225 159.386 113.482C157.911 111.688 159.623 110.849 160.204 109.803ZM151.361 111.073C151.285 111.103 151.204 111.114 151.124 111.131C151.111 111.083 151.103 111.034 151.09 110.986C151.175 110.963 151.255 110.94 151.336 110.917C151.344 110.971 151.374 111.068 151.361 111.073ZM149.894 111.819C150.051 111.562 150.208 111.306 150.365 111.049C150.462 111.114 150.556 111.179 150.653 111.245C150.488 111.491 150.323 111.737 150.161 111.983C150.072 111.928 149.983 111.873 149.894 111.819ZM147.838 112.806C148.038 112.311 148.237 111.816 148.436 111.32C148.682 111.509 148.928 111.697 149.174 111.886C148.847 112.273 148.525 112.659 148.203 113.046C148.08 112.966 147.961 112.886 147.838 112.806ZM148.25 116.5C148.139 116.507 147.915 116.231 147.906 116.079C147.872 115.337 147.889 114.592 147.889 114.527C149.064 114.086 149.911 113.767 150.746 113.452C151.103 114.591 149.767 116.414 148.25 116.5V116.5ZM148.038 120.164C147.932 119.437 147.83 118.711 147.775 118.328C148.618 117.945 149.153 117.556 149.716 117.514C149.954 117.497 150.246 118.21 150.513 118.592C149.687 119.115 148.86 119.639 148.038 120.164V120.164ZM149.297 122.958C148.856 123.329 148.233 123.483 147.69 123.732C147.546 123.626 147.406 123.52 147.266 123.414C147.69 122.936 148.11 122.447 148.555 121.985C148.657 121.876 148.856 121.842 149.013 121.797C149.513 121.66 150.013 121.534 150.513 121.404C150.115 121.93 149.788 122.543 149.297 122.958V122.958ZM147.465 127.209C147.448 126.885 147.402 126.217 147.385 125.908C148.466 125.309 149.348 124.823 150.267 124.314C150.327 124.672 150.42 125.223 150.484 125.635C149.479 126.16 148.521 126.658 147.465 127.209V127.209ZM149.653 130.855C149.687 130.83 150.06 131.094 150.043 131.18C149.971 131.571 149.933 132.12 149.67 132.296C148.839 132.852 147.91 133.267 147.02 133.736C146.906 133.58 146.787 133.424 146.673 133.268C147.66 132.458 148.648 131.644 149.653 130.855ZM149.941 129.264C149.318 129.916 148.449 130.334 147.682 130.847C147.461 130.189 147.245 129.531 147.126 129.181C147.978 128.703 148.5 128.393 149.038 128.11C149.365 127.938 149.716 127.806 150.055 127.656C150.03 128.206 150.225 128.966 149.941 129.264ZM147.164 137.099C146.986 136.891 146.808 136.683 146.63 136.475C147.703 135.551 148.771 134.627 149.844 133.702C150.039 133.925 150.234 134.148 150.429 134.371C149.339 135.281 148.25 136.19 147.164 137.099V137.099ZM149.983 148.855C149.958 148.803 149.924 148.753 149.911 148.698C149.911 148.684 149.979 148.655 150.017 148.632C150.034 148.673 150.056 148.713 150.072 148.754C150.043 148.79 150.013 148.822 149.983 148.855V148.855ZM146.906 140.159C147.109 139.511 147.283 138.854 147.525 138.221C147.643 137.908 147.885 137.64 148.067 137.352C148.207 137.518 148.347 137.685 148.487 137.851C148.69 137.085 148.894 136.318 149.093 135.552C150.284 138.575 148.491 139.292 146.906 140.159V140.159ZM146.079 143.025C147.088 141.897 148.097 140.769 149.242 139.487C149.941 141.409 149.784 141.593 146.079 143.025ZM145.176 153.244C146.601 152.334 148.029 151.424 149.454 150.514C149.203 151.55 147.465 153.551 145.176 153.244ZM148.597 153.21C148.538 153.027 148.474 152.845 148.415 152.663C148.487 152.639 148.559 152.616 148.631 152.593C148.686 152.776 148.746 152.959 148.805 153.141C148.733 153.164 148.665 153.187 148.597 153.21V153.21ZM148.466 170.682C148.3 170.593 148.139 170.499 147.974 170.41C148.016 170.33 148.059 170.249 148.105 170.169C148.267 170.262 148.428 170.355 148.589 170.449C148.546 170.525 148.504 170.605 148.466 170.682ZM147.317 169.664C147.279 169.643 147.262 169.562 147.253 169.503C147.253 169.49 147.325 169.448 147.364 169.448C147.427 169.457 147.491 169.486 147.669 169.541C147.423 169.63 147.351 169.686 147.317 169.664V169.664ZM146.478 164.424C145.876 164.958 145.257 165.473 144.629 165.978C144.354 166.203 144.04 166.384 143.743 166.585C143.866 166.006 143.815 165.286 144.146 164.874C144.968 163.856 145.96 162.972 146.897 162.049C147.092 161.854 147.355 161.723 147.584 161.563C147.749 161.846 147.915 162.13 148.275 162.751C147.69 163.301 147.097 163.877 146.478 164.424V164.424ZM147.385 161.157C147.381 161.157 147.372 161.158 147.364 161.158C147.376 161.157 147.381 161.157 147.385 161.157ZM145.401 160.095C146.117 159.305 146.889 158.558 147.673 157.832C147.771 157.739 148.097 157.884 148.313 157.918C147.872 158.737 147.559 159.669 146.957 160.346C146.261 161.128 145.316 161.686 144.481 162.341C144.32 162.195 144.159 162.05 143.998 161.905C144.464 161.299 144.888 160.658 145.401 160.095V160.095ZM148.538 156.933C148.538 156.975 148.542 157.016 148.542 157.058C148.5 157.066 148.445 157.088 148.419 157.07C148.39 157.051 148.389 156.994 148.373 156.954C148.428 156.947 148.483 156.94 148.538 156.933ZM146.49 155.547C146.749 155.26 147.046 155.008 147.325 154.739C147.61 154.466 147.889 154.192 148.169 153.919C148.279 154.177 148.546 154.52 148.462 154.677C148.254 155.071 147.927 155.428 147.576 155.714C146.702 156.428 145.787 157.094 144.892 157.779C144.82 157.723 144.748 157.668 144.676 157.613C145.278 156.923 145.876 156.227 146.49 155.547ZM145.108 131.633L145.07 131.659V131.613L145.108 131.633ZM145.274 134.541L145.278 134.59L145.236 134.569L145.274 134.541ZM148.962 144.147C148.966 144.011 148.983 143.876 148.996 143.741C149.068 143.758 149.144 143.776 149.22 143.793C149.199 143.919 149.182 144.046 149.144 144.167C149.144 144.178 148.962 144.153 148.962 144.147ZM149.153 144.506C149.229 144.566 149.305 144.627 149.381 144.688C149.182 144.91 148.979 145.133 148.78 145.356C148.724 145.312 148.669 145.267 148.61 145.224C148.792 144.984 148.97 144.745 149.153 144.506V144.506ZM145.765 149.514C146.74 148.52 147.783 147.588 148.907 146.535C149.191 148.649 147.915 150.358 146.062 150.581C145.948 150.595 145.715 150.486 145.71 150.422C145.689 150.115 145.6 149.68 145.765 149.514ZM148.152 143.933C148.161 143.918 148.165 143.902 148.173 143.886C148.182 143.91 148.19 143.933 148.199 143.957C148.182 143.949 148.169 143.941 148.152 143.933V143.933ZM148.5 144.816C147.8 145.475 147.097 146.134 146.397 146.794C146.266 146.643 146.13 146.493 145.999 146.342C146.707 145.694 147.414 145.046 148.122 144.398C148.245 144.537 148.373 144.676 148.5 144.816ZM145.901 111.667C145.901 111.445 145.901 111.223 145.901 111.001C145.973 110.997 146.041 110.994 146.113 110.991C146.126 111.216 146.139 111.44 146.151 111.665C146.066 111.666 145.986 111.666 145.901 111.667ZM150.123 70.5374C150.145 70.5349 150.174 70.5413 150.195 70.5332C154.18 69.0325 152.569 72.7168 153.421 74.0695C155.333 77.1035 154.057 79.7377 152.222 82.2698C151.942 82.653 151.798 83.1342 151.437 83.901C152.027 83.667 152.391 83.6323 152.578 83.433C154.371 81.5165 155.956 79.419 155.728 76.6436C155.609 75.2243 154.888 73.8639 154.545 72.4514C154.324 71.5332 154.46 70.5031 154.121 69.6506C153.926 69.169 152.993 68.5628 152.557 68.6701C150.089 69.2742 147.673 70.0779 145.193 70.8274C145.329 70.4946 145.418 69.501 145.956 69.0902C147.47 67.9333 149.093 66.8485 150.827 66.0787C151.645 65.715 152.841 66.3186 153.811 66.163C155.456 65.9002 157.211 65.6658 158.636 64.8972C160.31 63.996 161.688 62.5474 163.172 61.3075C163.367 61.1434 163.417 60.8085 163.854 59.8657C162.489 60.8009 161.747 61.4452 160.891 61.867C158.814 62.8938 156.715 63.8955 154.562 64.7366C153.888 64.999 152.981 64.8213 152.217 64.6624C149.945 64.188 148.322 65.4038 146.749 66.6938C145.604 67.6319 145.045 67.9723 144.697 66.0015C144.057 62.3262 143.035 58.7173 142.319 55.0521C142.226 54.5863 142.934 53.5646 143.421 53.4527C145.774 52.9131 149.445 48.7905 149.937 46.3996C150.166 45.2923 151.039 44.0171 151.993 43.4232C154.023 42.1625 154.502 41.2401 153.438 38.4532C153.146 39.3286 153.095 40.1078 152.684 40.5826C151.802 41.6072 150.602 42.3711 149.793 43.4389C149.076 44.3859 148.483 45.5517 148.241 46.7065C147.72 49.1911 145.99 50.5701 144.01 51.6608C141.789 52.8851 141.921 52.6473 140.924 50.0122C139.797 47.035 138.19 44.2333 136.702 41.4041C136.38 40.7992 135.663 40.4028 135.46 40.2125C137.338 39.332 139.216 38.0946 141.263 37.6537C142.222 37.4473 143.514 38.7699 144.646 39.4197C145.028 39.6406 145.38 39.9238 145.744 40.1781C145.659 39.555 145.799 38.7381 145.456 38.34C143.201 35.7278 140.437 35.7435 137.809 37.872C136.838 38.6597 135.273 38.7279 133.968 39.073C133.841 39.1065 133.586 38.7966 133.459 38.6033C133.412 38.5401 133.535 38.2819 133.641 38.2137C135.528 37.0322 137.359 35.7448 139.33 34.7333C141.111 33.8223 142.896 33.5722 144.439 35.5256C144.816 36.0055 146.096 35.7745 147.313 35.9093C146.249 34.9283 145.659 34.4408 145.134 33.894C143.637 32.3378 141.077 32.1012 138.762 33.5633C136.622 34.9152 134.621 36.4905 132.526 37.9225C132.315 38.0696 131.874 37.961 131.56 37.8801C130.322 37.5604 129.093 37.2137 127.863 36.8529C127.651 36.7898 127.469 36.6121 127.27 36.4875C127.389 36.3086 127.486 36.1081 127.63 35.9538C130.119 33.2941 133.26 32.1559 136.774 31.2805C140.093 30.4547 143.379 30.0927 146.423 31.158C149.381 32.1924 152.226 33.9618 154.659 35.964C157.533 38.3239 159.78 41.4321 162.574 43.9056C163.727 44.9243 165.592 45.1274 167.131 45.7153C169.293 46.5433 171.493 47.2851 173.596 48.2457C175.842 49.2741 178.026 50.4624 180.175 51.6867C180.98 52.1428 181.671 52.8406 182.307 53.5277C183.986 55.3421 186.033 56.9801 187.165 59.0997C190.947 66.1953 191.006 73.6185 187.318 80.7111C183.952 87.1856 179.03 92.2276 172.222 95.4541C168.314 97.3049 164.32 98.3723 160.132 98.8501C157.122 99.1935 154.066 99.1532 151.03 99.2914C150.551 99.313 150.068 99.4427 149.598 99.4025C147.504 99.2248 146.537 98.2295 146.609 95.9556C146.69 93.5138 146.266 91.0602 146.181 88.6074C146.028 84.2113 145.982 79.8115 145.854 75.4142C145.77 72.5121 147.177 70.8715 150.123 70.5374V70.5374ZM106.282 38.836C106.023 38.8254 105.65 38.6965 105.557 38.5092C105.472 38.3392 105.646 37.9856 105.786 37.7627C107.147 35.5871 108.461 33.3793 109.91 31.2623C112.831 26.99 116.731 23.7271 121.522 21.934C126.358 20.1226 131.373 18.5706 136.443 17.649C140.428 16.9245 144.625 17.3599 148.724 17.2298C152.616 17.106 156.257 18.0085 159.852 19.4672C163.964 21.1353 168.352 22.1968 172.315 24.146C178.093 26.9896 183.342 30.7981 187.348 35.9118C190.078 39.4007 192.477 43.2019 194.614 47.0876C196.161 49.8931 197.034 53.0669 198.204 56.0793C198.259 56.2285 198.242 56.4083 198.323 57.2387C197.399 54.7376 196.987 52.6871 195.945 51.0347C194.567 48.8528 192.689 46.9905 191.044 44.9765C189.696 43.3278 188.505 41.5313 187.017 40.023C183.719 36.6778 180.446 33.2738 176.83 30.2949C175.016 28.8006 172.464 28.2173 170.276 27.1626C168.309 26.2172 166.448 25.0277 164.431 24.2431C162.243 23.3935 159.946 22.7738 157.652 22.2625C155.007 21.6728 152.323 21.059 149.632 20.9081C145.35 20.6673 141.043 20.6461 136.761 20.8335C134.087 20.9501 131.386 21.4291 128.792 22.101C126.575 22.675 124.523 23.8615 122.331 24.5885C118.609 25.8255 115.718 28.188 113.255 31.1012C111.733 32.9041 110.076 34.7558 109.186 36.8809C108.512 38.4922 107.719 38.8954 106.282 38.836V38.836ZM200.773 65.2783C200.79 65.3165 200.807 65.3542 200.828 65.3924C200.798 65.4186 200.756 65.4648 200.739 65.4581C200.705 65.447 200.68 65.4008 200.654 65.3695C200.693 65.3389 200.735 65.3088 200.773 65.2783V65.2783ZM168.394 144.929L168.36 144.965L168.348 144.921L168.394 144.929ZM145.087 107.098C145.1 107.071 145.108 107.043 145.121 107.005C145.134 107.037 145.138 107.057 145.147 107.077C145.13 107.084 145.108 107.091 145.087 107.098ZM137.173 133.803C136.889 135.523 136.583 137.239 136.282 138.956C135.473 139.364 134.667 139.79 133.845 140.176C133.646 140.269 133.251 140.329 133.179 140.231C133.039 140.043 132.942 139.662 133.044 139.485C134.176 137.511 135.35 135.558 136.524 133.611C136.6 133.485 136.821 133.446 136.978 133.366C137.045 133.513 137.194 133.672 137.173 133.803ZM133.307 143.132C134.379 141.633 135.329 140.298 136.282 138.964C136.859 141.358 135.138 142.159 133.307 143.132ZM133.014 147.111C132.823 146.92 132.628 146.729 132.437 146.538C133.391 145.501 134.345 144.464 135.367 143.353C135.659 143.823 135.82 144.083 136.193 144.679C135.155 145.474 134.086 146.293 133.014 147.111V147.111ZM135.379 146.726C135.371 146.715 135.358 146.701 135.358 146.701L135.379 146.72C135.379 146.721 135.379 146.724 135.379 146.726V146.726ZM135.29 147.648C135.553 149.459 134.633 150.635 132.789 150.782C132.654 150.793 132.382 150.658 132.387 150.614C132.442 150.092 132.357 149.403 132.658 149.087C133.476 148.223 134.455 147.515 135.375 146.747C135.341 147.05 135.248 147.359 135.29 147.648ZM134.985 151.262C134.061 152.581 133.107 153.878 132.158 155.179C131.831 154.905 131.501 154.63 131.174 154.356C132.31 153.168 133.451 151.981 134.591 150.794C134.727 150.955 135.015 151.219 134.985 151.262V151.262ZM130.538 162.013C130.454 162.085 130.275 162.047 130.14 162.06C130.186 161.534 130.199 161.002 130.292 160.485C130.331 160.279 130.504 160.042 130.682 159.927C131.505 159.402 132.344 158.903 133.192 158.421C133.527 158.231 133.9 158.11 134.256 157.958C134.349 158.135 134.447 158.313 134.54 158.49C133.209 159.667 131.878 160.847 130.538 162.013V162.013ZM133.476 164.783C133.739 164.03 133.777 163.926 133.811 163.821C133.858 163.851 133.904 163.881 133.951 163.911C133.904 164 133.853 164.089 133.476 164.783V164.783ZM133.34 165.914C133.349 165.932 133.353 165.948 133.362 165.959C133.357 165.949 133.349 165.935 133.34 165.914ZM129.182 165.236C130.725 163.837 132.268 162.44 133.87 160.986C133.858 163.986 130.682 163.787 129.644 165.693C129.491 165.541 129.339 165.388 129.182 165.236V165.236ZM131.857 170.419C131.026 170.3 129.983 171.572 129.059 172.246C128.559 172.615 128.109 173.051 127.639 173.454C127.499 173.323 127.359 173.191 127.219 173.06C129.059 171.22 130.899 169.384 132.743 167.545C132.62 167.373 132.497 167.202 132.374 167.03C131.119 167.628 129.864 168.226 128.461 168.897C128.652 168.2 128.817 167.609 128.983 167.019C129.139 167.201 129.296 167.382 129.453 167.564C130.695 166.656 131.941 165.748 133.251 164.79C133.277 165.127 133.302 165.499 133.323 165.872C133.328 165.878 133.332 165.884 133.332 165.89C133.332 165.88 133.332 165.871 133.332 165.861C133.332 165.871 133.332 165.881 133.332 165.891C133.336 165.899 133.34 165.905 133.34 165.913C133.34 165.906 133.336 165.899 133.332 165.891C133.298 166.838 133.311 167.793 133.201 168.735C133.111 169.499 133.747 170.686 131.857 170.419V170.419ZM133.989 156.366C133.137 157.236 131.954 157.782 130.907 158.461C130.767 158.287 130.627 158.112 130.487 157.937C131.174 157.28 131.865 156.628 132.539 155.961C132.768 155.738 132.938 155.46 133.158 155.233C133.518 154.864 133.9 154.517 134.273 154.161C134.197 154.915 134.404 155.944 133.989 156.366V156.366ZM202.821 67.676C202.481 63.096 201.201 58.5088 199.773 54.1085C198.569 50.3996 196.674 46.8909 194.851 43.416C193.732 41.2892 192.21 39.3693 190.807 37.4023C189.586 35.6897 188.407 33.913 186.966 32.3975C185.317 30.6641 183.549 28.9519 181.561 27.6509C177.814 25.199 173.969 22.8458 169.967 20.8415C167.165 19.4375 164.036 18.6829 161.056 17.6329C159.496 17.0827 157.97 16.1937 156.368 16.0292C152.34 15.6159 148.267 15.2429 144.231 15.3857C139.907 15.5388 135.545 15.9911 131.318 16.8881C127.52 17.6944 123.802 19.0721 120.216 20.594C117.672 21.6733 115.328 23.296 113.06 24.912C112.136 25.5733 111.682 26.8811 110.958 27.851C109.542 29.7455 108.016 31.5633 106.672 33.5057C106.027 34.4336 105.883 35.7317 105.175 36.5846C103.692 38.3807 101.983 39.9946 100.368 41.6818C98.9183 43.1956 97.5999 44.8785 95.9805 46.1825C93.2335 48.3937 91.4615 51.2661 90.8892 54.5613C90.1643 58.7271 89.8973 63.0078 89.8379 67.2449C89.7489 73.4735 88.9816 79.5449 86.8027 85.3911C85.8574 87.9189 84.7043 90.3683 83.7547 92.8928C83.1527 94.4791 82.784 96.1489 82.2541 97.764C81.4486 100.239 80.5202 102.677 79.7868 105.174C79.3545 106.644 78.8373 108.242 79.0111 109.704C79.3375 112.425 83.7547 114.759 86.6331 114.139C88.2652 113.787 89.9439 113.625 91.6099 113.496C92.0169 113.465 92.8181 113.893 92.8266 114.124C92.8774 116.356 93.0216 118.622 92.7079 120.818C92.178 124.56 91.3852 128.269 90.601 131.97C90.2534 133.617 91.4276 135.068 93.4158 135.171C96.0695 135.308 97.0827 136.072 96.8199 137.92C96.4214 140.698 95.8364 143.452 95.5057 146.237C95.4464 146.727 96.1543 147.447 96.6715 147.839C97.9221 148.781 99.533 149.361 100.525 150.499C103.289 153.669 106.112 156.724 110.775 155.906C112.619 155.583 114.294 154.306 116.045 153.463C115.951 153.305 115.858 153.146 115.761 152.988C115.345 153.01 114.925 153.032 114.438 153.058C114.315 153.21 114.12 153.628 113.794 153.832C110.915 155.633 107.113 155.117 104.264 152.606C102.233 150.812 100.364 148.726 98.0746 147.354C95.7134 145.938 97.3879 144.496 97.5151 143.073C97.5405 142.823 98.3969 142.651 98.8632 142.437C98.9437 142.4 99.037 142.35 99.0793 142.278C100.203 140.387 101.369 138.519 102.394 136.577C102.615 136.156 102.335 135.47 102.288 134.906C101.678 135.125 101.059 135.335 100.453 135.574C100.347 135.617 100.283 135.783 100.203 135.892C100.084 135.706 99.9654 135.519 99.8467 135.332C99.4524 135.598 99.0497 135.852 98.6639 136.136C98.4943 136.263 98.3926 136.506 98.2103 136.584C98.1255 136.622 97.9305 136.39 97.7737 136.3C96.68 135.67 95.5863 135.036 94.4798 134.421C93.632 133.95 92.0126 133.448 92.0423 133.057C92.2246 130.6 92.8859 128.183 93.1742 125.727C93.6278 121.927 94.005 118.113 94.2043 114.293C94.2721 113.034 93.4243 112.261 91.8685 112.49C89.6472 112.816 87.3962 113.042 85.1494 113.087C82.4321 113.141 80.2871 111.232 80.8509 109.116C82.2371 103.885 83.8013 98.6966 85.4589 93.5443C86.5017 90.3098 87.8625 87.1809 89.0325 83.9862C89.6811 82.2147 90.6095 80.433 90.7409 78.6076C91.1393 73.0784 91.0164 67.509 91.4827 61.9879C91.7625 58.6733 92.4705 55.3175 93.5515 52.1759C94.2382 50.1932 95.8999 48.5166 97.248 46.801C99.3634 44.1104 101.932 41.8547 105.273 40.9641C108.948 39.984 112.708 39.0213 116.477 38.7864C121.034 38.5015 125.667 38.7169 130.212 39.2324C133.485 39.6033 135.905 42.0909 137.194 44.9023C139.021 48.9015 140.212 53.2047 141.531 57.4231C142.069 59.1434 142.311 60.9709 142.548 62.7679C143.074 66.8188 143.625 70.8719 143.947 74.942C144.18 77.9594 144.002 81.0069 144.125 84.0363C144.248 87.1703 144.489 90.3001 144.731 93.4282C144.795 94.2561 145.032 95.0709 145.074 95.3015C145.074 96.5669 145.041 97.2858 145.083 98.0006C145.163 99.3155 145.537 100.665 145.346 101.935C144.701 106.259 144.277 110.685 142.989 114.829C141.471 119.709 139.36 124.445 137.096 129.043C134.951 133.404 132.387 137.572 129.805 141.699C128.258 144.175 126.537 146.621 124.506 148.696C122.386 150.858 119.906 152.738 116.702 153.213C116.388 153.259 116.138 153.714 115.862 153.98C116.278 154.157 116.769 154.574 117.096 154.469C118.495 154.02 120.021 153.661 121.165 152.817C123.141 151.365 124.968 149.673 126.668 147.902C128.266 146.236 129.623 144.339 131.089 142.543C131.242 142.584 131.395 142.625 131.551 142.665C131.145 145.763 130.738 148.86 130.301 152.17C129.08 153.155 125.68 174.421 126.698 175.455C127.274 175.137 127.825 174.84 128.372 174.539L128.359 174.544C128.821 174.332 129.601 173.84 129.699 173.95C130.716 175.099 131.039 174.082 131.479 173.45C131.827 172.958 132.149 172.449 132.692 171.631C132.772 173.132 132.798 174.276 132.908 175.417C132.942 175.773 133.201 176.104 133.357 176.447C133.578 176.125 133.938 175.824 133.989 175.476C134.396 172.636 134.786 169.787 135.104 166.935C136.261 156.631 137.402 146.324 138.525 136.016C138.775 133.719 138.737 131.371 139.203 129.125C139.491 127.726 140.555 126.504 141.145 125.146C142.251 122.595 143.277 120.01 144.303 117.425C144.799 116.171 145.214 114.884 145.74 113.398C145.859 113.783 145.952 113.942 145.943 114.095C145.795 116.808 145.642 119.52 145.469 122.231C145.193 126.557 144.901 130.881 144.608 135.205C144.392 138.466 144.205 141.73 143.938 144.987C143.705 147.861 143.37 150.726 143.112 153.598C142.993 154.908 142.997 156.229 142.862 157.536C142.633 159.759 142.294 161.971 142.086 164.195C141.933 165.8 141.887 167.417 141.848 169.028C141.81 170.58 141.84 172.132 141.84 173.683C142.082 173.692 142.323 173.704 142.565 173.717C142.662 173.488 142.76 173.259 142.857 173.03C142.624 172.534 142.866 172.327 142.9 172.089C143.061 171.008 143.133 169.914 143.311 168.838C143.345 168.627 143.676 168.399 143.917 168.3C144.337 168.128 144.892 168.171 145.219 167.909C145.965 167.308 146.605 166.578 147.304 165.884C148.046 167.297 146.639 170.016 145.117 170.343C144.752 170.423 144.43 170.724 144.087 170.923C144.371 171.284 144.587 171.822 144.952 171.949C145.24 172.051 145.732 171.703 146.079 171.47C146.49 171.195 146.842 170.826 147.22 170.499C147.376 170.945 147.186 171.127 147.194 171.301C147.219 171.788 147.33 172.276 147.41 172.763C147.775 172.517 148.377 172.335 148.457 172.017C148.657 171.267 148.576 170.449 148.669 169.664C148.716 169.279 148.818 168.84 149.047 168.548C149.411 168.086 149.907 167.727 150.344 167.324C150.145 167.313 149.945 167.302 149.75 167.29C149.75 166.015 149.75 164.74 149.75 163.395C149.678 163.361 149.521 163.287 149.5 163.276C149.5 163.277 149.504 163.278 149.509 163.28C149.712 162.223 149.945 161.303 150.064 160.369C150.488 157.065 150.963 153.763 151.247 150.446C151.577 146.49 151.734 142.519 151.963 138.554C152.213 134.243 152.502 129.935 152.692 125.622C152.892 121.025 153.065 116.425 153.103 111.825C153.12 109.838 154.193 109.032 155.85 108.592C156.041 108.542 156.418 108.533 156.427 108.571C156.703 109.754 157.037 110.935 157.165 112.138C157.283 113.214 157.076 114.323 157.177 115.402C157.394 117.74 157.771 120.063 157.987 122.4C158.174 124.404 158.152 126.428 158.373 128.427C158.614 130.646 159.119 132.839 159.318 135.06C159.428 136.269 159.004 137.519 159.064 138.741C159.191 141.486 159.45 144.226 159.683 146.966C159.946 150.07 160.225 153.173 160.522 156.274C160.547 156.502 160.764 156.712 160.891 156.93C161.056 156.769 161.285 156.638 161.383 156.442C162.197 154.782 162.904 153.064 163.812 151.456C164.511 150.212 165.448 149.101 166.279 147.93C166.665 148.904 166.83 149.823 166.47 150.436C165.444 152.191 164.1 153.764 163.082 155.524C162.476 156.569 162.252 157.835 161.853 159.002C161.853 159.002 161.84 158.985 161.84 158.986C162.057 159.485 162.269 159.984 162.637 160.843C160.67 164.572 160.607 165.359 161.675 165.544C163.371 162.963 165.041 160.423 166.601 158.05C166.936 159.913 167.33 162.139 167.729 164.364C168.131 163.38 167.966 162.459 168.047 161.56C168.233 159.48 168.543 157.412 168.793 155.338C168.958 153.957 169.111 152.574 169.272 151.192L169.28 151.198C168.958 147.699 168.636 144.2 168.309 140.701C168.428 140.69 168.547 140.68 168.665 140.669C168.75 140.923 168.835 141.176 169.03 141.767C171.616 137.51 174.053 133.501 176.508 129.461C176.495 129.329 176.402 129.127 176.47 129.01C177.835 126.512 179.327 124.074 180.573 121.517C181.693 119.222 182.557 116.805 183.511 114.431C183.99 113.229 184.414 112.003 184.863 110.788L184.851 110.789C185.711 108.802 186.576 106.814 187.369 104.995C187.852 104.304 188.276 103.823 188.556 103.269C189.84 100.732 190.251 97.7301 193.274 96.2243C198.319 93.7126 201.489 89.4344 202.214 83.954C202.927 78.586 203.219 73.0653 202.821 67.676" fill="#4C494A"/>
<path d="M198.255 62.7357C198.255 62.7348 198.255 62.7344 198.255 62.7335C198.251 62.7276 198.246 62.7212 198.242 62.7149L198.225 62.695L198.255 62.7357" fill="#4C494A"/>
<path d="M98.7276 89.2407C98.6385 89.0962 98.5537 88.9512 98.4647 88.8066C98.8081 88.6328 99.1515 88.4586 99.4991 88.2848C99.55 88.3675 99.6051 88.4506 99.656 88.5332C99.3465 88.7689 99.037 89.005 98.7276 89.2407V89.2407ZM97.388 83.1147C97.3795 83.1181 97.3159 83.0231 97.3244 83.0096C97.3583 82.9617 97.4177 82.9295 97.4643 82.8913C97.4897 82.929 97.5151 82.9668 97.5533 83.027C97.494 83.0596 97.4473 83.0969 97.388 83.1147ZM111.907 81.7569C112.157 81.3605 112.407 80.9625 112.653 80.5653C112.191 80.3291 111.729 79.8887 111.263 79.8883C106.782 79.884 102.293 79.8904 97.8161 80.0722C97.1718 80.0985 96.1247 81.0006 96.023 81.62C95.722 83.4839 95.722 85.4106 95.7644 87.309C95.7813 88.2462 96.1586 89.1759 96.4511 90.4502C97.8797 90.2085 99.7746 90.3391 101.165 89.5689C105.048 87.4234 109.364 85.771 111.907 81.7569" fill="#4C494A"/>
<path d="M118.368 147.555C118.376 147.55 118.38 147.549 118.389 147.548L118.351 147.574L118.368 147.555ZM125.557 138.364C125.574 138.313 125.646 138.279 125.718 138.217C125.756 138.298 125.816 138.379 125.799 138.402C125.756 138.463 125.676 138.497 125.612 138.543C125.591 138.483 125.544 138.416 125.557 138.364V138.364ZM128.33 132.981L128.355 133.018L128.313 133.027L128.33 132.981ZM128.974 132.351L128.991 132.39L128.949 132.383L128.974 132.351ZM117.291 149.577C117.363 149.644 117.435 149.713 117.507 149.781C118.355 148.774 119.203 147.768 120.051 146.762C120.042 146.759 120.034 146.757 120.025 146.755C121.153 145.423 122.28 144.091 123.408 142.76C123.412 142.544 123.336 142.277 123.433 142.124C124.341 140.748 125.277 139.393 126.202 138.029C127.227 136.515 128.258 135.004 129.266 133.48C129.457 133.191 129.678 132.832 129.652 132.522C129.635 132.281 129.283 132.032 129.033 131.858C128.953 131.8 128.643 131.919 128.559 132.041C126.278 135.298 124.031 138.575 121.75 141.83C120.084 144.21 118.338 146.535 116.719 148.946C116.066 149.914 115.663 151.048 115.15 152.106C115.252 152.167 115.353 152.229 115.459 152.29C116.07 151.386 116.68 150.481 117.291 149.577" fill="#4C494A"/>
<path d="M123.412 142.756C123.412 142.757 123.408 142.759 123.408 142.76C123.408 142.763 123.408 142.766 123.408 142.768L123.412 142.756Z" fill="#4C494A"/>
<path d="M134.248 116.347C134.235 116.234 134.218 116.121 134.205 116.009C134.248 116.002 134.29 115.996 134.332 115.99C134.349 116.103 134.366 116.215 134.383 116.328C134.337 116.335 134.294 116.341 134.248 116.347ZM130.5 122.141C130.47 121.99 130.441 121.84 130.407 121.689C130.483 121.667 130.559 121.646 130.636 121.625C130.687 121.768 130.737 121.91 130.788 122.053C130.695 122.082 130.598 122.112 130.5 122.141V122.141ZM135.841 113.33C135.375 113.592 134.841 113.779 134.468 114.137C134.065 114.524 133.802 115.062 133.506 115.551C131.992 118.069 130.462 120.578 129.025 123.138C128.876 123.404 129.309 123.997 129.483 124.468C130.169 124.264 130.564 124.267 130.665 124.097C131.462 122.74 132.162 121.323 132.98 119.977C133.959 118.359 135.1 116.833 136.007 115.177C136.253 114.728 135.914 113.955 135.841 113.33" fill="#4C494A"/>
<path d="M134.226 62.8039C132.069 65.4466 129.953 68.1279 127.935 70.8753C127.312 71.7189 127.016 72.7982 126.566 73.7698C126.698 73.8521 126.833 73.9343 126.965 74.0166C127.418 73.7376 127.991 73.5545 128.304 73.1624C129.428 71.7562 130.42 70.2433 131.543 68.838C132.883 67.1618 134.332 65.5742 135.668 63.8968C135.858 63.6573 135.689 63.1295 135.685 62.7348C135.184 62.7476 134.43 62.5517 134.226 62.8039" fill="#4C494A"/>
<path d="M133.256 58.0874C131.721 59.8238 130.28 61.6454 128.877 63.4894C127.596 65.1702 126.401 66.9168 125.214 68.5667C125.405 68.9779 125.468 69.1173 125.532 69.2568C125.676 69.1894 125.85 69.1538 125.956 69.0495C126.566 68.462 127.202 67.8914 127.757 67.2534C130.123 64.5445 132.476 61.8268 134.782 59.0709C134.994 58.8187 134.854 58.2752 134.879 57.867C134.324 57.9284 133.531 57.7775 133.256 58.0874" fill="#4C494A"/>
<path d="M135.935 67.7934C135.426 67.6756 134.57 67.5166 134.379 67.7735C132.522 70.3225 130.772 72.9508 128.991 75.5567L129.004 75.5422C128.347 76.4363 127.66 77.3108 127.058 78.2379C126.897 78.4821 126.982 78.8887 126.956 79.2206C127.219 79.1163 127.541 79.0756 127.728 78.8946C128.071 78.5572 128.326 78.129 128.635 77.7551C131.077 74.8271 133.535 71.9152 135.939 68.9558C136.138 68.7091 136.032 67.8155 135.935 67.7934" fill="#4C494A"/>
<path d="M135.409 90.3972C134.065 92.1611 132.895 94.0594 131.742 95.9568C130.899 97.3397 130.169 98.7928 129.449 100.244C129.368 100.405 129.661 100.768 129.822 101.009C129.843 101.037 130.216 100.931 130.28 100.809C130.801 99.851 131.289 98.8734 131.789 97.9018C131.963 98.0264 132.141 98.151 132.319 98.2757C134.209 95.6325 136.104 92.989 137.995 90.3459C137.838 90.0741 137.677 89.8024 137.516 89.5307C136.795 89.8066 135.803 89.8757 135.409 90.3972" fill="#4C494A"/>
<path d="M132.204 90.2403L132.209 90.1983L132.242 90.2293L132.204 90.2403ZM136.863 84.5276C136.863 84.3131 136.236 83.8574 136.109 83.9235C135.634 84.1694 135.146 84.5178 134.841 84.9519C133.34 87.0915 131.861 89.2483 130.441 91.4447C129.661 92.6562 129.016 93.9564 128.308 95.2167C128.512 95.3638 128.715 95.5109 128.919 95.658C130.538 93.7338 132.162 91.8097 133.794 89.8749C133.786 89.8698 133.781 89.866 133.777 89.8618C134.688 88.5277 135.6 87.2572 136.439 85.9405C136.698 85.5344 136.859 85.0028 136.863 84.5276" fill="#4C494A"/>
<path d="M137.041 79.1689C137.041 79.1693 137.045 79.1697 137.045 79.1701V79.1664C137.041 79.1672 137.041 79.1681 137.041 79.1689Z" fill="#4C494A"/>
<path d="M135.265 78.6958C133.328 80.9269 131.492 83.2529 129.678 85.5895C129.195 86.2127 128.872 86.9592 128.482 87.632C128.203 88.3488 127.948 88.9902 127.698 89.6312C127.863 89.6952 128.033 89.7596 128.198 89.8236C128.359 89.3696 128.521 88.9156 128.686 88.4569C128.83 88.6163 128.961 88.7621 129.063 88.8753C129.902 87.8889 130.721 86.9609 131.505 86.0037C133.357 83.7328 135.197 81.4479 137.041 79.1689C136.427 78.9929 135.443 78.4923 135.265 78.6958Z" fill="#4C494A"/>
<path d="M135.189 109.599V109.547L135.231 109.568L135.189 109.599ZM130.979 116.772C130.966 116.786 130.903 116.758 130.865 116.749C130.911 116.671 130.958 116.592 131.005 116.514C131.034 116.533 131.068 116.553 131.098 116.572C131.06 116.64 131.026 116.712 130.979 116.772V116.772ZM137.609 106.733C137.614 106.708 137.41 106.662 137.308 106.624C135.541 105.982 135.35 107.651 134.756 108.501C133.179 110.75 131.738 113.093 130.318 115.445C130.102 115.803 130.157 116.465 130.343 116.867C130.428 117.056 131.166 117.071 131.535 116.949C131.708 116.892 131.696 116.318 131.793 115.985C131.836 115.831 131.92 115.681 132.014 115.551C132.683 114.636 133.357 113.725 134.12 112.692C134.193 112.712 134.371 112.728 134.417 112.657C134.964 111.822 135.447 110.949 135.748 110.434C136.46 109.42 136.995 108.777 137.389 108.058C137.592 107.686 137.558 107.181 137.609 106.733" fill="#4C494A"/>
<path d="M132.196 54.4392C130.996 55.7754 129.864 57.1756 128.775 58.6063C127.223 60.6419 125.731 62.72 124.214 64.7802C124.392 64.932 124.57 65.0842 124.743 65.2359C126.138 63.8675 127.579 62.547 128.911 61.1184C130.479 59.4278 131.98 57.666 133.438 55.8763C133.65 55.6147 133.633 54.8779 133.417 54.6325C133.192 54.3824 132.361 54.2573 132.196 54.4392" fill="#4C494A"/>
<path d="M127.842 131.765C128.177 131.499 128.652 131.368 128.906 131.051C129.559 130.231 130.153 129.358 130.716 128.473C131.988 126.487 133.247 124.495 134.443 122.464C134.557 122.275 134.171 121.795 134.019 121.45C133.794 121.684 133.574 121.918 133.213 122.296C133.209 122.296 132.9 122.261 132.815 122.383C130.941 125.116 129.05 127.844 127.27 130.639C126.969 131.11 127.16 131.892 127.122 132.531C127.359 132.273 127.571 131.981 127.842 131.765" fill="#4C494A"/>
<path d="M87.5911 105.755C88.6679 104.765 89.7107 103.729 90.8341 102.795C92.8519 101.119 94.9461 99.5355 96.9428 97.8352C97.3201 97.5156 97.3836 96.8322 97.5914 96.3163C96.9809 96.4541 96.239 96.421 95.7854 96.7652C94.8825 97.4511 94.1788 98.3982 93.3055 99.1371C92.3856 99.9188 91.3131 100.526 90.4017 101.32C89.77 101.871 89.2953 102.606 88.7612 103.266C88.1846 103.973 87.6208 104.689 87.0527 105.401C87.2308 105.519 87.4131 105.637 87.5911 105.755" fill="#4C494A"/>
<path d="M137.376 102.775C137.368 102.757 137.351 102.734 137.359 102.722C137.363 102.709 137.389 102.705 137.41 102.697C137.414 102.715 137.423 102.733 137.427 102.751C137.41 102.759 137.393 102.767 137.376 102.775V102.775ZM131.886 109.618C131.848 109.599 131.814 109.581 131.785 109.554C131.78 109.547 131.797 109.497 131.806 109.496C131.844 109.493 131.886 109.501 131.925 109.504C131.912 109.542 131.899 109.58 131.886 109.618ZM138.61 101.175C138.139 100.977 137.342 100.611 137.181 100.788C136.003 102.06 134.875 103.394 133.892 104.818C133.196 105.825 132.743 107 132.2 108.11C131.738 109.057 131.301 110.018 130.852 110.973C131.064 111.067 131.276 111.162 131.488 111.257C132.052 110.668 132.692 110.134 133.167 109.48C134.943 107.035 136.677 104.556 138.398 102.071C138.567 101.825 138.661 101.197 138.61 101.175Z" fill="#4C494A"/>
<path d="M132.077 50.1076C129.792 52.7872 127.541 55.4964 125.328 58.2379C124.76 58.9454 124.358 59.7886 123.879 60.5695C124.01 60.6381 124.146 60.7068 124.281 60.7755C125.366 59.6076 126.426 58.4168 127.537 57.2765C129.487 55.276 131.492 53.3243 133.404 51.2903C133.574 51.111 133.37 50.3853 133.124 50.0851C132.984 49.9092 132.238 49.9168 132.077 50.1076" fill="#4C494A"/>
<path d="M129.538 47.7807C127.253 50.7384 124.998 53.7194 122.751 56.7084C122.636 56.8644 122.679 57.1425 122.649 57.3634C122.891 57.3044 123.205 57.3227 123.357 57.1739C125.07 55.5172 126.799 53.8788 128.431 52.1441C129.487 51.019 130.386 49.7443 131.835 47.9376C131.229 47.704 130.844 47.4645 130.437 47.4276C130.144 47.4009 129.712 47.556 129.538 47.7807" fill="#4C494A"/>
<path d="M127.622 45.3317C125.422 48.0897 123.247 50.866 121.115 53.6727C120.801 54.0839 120.729 54.6791 120.547 55.1895C120.652 55.2404 120.754 55.2912 120.86 55.3421C121.996 54.1399 123.149 52.9542 124.26 51.7312C125.884 49.9422 127.507 48.1486 129.046 46.2876C129.19 46.1138 128.775 45.4106 128.512 45.0248C128.461 44.9506 127.795 45.113 127.622 45.3317Z" fill="#4C494A"/>
<path d="M128.292 83.6687C128.728 83.1104 129.093 82.4902 129.559 81.9595C130.738 80.6157 131.992 79.3346 133.158 77.9764C134.065 76.9183 134.879 75.7822 135.757 74.6579C135.583 74.3447 135.494 73.9865 135.358 73.9691C134.875 73.9068 134.163 73.7575 133.93 74.0077C133.273 74.7067 132.811 75.5851 132.281 76.3998C130.767 78.7242 129.258 81.0489 127.77 83.386C127.69 83.5144 127.791 83.7603 127.808 83.9511C127.969 83.8591 128.181 83.8052 128.292 83.6687" fill="#4C494A"/>
<path d="M132.874 102.628C132.934 102.686 132.997 102.744 133.09 102.834C132.989 102.881 132.921 102.938 132.887 102.923C132.832 102.9 132.777 102.828 132.772 102.772C132.768 102.728 132.836 102.676 132.874 102.628V102.628ZM136.104 97.4809C136.113 97.4783 136.147 97.5173 136.143 97.5275C136.13 97.5618 136.104 97.5919 136.087 97.6237C136.054 97.5936 136.028 97.5635 136.007 97.533C136.037 97.5148 136.071 97.4932 136.104 97.4809ZM135.29 100.457C135.82 99.7035 136.113 99.3618 136.325 98.9786C136.723 98.2664 137.079 97.5322 137.423 96.7924C137.436 96.7683 137.016 96.444 136.931 96.4923C136.291 96.8556 135.507 97.1485 135.091 97.7047C133.658 99.6132 132.302 101.583 131.039 103.608C130.504 104.467 130.284 105.522 129.924 106.488C130.059 106.554 130.195 106.62 130.326 106.686C132.073 104.493 133.819 102.3 135.29 100.457Z" fill="#4C494A"/>
<path d="M123.518 45.4368C122.2 47.0465 120.971 48.7375 119.792 50.4577C119.008 51.6074 118.363 52.8541 117.651 54.0576C117.778 54.1153 117.901 54.1725 118.024 54.2302C118.139 54.0212 118.219 53.7796 118.376 53.6079C120.551 51.2271 122.755 48.8744 124.887 46.4585C125.15 46.1622 125.044 45.5424 125.112 45.0723C124.565 45.1829 123.794 45.1041 123.518 45.4368" fill="#4C494A"/>
<path d="M87.8837 100.693C87.8922 100.682 87.9049 100.67 87.9134 100.658C87.9006 100.665 87.8837 100.672 87.8667 100.679L87.8837 100.693Z" fill="#4C494A"/>
<path d="M90.0795 99.2423L90.0753 99.1969L90.1177 99.216L90.0795 99.2423ZM90.4738 99.5165C92.1652 98.16 93.7337 96.65 95.3107 95.1565C95.7558 94.736 96.078 94.173 96.3832 93.6351C96.4214 93.5677 96.0059 93.0675 95.8363 93.0878C95.3276 93.1484 94.6791 93.2167 94.3696 93.5478C92.1779 95.8806 90.0584 98.28 87.9133 100.658C88.7824 100.295 89.7658 100.082 90.4738 99.5165" fill="#4C494A"/>
<path d="M91.2283 105.239C91.3046 105.278 91.5081 105.383 91.754 105.509C91.8515 105.223 91.9278 104.999 91.9957 104.807C92.3221 104.779 92.5934 104.84 92.7502 104.731C94.4205 103.551 96.0822 102.354 97.7185 101.126C97.816 101.052 97.7609 100.512 97.6465 100.456C96.6715 99.9828 92.5891 102.186 92.4026 103.253C92.4026 103.26 92.4026 103.266 92.4026 103.273C92.3984 103.247 92.3983 103.215 92.3941 103.173C91.5463 103.872 90.8553 104.416 90.2152 105.013C90.1474 105.077 90.372 105.458 90.4653 105.692C90.6942 105.555 90.9274 105.418 91.2283 105.239" fill="#4C494A"/>
<path d="M116.608 51.1352C116.824 51.0639 117.117 51.0589 117.253 50.9113C118.982 49.0257 120.72 47.1418 122.382 45.1956C122.624 44.912 122.488 44.3063 122.53 43.8497C122.162 43.8217 121.67 43.6335 121.454 43.8001C121.025 44.1269 120.75 44.6522 120.411 45.0952L120.428 45.077C119.156 46.9015 117.88 48.7222 116.629 50.5586C116.536 50.693 116.608 50.9406 116.608 51.1352Z" fill="#4C494A"/>
<path d="M115.604 43.934C115.26 43.7763 114.832 43.4096 114.586 43.5067C114.158 43.6784 113.789 44.093 113.48 44.4745C111.911 46.419 110.368 48.3856 108.817 50.3445C108.91 50.4361 109.003 50.5277 109.101 50.6192C109.576 50.3594 110.148 50.1923 110.517 49.8235C112 48.3453 113.442 46.8213 114.858 45.274C115.193 44.9065 115.358 44.3851 115.604 43.934" fill="#4C494A"/>
<path d="M102.064 139.592C102.064 139.592 102.081 139.608 102.081 139.608L102.064 139.592ZM104.599 134.015C103.382 136.016 102.204 138.042 101.021 140.063C101.288 140.227 101.551 140.391 101.818 140.555C102.428 139.767 103.085 139.011 103.632 138.181C104.344 137.1 104.985 135.971 105.599 134.832C105.68 134.679 105.489 134.269 105.307 134.114C105.146 133.977 104.65 133.926 104.599 134.015" fill="#4C494A"/>
<path d="M100.576 46.826C99.2829 48.7213 98.0281 50.6413 96.7902 52.5743C96.6758 52.7511 96.7775 53.0631 96.7775 53.3658C97.0361 53.2941 97.1294 53.2975 97.1718 53.2518C98.6979 51.5065 100.249 49.7803 101.699 47.9744C101.869 47.7658 101.513 47.0986 101.322 46.6802C101.292 46.6196 100.682 46.6683 100.576 46.826Z" fill="#4C494A"/>
<path d="M118.105 45.6551C118.325 45.3923 118.211 44.8463 118.253 44.4313C117.859 44.5534 117.342 44.5568 117.1 44.8175C115.96 46.0647 114.828 47.3351 113.823 48.6934C113.332 49.3576 113.124 50.2309 112.785 51.0097C112.916 51.094 113.052 51.1784 113.183 51.2623C114.832 49.4005 116.502 47.5564 118.105 45.6551Z" fill="#4C494A"/>
<path d="M106.651 50.7066C107.765 49.4696 108.829 48.1847 109.906 46.9129C110.423 46.3033 110.928 45.684 111.509 44.9837C111.178 44.723 110.983 44.4652 110.737 44.4046C110.504 44.347 110.105 44.4055 109.978 44.5674C108.545 46.4479 107.138 48.3471 105.765 50.2729C105.578 50.5345 105.633 50.9681 105.578 51.3225C105.938 51.1216 106.388 50.9978 106.651 50.7066" fill="#4C494A"/>
<path d="M94.2001 107.303C95.4506 106.389 96.7097 105.491 97.9348 104.542C98.3926 104.186 98.7741 103.724 99.1345 103.266C99.1726 103.222 98.7657 102.655 98.6258 102.679C97.9772 102.787 97.1633 102.831 96.7605 103.241C95.4761 104.543 94.3442 105.998 93.1572 107.394C93.2674 107.522 93.3777 107.65 93.4837 107.777C93.7253 107.62 93.9669 107.471 94.2001 107.303Z" fill="#4C494A"/>
<path d="M105.553 46.0015C105.256 45.9387 104.806 45.8942 104.637 46.0638C104.056 46.6454 103.509 47.2805 103.06 47.9697C102.25 49.2258 101.517 50.5357 100.754 51.8227C100.902 51.9168 101.051 52.0109 101.203 52.1051C101.347 52.0326 101.542 51.9978 101.631 51.8825C102.988 50.1567 104.336 48.4271 105.654 46.6726C105.756 46.5369 105.637 46.0193 105.553 46.0015" fill="#4C494A"/>
<path d="M93.6787 93.3214C93.9585 93.0916 94.1281 92.6274 94.1705 92.2493C94.2001 92.0085 93.9034 91.7304 93.755 91.4688C93.5558 91.7889 93.3523 92.1089 93.1319 92.4616C92.479 92.9886 91.7923 93.5253 91.1267 94.0916C90.9868 94.2112 90.9402 94.438 90.8469 94.6151C91.0716 94.6728 91.3684 94.8513 91.5083 94.7686C92.2586 94.3299 93.0089 93.872 93.6787 93.3214" fill="#4C494A"/>
<path d="M167.559 81.5657C167.423 80.9073 166.652 80.3808 166.169 79.7933C166.152 80.3388 166.037 80.9027 166.135 81.427C166.516 83.4992 164.511 86.6209 161.463 87.7646C162.061 86.757 162.659 85.7493 163.256 84.7421C163.095 84.5988 162.93 84.4559 162.769 84.3126C161.929 85.1762 160.899 85.9329 160.331 86.9465C160.026 87.4869 160.386 88.52 160.666 89.2458C161.124 90.4353 161.192 91.4048 159.844 91.9822C159.17 92.2721 158.386 92.3785 157.796 92.7804C157.423 93.0339 157.317 93.6791 157.093 94.1484C157.877 94.1005 158.674 94.1225 159.445 93.9898C161.048 93.7139 162.616 91.5701 162.574 90.1258C162.557 89.5603 162.96 88.7256 163.43 88.4437C166.622 86.5319 168.119 84.2664 167.559 81.5657Z" fill="#4C494A"/>
<path d="M179.047 79.4185C178.454 80.0523 177.996 80.8153 177.377 81.4177C177.19 81.5996 176.635 81.4872 176.283 81.3914C175.927 81.2952 175.613 81.0514 175.279 80.8725C175.109 81.2892 174.901 81.6954 174.778 82.1256C174.638 82.6259 174.749 83.3906 174.439 83.6183C172.972 84.6992 173.095 85.9409 173.93 87.2419C174.482 88.0948 174.833 88.746 173.774 89.5031C173.392 89.7757 173.295 90.4412 173.066 90.9279C173.307 91.0559 173.553 91.1843 173.795 91.3128C174.418 90.1131 175.253 88.9698 175.592 87.6951C175.842 86.7324 175.452 85.6013 175.351 84.5449C176.673 85.7734 178.322 86.7739 177.067 88.643C176.894 88.9049 177.089 89.4153 177.11 89.8109C177.576 89.6209 178.216 89.5637 178.479 89.2186C179.844 87.4242 179.607 85.9731 177.907 84.1579C177.695 83.9345 177.729 83.227 177.928 82.9273C178.594 81.9154 179.42 81.0073 180.107 80.0065C180.243 79.8072 180.043 79.3744 179.997 79.0497C179.675 79.1667 179.255 79.1947 179.047 79.4185" fill="#4C494A"/>
<path d="M153.421 85.4509C154.146 84.7074 154.82 83.8989 155.431 83.0566C157.61 80.0642 158.674 76.7962 157.461 73.1369C156.885 71.3887 156.843 69.8206 158.411 68.6642C159.903 67.5637 161.629 66.7676 163.066 65.6069C164.227 64.6666 165.113 63.3839 166.122 62.2533C166.029 62.1714 165.931 62.0896 165.838 62.0078C165.635 62.1706 165.44 62.3465 165.223 62.4945C163.146 63.9328 161.137 65.4878 158.962 66.7676C156.605 68.1572 155.473 70.9864 156.228 73.5837C156.635 74.9878 156.851 76.5999 156.588 78.0137C156.109 80.5962 154.96 82.9426 152.735 84.5984C152.502 84.7731 152.489 85.2466 152.374 85.5811C152.73 85.5459 153.226 85.6472 153.421 85.4509" fill="#4C494A"/>
<path d="M151.738 35.3141C151.603 35.9746 151.548 36.6503 151.416 37.3103C151.34 37.6851 151.264 38.1747 151.001 38.3782C149.424 39.6147 147.66 40.647 146.227 42.026C145.367 42.856 144.311 44.38 144.553 45.2558C144.943 46.6552 144.557 47.4013 143.794 48.2979C143.408 48.7455 143.04 49.2207 142.768 49.7388C142.633 49.9973 142.7 50.3873 142.76 50.701C142.773 50.7714 143.175 50.8486 143.353 50.7909C144.795 50.3305 146.766 47.0066 146.185 45.6454C145.579 44.2308 146.456 43.6589 147.241 42.9667C147.694 42.5652 148.288 42.3219 148.762 41.9416C150.407 40.6338 152.667 39.8627 152.891 36.933C152.752 36.5591 152.501 35.8775 152.217 35.2111C152.205 35.1784 151.751 35.2458 151.738 35.3141" fill="#4C494A"/>
<path d="M151.531 93.9102C152.73 93.2018 153.875 92.1526 155.172 91.9038C156.694 91.6108 158.038 91.6876 158.203 89.6468C158.292 88.5527 158.564 87.4107 159.038 86.4276C159.568 85.3284 160.42 84.3847 161.222 83.2452C159.144 83.8095 157.767 85.5603 156.931 87.6489C156.58 88.529 157.169 90.1763 155.232 90.2827C153.214 90.3933 151.518 91.3684 150.526 93.2221C150.34 93.5689 150.539 94.1209 150.56 94.5783C150.882 94.3544 151.192 94.109 151.531 93.9102" fill="#4C494A"/>
<path d="M168.263 64.1341C169.458 63.5898 170.671 63.0514 171.769 62.3448C173.973 60.9301 174.503 57.6338 172.625 56.6278C170.815 55.6587 171.37 54.5197 171.9 53.2415C172.065 52.8359 172.354 52.4793 172.523 52.0745C172.591 51.9113 172.557 51.6366 172.455 51.4937C172.392 51.4026 172.078 51.3895 171.942 51.4619C170.158 52.4107 169.725 55.5396 171.103 57.0602C171.62 57.627 171.972 58.3396 172.421 59.0208C172.354 59.1149 172.298 59.226 172.214 59.2993C170.76 60.552 169.289 61.7873 167.852 63.0612C167.606 63.2812 167.495 63.6602 167.326 63.9654C167.64 64.0298 168.025 64.2422 168.263 64.1341" fill="#4C494A"/>
<path d="M174.562 72.2785L174.554 72.3268L174.516 72.2942L174.562 72.2785ZM174.528 76.0001C174.554 76.2205 174.889 76.4088 175.079 76.6114C175.207 76.4639 175.402 76.3354 175.452 76.165C175.707 75.2544 175.927 74.3333 176.012 74.0034C176.088 68.9495 173.714 67.2644 169.42 68.1229C168.801 68.2466 168.263 68.7731 167.686 69.1131C168.415 69.147 169.195 69.3637 169.865 69.1805C171.913 68.6201 174.032 69.8974 174.219 71.9546C174.342 73.3019 174.388 74.6554 174.528 76.0001" fill="#4C494A"/>
<path d="M163.901 72.2832C164.1 72.518 164.333 72.8593 164.587 72.8868C165.16 72.9487 165.77 72.7334 166.33 72.8393C167.648 73.0903 169.255 73.1077 170.149 73.8957C170.9 74.5549 170.84 76.1658 171.069 77.3685C171.201 78.0569 171.188 78.7721 171.281 80.0116C173.413 77.1926 172.803 72.794 170.251 71.8957C168.458 71.2636 166.241 71.8211 164.214 71.8766C164.1 71.88 163.871 72.2531 163.901 72.2832" fill="#4C494A"/>
<path d="M160.564 49.8812C160.789 48.7485 160.234 47.4543 159.984 46.241C159.882 45.745 159.67 45.2719 159.509 44.7882C159.297 45.3211 158.873 45.8701 158.915 46.383C159.03 47.8782 159.335 49.3585 159.657 51.4336C159.149 52.1992 158.313 53.4162 157.525 54.6592C156.686 55.9695 155.867 57.2904 155.104 58.6427C154.977 58.8611 155.185 59.2659 155.24 59.5847C155.571 59.3358 155.978 59.1455 156.215 58.8271C157.059 57.6957 158.008 56.6003 158.602 55.343C159.433 53.5977 160.196 51.7613 160.564 49.8812" fill="#4C494A"/>
<path d="M175.139 58.3905C177.386 60.3562 177.394 61.4063 175.215 63.3109C175.041 63.4644 174.995 63.7671 174.889 64.0006C175.045 64.0591 175.211 64.1812 175.363 64.1664C177.445 63.9693 178.827 61.4071 177.882 59.5605C177.195 58.2252 176.55 56.8674 175.889 55.5197C176.037 55.4557 176.182 55.3921 176.33 55.3281C176.194 54.6863 176.101 54.0305 175.893 53.4133C175.842 53.2628 175.304 53.0894 175.177 53.1827C174.282 53.8304 174.282 57.6423 175.139 58.3905" fill="#4C494A"/>
<path d="M163.93 47.5276C163.579 47.5204 163.227 47.5128 162.875 47.5055C162.815 48.7506 162.667 49.9999 162.722 51.2398C162.807 53.0428 162.921 54.6253 160.87 55.7007C159.534 56.4002 158.555 57.8072 157.483 58.9598C157.262 59.1959 157.347 59.711 157.288 60.0976C157.601 59.9586 157.974 59.884 158.224 59.669C159.534 58.5448 160.823 57.3968 162.095 56.2332C162.731 55.6524 163.786 55.0653 163.85 54.404C164.066 52.1301 163.93 49.8223 163.93 47.5276" fill="#4C494A"/>
<path d="M170.853 80.8107C170.73 80.7374 170.331 80.8836 170.247 81.0363C169.912 81.6505 169.513 82.2796 169.386 82.9502C168.941 85.3382 167.97 87.2869 165.571 88.2683C165.35 88.3582 165.27 88.7931 165.126 89.0678C165.41 89.1924 165.715 89.4531 165.982 89.4201C168.517 89.1021 171.349 84.8464 171.268 81.3478C171.192 81.2418 171.073 80.9421 170.853 80.8107" fill="#4C494A"/>
<path d="M182.142 67.9448C181.659 68.0402 181.014 68.1449 180.387 68.3072C180.255 68.3412 180.094 68.5874 180.099 68.7337C180.103 68.8961 180.268 69.189 180.374 69.1958C181.485 69.2674 182.625 69.4768 183.698 69.2895C185.652 68.9465 185.694 67.2148 185.894 65.6959C185.953 65.2313 185.843 64.7451 185.813 64.269C185.427 64.6035 185.02 64.9193 184.66 65.2771C183.795 66.1266 184.804 68.5586 182.142 67.9448" fill="#4C494A"/>
<path d="M182.362 74.1366C182.282 74.594 182.087 75.07 182.155 75.5045C182.269 76.2553 182.638 76.9683 182.744 77.7195C182.858 78.5339 182.795 79.3732 182.812 80.2016C183.363 79.5195 184.372 78.8298 184.363 78.1566C184.342 76.7797 183.77 75.4121 183.426 74.0403C183.07 74.0726 182.714 74.1043 182.362 74.1366" fill="#4C494A"/>
<path d="M179.395 65.2211C180.582 64.968 181.82 64.8039 182.896 64.2978C183.303 64.1079 183.575 63.0235 183.443 62.4584C183.265 61.7233 182.625 61.0993 182.01 60.1616C181.896 60.7415 181.692 61.1239 181.786 61.4134C182.477 63.5958 181.082 64.0303 179.446 64.2952C179.399 64.3029 179.336 64.3067 179.31 64.3376C179.14 64.5233 178.984 64.7162 178.827 64.9065C179.018 65.018 179.234 65.2554 179.395 65.2211" fill="#4C494A"/>
</svg>
