<svg width="24" height="24" viewBox="0 0 24 24" fill="none" xmlns="http://www.w3.org/2000/svg">
<g clip-path="url(#clip0_138_39)">
<path d="M11.9997 0.280152C9.14289 0.279303 6.3795 1.29767 4.20642 3.15214C2.03335 5.00661 0.593157 7.5755 0.144818 10.3969C-0.303521 13.2183 0.269408 16.1071 1.76058 18.5438C3.25176 20.9806 5.56335 22.8054 8.27969 23.6902H8.56969C8.71117 23.6989 8.8529 23.6775 8.98549 23.6274C9.11807 23.5772 9.23847 23.4994 9.33871 23.3992C9.43895 23.2989 9.51673 23.1785 9.56689 23.046C9.61706 22.9134 9.63846 22.7716 9.62969 22.6302V22.4202V21.3302C9.61987 21.2646 9.59714 21.2017 9.5628 21.1451C9.52847 21.0884 9.48322 21.0392 9.42969 21.0002C9.3716 20.9532 9.30372 20.9198 9.23104 20.9025C9.15835 20.8852 9.08272 20.8844 9.00969 20.9002C6.32969 21.4802 5.75969 19.8002 5.71969 19.6902C5.3841 18.8013 4.78372 18.0368 3.99969 17.5002C3.95271 17.4595 3.90255 17.4227 3.84969 17.3902C3.96589 17.3276 4.09881 17.3031 4.22969 17.3202C4.48102 17.3551 4.71904 17.4545 4.92056 17.6087C5.12208 17.7629 5.28026 17.9667 5.37969 18.2002C5.76654 18.8737 6.39957 19.371 7.1456 19.5874C7.89162 19.8037 8.69249 19.7223 9.37969 19.3602C9.45343 19.3279 9.5183 19.2784 9.56879 19.2157C9.61928 19.153 9.65389 19.0791 9.66969 19.0002C9.70797 18.5376 9.90595 18.1028 10.2297 17.7702C10.3016 17.7063 10.3535 17.6231 10.3793 17.5306C10.4051 17.438 10.4037 17.3399 10.3752 17.2481C10.3467 17.1563 10.2924 17.0746 10.2187 17.0129C10.145 16.9512 10.0551 16.9121 9.95969 16.9002C7.58969 16.6302 5.16969 15.8002 5.16969 11.7102C5.14971 10.683 5.52568 9.6876 6.21969 8.93015C6.2836 8.85955 6.32603 8.77217 6.34198 8.67828C6.35792 8.58438 6.34672 8.48789 6.30969 8.40015C6.03177 7.62368 6.0353 6.77428 6.31969 6.00015C7.24351 6.16391 8.11062 6.55962 8.83969 7.15015C8.89992 7.19266 8.96897 7.22104 9.04169 7.23316C9.1144 7.24528 9.18892 7.24083 9.25969 7.22015C10.153 6.97783 11.0741 6.85345 11.9997 6.85015C12.9287 6.85093 13.8535 6.97536 14.7497 7.22015C14.819 7.23927 14.8916 7.24291 14.9625 7.23081C15.0333 7.21872 15.1007 7.19118 15.1597 7.15015C15.8899 6.56147 16.7565 6.166 17.6797 6.00015C17.9519 6.77013 17.9519 7.61017 17.6797 8.38015C17.6427 8.46789 17.6315 8.56439 17.6474 8.65828C17.6633 8.75217 17.7058 8.83955 17.7697 8.91015C18.4565 9.66003 18.832 10.6433 18.8197 11.6602C18.8197 15.7502 16.3897 16.5702 14.0097 16.8402C13.9121 16.8503 13.8196 16.889 13.7438 16.9513C13.668 17.0137 13.6123 17.097 13.5835 17.1908C13.5547 17.2846 13.5541 17.3849 13.5819 17.479C13.6097 17.5731 13.6646 17.657 13.7397 17.7202C13.9612 17.9488 14.1305 18.2228 14.2358 18.5232C14.3411 18.8236 14.38 19.1433 14.3497 19.4602V22.6402C14.3447 22.7965 14.3744 22.952 14.4367 23.0955C14.4989 23.239 14.5922 23.3669 14.7097 23.4702C14.8594 23.5822 15.0331 23.6577 15.2172 23.6907C15.4012 23.7237 15.5904 23.7133 15.7697 23.6602C18.4678 22.7575 20.7574 20.9256 22.23 18.4913C23.7026 16.057 24.2624 13.1786 23.8095 10.3698C23.3566 7.56098 21.9204 5.00446 19.7573 3.1564C17.5942 1.30834 14.8448 0.288957 11.9997 0.280152Z" fill="black"/>
</g>
<defs>
<clipPath id="clip0_138_39">
<rect width="24" height="24" fill="white"/>
</clipPath>
</defs>
</svg>
