<svg width="32" height="32" viewBox="0 0 32 32" fill="none" xmlns="http://www.w3.org/2000/svg">
<path d="M16 32C24.8366 32 32 24.8366 32 16C32 7.16344 24.8366 0 16 0C7.16344 0 0 7.16344 0 16C0 24.8366 7.16344 32 16 32Z" fill="url(#paint0_linear_6_2796)"/>
<path fill-rule="evenodd" clip-rule="evenodd" d="M7.24261 15.8311C11.9069 13.7989 15.0172 12.4592 16.5734 11.8119C21.0168 9.96378 21.9401 9.64273 22.5419 9.63213C22.6743 9.6298 22.9702 9.6626 23.1619 9.81815C23.3238 9.9495 23.3683 10.1269 23.3896 10.2515C23.4109 10.376 23.4375 10.6597 23.4164 10.8813C23.1756 13.4113 22.1337 19.5509 21.6036 22.3845C21.3794 23.5835 20.9377 23.9855 20.5102 24.0249C19.581 24.1104 18.8755 23.4108 17.9756 22.8209C16.5674 21.8978 15.7718 21.3232 14.4049 20.4224C12.8252 19.3814 13.8493 18.8093 14.7495 17.8742C14.9851 17.6295 19.079 13.9058 19.1582 13.568C19.1681 13.5258 19.1773 13.3683 19.0838 13.2851C18.9902 13.202 18.8521 13.2304 18.7525 13.253C18.6113 13.2851 16.3616 14.772 12.0036 17.7138C11.3651 18.1523 10.7867 18.3659 10.2685 18.3547C9.69718 18.3424 8.59826 18.0317 7.78133 17.7662C6.77933 17.4405 5.98296 17.2682 6.05231 16.7151C6.08842 16.427 6.48519 16.1323 7.24261 15.8311Z" fill="white"/>
<defs>
<linearGradient id="paint0_linear_6_2796" x1="16" y1="0" x2="16" y2="31.7627" gradientUnits="userSpaceOnUse">
<stop stop-color="#2AABEE"/>
<stop offset="1" stop-color="#229ED9"/>
</linearGradient>
</defs>
</svg>
