<svg width="282" height="192" viewBox="0 0 282 192" fill="none" xmlns="http://www.w3.org/2000/svg">
<rect width="282" height="192" fill="#EEF4FF"/>
<path d="M164.967 51.4208C164.945 51.4244 164.918 51.4271 164.896 51.4306C164.833 51.5395 164.833 51.6287 164.967 51.4208Z" fill="#4C494A"/>
<path d="M174.133 50.6916C174.128 50.683 174.124 50.6741 174.119 50.6656C174.119 50.6799 174.119 50.6938 174.119 50.7081L174.133 50.6916Z" fill="#4C494A"/>
<path d="M140.846 173.012C140.828 173.015 140.806 173.016 140.783 173.018C140.766 173.046 140.779 173.052 140.846 173.012Z" fill="#4C494A"/>
<path d="M105.695 59.0258C105.669 59.0362 105.673 59.0349 105.695 59.0258V59.0258Z" fill="#4C494A"/>
<path d="M151.432 124.376C150.195 122.591 148.936 120.822 147.73 119.015C146.767 117.571 145.884 116.068 144.925 114.621C144.768 114.385 144.373 114.305 144.091 114.153C144.149 114.532 144.1 114.975 144.279 115.28C145.458 117.263 146.682 119.214 147.905 121.196C145.911 120.174 140.353 111.643 139.73 108.76C146.52 111.624 148.12 118.653 151.432 124.376ZM139.143 114.681C136.176 112.112 132.949 110.124 130.861 107.295C128.544 104.156 127.271 100.25 125.545 96.6772C125.774 96.5692 126.007 96.4607 126.236 96.3527C129.579 101.558 132.922 106.764 136.266 111.97C136.459 111.86 136.647 111.751 136.839 111.641C135.786 109.704 134.733 107.766 133.68 105.828C133.769 105.772 133.859 105.717 133.949 105.661C135.477 108.111 137.005 110.561 138.529 113.01C138.722 112.896 138.915 112.783 139.103 112.669C137.727 110.218 136.342 107.77 134.98 105.31C134.823 105.03 134.791 104.683 134.702 104.367C135.002 104.452 135.334 104.483 135.603 104.63C138.892 106.452 138.462 110.483 140.564 113.052C141.496 114.188 141.962 115.7 142.37 117.267C141.312 116 140.25 114.732 139.058 113.307C139.089 113.757 139.103 114.01 139.143 114.681ZM129.776 106.542C129.037 105.718 128.27 104.917 127.562 104.065C126.41 102.673 125.281 101.258 124.174 99.8284C123.972 99.5702 123.918 99.1982 123.797 98.8787C124.196 99.0382 124.743 99.0831 124.963 99.3753C126.697 101.666 128.364 104.005 130.054 106.328C129.96 106.399 129.87 106.47 129.776 106.542ZM124.613 78.179C124.761 78.0907 124.904 78.0024 125.052 77.9141C125.653 78.7997 126.258 79.6853 126.858 80.5709C126.728 80.6592 126.599 80.748 126.469 80.8367C125.85 79.9511 125.232 79.065 124.613 78.179ZM124.411 73.9226C124.582 73.8249 124.752 73.7272 124.922 73.6295C125.353 74.4972 125.783 75.3644 126.218 76.2321C126.137 76.2859 126.056 76.3396 125.976 76.3934C125.456 75.5697 124.931 74.7464 124.411 73.9226ZM126.962 76.9286C126.921 76.9944 126.885 77.0608 126.845 77.1266C126.715 77.0558 126.585 76.985 126.455 76.9146C126.478 76.8627 126.5 76.8111 126.522 76.7596C126.67 76.8161 126.818 76.8721 126.962 76.9286ZM126.231 71.7969C126.383 71.9098 126.607 71.9905 126.67 72.1402C127.213 73.4372 127.728 74.7468 128.248 76.0524C128.069 76.1407 127.889 76.2285 127.71 76.3163C127.105 74.9651 126.491 73.6174 125.913 72.254C125.877 72.1626 126.119 71.9519 126.231 71.7969ZM127.939 78.4161C127.903 78.4882 127.871 78.5599 127.84 78.6321C127.598 78.5236 127.351 78.4147 127.109 78.3063C127.154 78.2153 127.195 78.1247 127.239 78.0338C127.472 78.161 127.706 78.2888 127.939 78.4161ZM128.911 81.6882C128.83 81.7124 128.75 81.7362 128.665 81.7604C128.288 80.8873 127.912 80.0147 127.535 79.1417C127.723 79.0695 127.916 78.9969 128.104 78.9243C128.373 79.8453 128.642 80.7668 128.911 81.6882ZM128.104 77.2629C128.001 77.2607 127.827 77.1213 127.818 77.0298C127.809 76.9263 127.934 76.7686 128.042 76.717C128.1 76.6888 128.239 76.8304 128.396 76.9286C128.27 77.0841 128.185 77.2647 128.104 77.2629ZM125.976 83.3779C126.011 83.3658 126.047 83.3537 126.088 83.3416C126.092 83.368 126.106 83.4007 126.097 83.4182C126.088 83.4344 126.047 83.4339 126.025 83.4411C126.007 83.42 125.989 83.3989 125.976 83.3779ZM125.133 85.4727C126.406 87.0646 127.365 88.2649 128.324 89.4651C128.467 89.3916 128.615 89.3181 128.759 89.2446C128.306 87.0095 127.844 84.7753 127.405 82.538C127.351 82.2713 127.405 81.9849 127.405 81.7075C127.567 81.829 127.773 81.9199 127.885 82.0768C129.866 84.8699 128.683 88.0694 129.005 91.0754C129.22 93.0702 129.27 95.083 129.377 97.0886C129.391 97.3656 129.315 97.6471 129.207 98.5515C128.387 96.3151 127.764 94.6232 127.145 92.9309C126.979 92.9932 126.814 93.055 126.648 93.1173C126.527 92.147 126.406 91.1762 126.24 89.8523C126.993 91.3578 127.504 92.3706 128.01 93.3835C128.329 93.2217 128.647 93.0595 128.965 92.8977C127.768 90.581 126.572 88.264 125.133 85.4727ZM128.194 69.6259C128.898 70.6791 129.606 71.7328 130.39 72.9084C129.937 73.2692 129.66 73.491 129.382 73.7124C128.7 72.6574 127.988 71.6198 127.387 70.5214C127.325 70.4048 127.912 69.9329 128.194 69.6259ZM130.041 67.5123C130.309 67.7901 130.673 68.0241 130.829 68.3549C131.21 69.1665 131.502 70.023 132.035 71.3886C132.075 71.3276 131.735 71.8695 131.376 72.4445C130.731 71.1242 130.099 69.9795 129.628 68.7712C129.507 68.4521 129.888 67.9371 130.041 67.5123ZM132.801 71.0677C132.335 68.6928 132.013 67.039 131.69 65.3857C132.42 66.9709 135.006 68.2276 132.801 71.0677ZM134.052 62.9726C134.267 63.1739 134.554 63.3375 134.679 63.584C135.248 64.6851 135.768 65.8105 136.571 67.4822C136.167 67.6727 135.75 67.9967 135.316 68.0201C135.087 68.0326 134.724 67.5566 134.612 67.2344C134.227 66.1659 133.881 65.0777 133.631 63.9725C133.568 63.6857 133.904 63.3083 134.052 62.9726ZM136.078 59.8708C136.508 60.4355 136.678 60.5959 136.772 60.7936C137.337 62.0171 137.929 63.2317 138.404 64.4906C138.507 64.7694 138.224 65.253 138.009 65.5667C137.911 65.7115 137.4 65.7886 137.328 65.698C137.077 65.3789 136.92 64.9827 136.763 64.5995C136.382 63.6485 135.934 62.7091 135.688 61.7218C135.576 61.2781 135.88 60.7308 136.078 59.8708ZM138.35 57.9884C138.574 58.286 138.847 58.5581 139.009 58.8861C139.533 59.9358 140.178 60.9675 140.447 62.0852C140.573 62.5984 139.936 63.2958 139.605 63.9954C138.964 62.1314 138.435 60.7456 138.041 59.3222C137.933 58.9354 138.233 58.4361 138.35 57.9884ZM139.596 58.4958L139.6 58.5643L139.542 58.5357L139.596 58.4958ZM142.487 58.3062C142.755 59.0824 142.742 60.0276 142.585 60.8438C142.531 61.1181 141.635 61.2274 141.527 61.266C141.276 60.2078 141.039 59.57 140.99 58.9184C140.909 57.7917 140.945 56.6564 140.931 55.5243C141.465 56.4462 142.141 57.3184 142.487 58.3062ZM142.957 53.3363C142.993 53.231 143.423 53.1248 143.464 53.1776C143.679 53.4631 143.862 53.7854 143.997 54.1197C144.436 55.2196 144.996 56.3042 145.203 57.4493C145.292 57.9665 144.651 58.6141 144.284 59.307C143.688 57.5214 143.159 56.0572 142.729 54.5639C142.626 54.2013 142.823 53.732 142.957 53.3363ZM145.288 51.0483C145.942 52.6475 146.619 54.2389 147.219 55.8596C147.269 55.9913 146.78 56.3221 146.538 56.5605C146.404 56.3593 146.215 56.1764 146.135 55.9541C145.709 54.7929 145.297 53.6281 144.925 52.4493C144.804 52.0599 144.822 51.6256 144.777 51.2119C144.947 51.1572 145.117 51.1026 145.288 51.0483ZM143.795 26.2854C141.111 24.3883 141.209 21.2322 144.1 19.5977C145.758 18.6583 147.605 17.5477 149.411 17.4625C153.476 17.2698 155.018 19.7393 154.538 23.7778C154.211 26.5306 153.238 27.8657 150.437 27.7044C150.415 27.703 150.312 28.3901 150.325 28.7536C150.334 29.052 150.46 29.3465 150.536 29.6432C150.312 29.6983 149.971 29.8704 149.886 29.7853C149.702 29.6078 149.671 29.2847 149.545 29.0377C149.147 28.2453 148.73 27.4606 148.282 26.6041C150.581 26.0013 153.014 25.2053 152.669 22.0918C152.548 20.9857 151.62 19.3646 150.733 19.1078C149.738 18.8201 148.017 19.495 147.269 20.3363C146.682 20.9978 146.65 22.1483 146.52 23.2158C148.129 21.7731 149.048 20.948 149.971 20.1238C150.522 20.8378 151.652 22.0631 151.544 22.185C150.639 23.1997 149.577 24.1351 148.398 24.8078C148.093 24.9839 147.394 24.4788 146.395 23.9728C146.18 24.9767 145.946 25.9766 145.718 26.9779C145.073 26.7547 144.333 26.665 143.795 26.2854ZM150.536 33.5572C150.388 33.6011 150.245 33.6454 150.101 33.6894C150.012 33.3286 149.917 32.9678 149.828 32.607C149.944 32.5716 150.056 32.5362 150.168 32.5004C150.289 32.8526 150.415 33.2049 150.536 33.5572ZM150.137 31.9567C150.012 31.5802 149.886 31.2038 149.761 30.8273C149.873 30.7883 149.985 30.7493 150.097 30.7103C150.231 31.0751 150.361 31.4404 150.496 31.8057C150.375 31.8563 150.258 31.9065 150.137 31.9567ZM148.712 31.7618C148.739 31.7645 148.761 31.7671 148.788 31.7698C148.775 31.8088 148.766 31.8478 148.752 31.8872C148.73 31.8702 148.698 31.8572 148.694 31.8362C148.685 31.8156 148.703 31.7868 148.712 31.7618ZM147.071 26.1658C147.188 26.4495 147.304 26.7332 147.421 27.0169C147.273 27.0487 147.13 27.0805 146.986 27.1119C147.013 26.7968 147.04 26.4813 147.071 26.1658ZM150.612 45.8584C150.415 45.4541 150.097 45.0624 150.047 44.6402C149.832 42.7471 149.98 40.7648 149.465 38.9663C148.815 36.6958 147.654 34.5718 146.704 32.387C146.614 32.1803 146.408 31.9885 146.404 31.7873C146.39 30.886 146.426 29.9834 146.444 29.0812C146.946 30.0461 147.399 31.0393 147.959 31.9693C148.716 33.2264 149.693 34.3684 150.303 35.6865C150.729 36.603 150.832 37.7324 150.836 38.7673C150.841 41.131 150.697 43.4947 150.612 45.8584ZM150.334 46.7911C150.312 46.779 150.271 46.7722 150.267 46.7539C150.258 46.7364 150.285 46.7068 150.294 46.6826C150.321 46.6943 150.343 46.7059 150.37 46.718C150.357 46.7422 150.348 46.7664 150.334 46.7911ZM149.424 45.0432C149.42 45.0203 149.411 44.997 149.406 44.9741C149.424 44.9634 149.447 44.9419 149.469 44.9446C149.487 44.9477 149.505 44.9737 149.523 44.9898C149.492 45.0073 149.456 45.0252 149.424 45.0432ZM148.196 39.7121C148.156 39.717 148.066 39.6538 148.071 39.6349C148.08 39.5731 148.129 39.4673 148.156 39.4696C148.228 39.4758 148.291 39.531 148.412 39.5964C148.308 39.6542 148.255 39.7049 148.196 39.7121ZM147.735 38.7032C147.672 38.5042 147.614 38.3052 147.551 38.1058C147.623 38.0847 147.694 38.0632 147.766 38.0417C147.824 38.2416 147.878 38.4415 147.936 38.6413C147.869 38.662 147.802 38.6826 147.735 38.7032ZM145.736 28.2001C145.803 28.1136 145.875 28.0271 145.942 27.9406C146.09 28.0746 146.242 28.209 146.39 28.343C146.336 28.4129 146.278 28.4829 146.224 28.5528C146.059 28.4349 145.897 28.3175 145.736 28.2001ZM146.431 36.6218C146.287 36.2525 146.148 35.8832 146.009 35.5144C146.139 35.4575 146.269 35.401 146.399 35.3445C146.569 35.7008 146.744 36.0567 146.915 36.4125C146.753 36.4825 146.592 36.5519 146.431 36.6218ZM146.722 52.8195L146.713 52.872L146.673 52.8361L146.722 52.8195ZM146.068 46.377C147.367 49.1333 148.425 51.2868 149.375 53.4869C149.496 53.7688 149.052 54.295 148.869 54.7082C148.515 54.4805 147.95 54.3281 147.833 54.0135C147.188 52.2028 146.614 50.3617 146.085 48.5121C145.951 48.0437 146.068 47.505 146.068 46.377ZM136.853 65.8769L136.88 65.8249L136.911 65.876L136.853 65.8769ZM134.195 68.2379C134.11 68.1971 134.065 68.068 134.007 67.9775C134.092 67.9228 134.195 67.8103 134.262 67.8282C134.352 67.8524 134.41 67.9779 134.549 68.1308C134.379 68.1872 134.262 68.2688 134.195 68.2379ZM131.004 100.229C131.524 101.371 132.048 102.513 132.568 103.655C131.865 102.62 131.161 101.584 130.457 100.548C130.641 100.441 130.82 100.336 131.004 100.229ZM133.294 105.104C133.308 105.123 133.326 105.143 133.339 105.162C133.326 105.179 133.308 105.196 133.294 105.212C133.281 105.193 133.254 105.175 133.25 105.154C133.25 105.139 133.276 105.12 133.294 105.104ZM134.276 103.643C134.276 103.695 134.28 103.746 134.285 103.798C134.231 103.808 134.164 103.835 134.128 103.813C134.092 103.788 134.088 103.718 134.07 103.668C134.137 103.66 134.204 103.651 134.276 103.643ZM139.246 108.09C139.251 108.134 139.251 108.177 139.251 108.221C139.224 108.221 139.179 108.223 139.179 108.22C139.175 108.177 139.174 108.133 139.174 108.09C139.197 108.09 139.219 108.09 139.246 108.09ZM122.762 101.313C121.7 100.781 120.665 100.2 119.62 99.6303C119.925 99.222 120.23 98.8132 120.535 98.4045C121.444 99.2045 122.35 100.005 123.255 100.805C123.089 100.983 122.825 101.345 122.762 101.313ZM119.069 101.501C118.433 100.902 117.841 100.258 117.236 99.6262C117.402 99.4716 117.693 99.166 117.716 99.1848C118.406 99.7567 119.069 100.36 119.921 101.127C119.455 101.338 119.132 101.559 119.069 101.501ZM116.604 102.035C115.995 101.361 115.416 100.657 114.829 99.9592C115.053 99.8154 115.452 99.5187 115.479 99.5501C116.062 100.203 116.6 100.894 117.241 101.698C116.94 101.86 116.635 102.071 116.604 102.035ZM114.247 102.477C113.588 101.884 112.925 101.301 112.302 100.675C112.257 100.631 112.535 100.268 112.66 100.053C113.409 100.602 114.153 101.152 114.897 101.701C114.677 101.96 114.462 102.219 114.247 102.477ZM111.36 102.327C110.693 101.803 110.029 101.279 109.361 100.754C109.572 100.523 109.778 100.29 109.989 100.059C110.536 100.638 111.096 101.207 111.616 101.812C111.665 101.869 111.45 102.15 111.36 102.327ZM108.671 102.572C108.071 101.968 107.47 101.364 106.874 100.76C107.08 100.555 107.286 100.349 107.497 100.144C108.08 100.758 108.667 101.373 109.249 101.988C109.057 102.183 108.864 102.377 108.671 102.572ZM104.691 101.984C103.952 101.589 103.293 101.044 102.603 100.562C102.419 100.819 102.235 101.075 102.052 101.331C102.459 101.519 102.867 101.707 103.275 101.895C103.19 102.041 103.105 102.187 103.015 102.332C102.634 102.253 102.114 102.301 101.899 102.067C101.536 101.683 101.37 101.118 101.119 100.629C101.559 100.427 102.047 99.9888 102.428 100.068C103.634 100.319 104.817 100.72 105.96 101.177C106.148 101.251 106.103 101.904 106.166 102.289C105.668 102.196 105.117 102.211 104.691 101.984ZM99.7928 102.177C99.6539 101.903 99.5149 101.629 99.376 101.355C99.506 101.308 99.6359 101.262 99.7659 101.215C99.8914 101.479 100.012 101.743 100.138 102.007C100.021 102.063 99.9094 102.12 99.7928 102.177ZM100.254 116.827C100.017 116.927 99.7839 117.026 99.5463 117.125C98.6545 115.893 98.0225 114.151 96.8124 113.529C93.91 112.034 96.0953 109.479 95.5306 107.481C97.1037 110.596 98.6813 113.712 100.254 116.827ZM101.415 122.794C102.657 125.189 103.898 127.583 105.14 129.978C104.79 130.151 104.44 130.325 104.091 130.498C102.917 128.074 101.738 125.649 100.559 123.225C100.846 123.081 101.128 122.937 101.415 122.794ZM105.955 127.166C107.076 129.472 108.196 131.777 109.321 134.082C109.039 134.221 108.756 134.361 108.474 134.5C107.349 132.196 106.224 129.892 105.104 127.588C105.386 127.447 105.668 127.307 105.955 127.166ZM109.684 129.823C110.719 132.149 111.75 134.476 112.781 136.802C112.481 136.927 112.181 137.052 111.88 137.177C110.939 134.815 109.998 132.452 109.057 130.09C109.267 130.001 109.478 129.912 109.684 129.823ZM112.777 133.374L112.723 133.416L112.714 133.347L112.777 133.374ZM113.727 133.503C114.776 135.812 115.82 138.121 116.869 140.43C116.631 140.536 116.393 140.642 116.151 140.748C115.143 138.427 114.13 136.106 113.122 133.785C113.323 133.691 113.525 133.597 113.727 133.503ZM122.238 145.42C118.289 143.856 118.5 139.803 117.568 136.495C119.118 139.459 120.669 142.422 122.238 145.42ZM117.823 136.532C117.832 136.517 117.863 136.514 117.886 136.506C117.89 136.527 117.913 136.555 117.904 136.568C117.895 136.584 117.863 136.586 117.841 136.594C117.837 136.573 117.814 136.547 117.823 136.532ZM122.534 140.75C123.829 142.996 126.061 145.194 126.182 147.501C126.334 150.395 128.481 151.795 129.22 154.076C129.655 155.423 130.166 156.746 130.596 158.095C130.659 158.293 130.462 158.574 130.386 158.823C129.4 156.838 128.925 154.356 127.423 153.194C124.272 150.749 124.532 147.141 123.26 144.068C122.847 143.076 122.229 142.17 121.704 141.225C121.982 141.066 122.256 140.908 122.534 140.75ZM127.746 145.174C128.028 145.293 128.503 145.349 128.566 145.541C129.359 147.933 130.099 150.345 130.847 152.751C130.534 152.857 130.224 152.963 129.911 153.069C129.507 151.899 129.086 150.737 128.714 149.558C128.342 148.368 128.006 147.166 127.692 145.96C127.629 145.719 127.723 145.437 127.746 145.174ZM129.848 144.833C130.659 144.795 131.941 144.47 132.201 144.848C132.99 145.985 133.402 147.39 133.881 148.72C133.904 148.793 133.173 149.137 132.376 149.594C131.856 148.856 131.412 148.283 131.04 147.668C130.596 146.941 130.193 146.186 129.812 145.424C129.736 145.263 129.821 144.834 129.848 144.833ZM133.962 144.571C134.41 144.62 135.083 144.5 135.266 144.746C136.136 145.923 136.884 147.193 137.646 148.449C137.7 148.536 137.512 148.909 137.436 148.91C136.768 148.918 136.024 149.033 135.455 148.781C135.101 148.625 135.002 147.886 134.791 147.408C134.697 147.279 134.603 147.149 134.513 147.02C134.603 147.032 134.693 147.045 134.787 147.057C134.522 146.571 134.213 146.103 134.02 145.591C133.908 145.287 133.976 144.914 133.962 144.571ZM140.501 147.948C140.223 148.165 139.829 148.625 139.685 148.557C139.04 148.255 138.471 147.801 137.79 147.344C137.709 146.167 137.651 145.214 137.588 144.262C138.56 145.491 139.529 146.719 140.501 147.948ZM142.074 146.322C142.366 146.703 142.814 146.961 143.213 147.288C143.024 147.865 142.953 148.366 142.845 148.374C142.522 148.399 142.07 148.328 141.882 148.11C141.572 147.752 141.348 147.269 141.236 146.803C141.039 145.997 140.954 145.164 140.824 144.343C141.236 145.007 141.604 145.704 142.074 146.322ZM143.329 144.177C143.643 144.408 143.916 144.704 144.154 145.018C144.705 145.758 145.243 146.509 145.745 147.279C145.857 147.445 145.808 147.714 145.834 147.935C145.18 147.984 144.526 148.032 144.566 148.029C144.015 147.035 143.701 146.487 143.405 145.93C143.177 145.5 142.93 145.072 142.782 144.614C142.751 144.53 143.275 144.137 143.329 144.177ZM145.947 144.063C146.673 145.261 147.399 146.459 148.125 147.657C147.95 147.756 147.775 147.855 147.6 147.954C146.924 146.718 146.242 145.483 145.561 144.247C145.691 144.186 145.817 144.125 145.947 144.063ZM147.941 142.954C149.277 144.785 150.227 146.092 151.226 147.467C148.541 148.173 147.739 147.211 147.941 142.954ZM150.791 143.541C150.957 143.518 151.208 143.626 151.311 143.76C151.988 144.645 152.678 145.525 153.27 146.467C153.467 146.777 153.373 147.265 153.413 147.672C152.974 147.585 152.297 147.645 152.136 147.385C151.486 146.329 150.993 145.175 150.419 144.011C150.576 143.802 150.67 143.559 150.791 143.541ZM153.669 143.226C154.417 144.565 155.166 145.905 155.914 147.244C155.69 147.384 155.461 147.524 155.237 147.665C154.516 146.322 153.799 144.98 153.077 143.638C153.274 143.501 153.471 143.363 153.669 143.226ZM156.421 143.714C157.147 144.707 157.846 145.724 158.531 146.75C158.63 146.9 158.688 147.169 158.621 147.315C158.563 147.44 158.294 147.469 157.586 147.759C156.981 146.338 156.407 144.986 155.833 143.634C156.035 143.657 156.34 143.603 156.421 143.714ZM160.127 144.12C160.732 144.802 161.104 145.689 161.947 146.362C161.879 145.627 161.799 144.893 161.745 144.157C161.727 143.863 161.776 143.565 161.794 143.268C162.157 143.393 162.632 143.415 162.861 143.664C163.399 144.245 163.82 144.935 164.291 145.581C164.286 145.579 164.282 145.576 164.277 145.573C164.591 146.178 164.905 146.784 165.218 147.39C164.295 147.329 163.372 147.268 162.256 147.195C162.023 147.295 161.454 147.756 160.956 147.689C160.459 147.622 159.934 147.098 159.603 146.643C159.19 146.08 158.917 145.398 158.675 144.734C158.522 144.309 158.531 143.823 158.469 143.364C159.033 143.605 159.759 143.704 160.127 144.12ZM161.87 142.178C161.924 142.183 161.973 142.201 162.023 142.214C161.996 142.261 161.969 142.301 161.938 142.341C161.902 142.309 161.861 142.28 161.835 142.243C161.826 142.236 161.861 142.177 161.87 142.178ZM166.428 143.764C167.11 144.511 167.679 145.368 168.23 146.221C168.405 146.49 168.495 146.93 168.4 147.215C168.329 147.422 167.885 147.503 167.307 147.789C166.845 147.173 166.334 146.593 165.944 145.941C165.662 145.468 165.514 144.907 165.348 144.373C165.232 144.001 165.182 143.608 165.102 143.225C165.554 143.397 166.142 143.445 166.428 143.764ZM168.651 143.182C169.104 143.401 169.637 143.565 169.96 143.918C170.7 144.724 171.336 145.624 172.017 146.487C171.323 146.674 170.184 147.167 170.05 146.971C169.346 145.947 168.893 144.745 168.387 143.591C168.347 143.505 168.629 143.171 168.651 143.182ZM173.312 144.027C173.922 144.67 174.316 145.517 175.069 146.701C173.68 146.6 172.86 146.54 172.04 146.481C172.035 146.482 172.026 146.484 172.022 146.486C171.923 145.891 171.807 145.3 171.735 144.704C171.686 144.261 171.703 143.811 171.69 143.364C172.241 143.574 172.945 143.641 173.312 144.027ZM177.216 145.806C176.916 145.932 176.284 146.263 176.248 146.207C175.742 145.427 175.32 144.594 175.235 143.572C175.849 144.266 176.463 144.959 177.216 145.806ZM177.736 143.371C178.408 144.138 179.13 144.87 179.717 145.697C179.851 145.887 179.52 146.408 179.403 146.776C179.125 146.665 178.847 146.554 178.57 146.444C178.139 145.553 177.705 144.666 177.306 143.761C177.283 143.704 177.584 143.505 177.736 143.371ZM180.649 142.138C181.626 143.838 182.133 144.69 182.585 145.57C182.608 145.614 182.164 145.896 181.94 146.068C181.38 145.217 180.806 144.378 180.286 143.504C180.205 143.366 180.389 143.071 180.649 142.138ZM183.414 142.954C183.979 143.169 184.656 143.32 185.041 143.732C185.584 144.315 185.906 145.105 186.561 146.209C185.664 146.067 184.723 146.196 184.329 145.792C183.692 145.131 183.406 144.124 182.998 143.25C182.984 143.217 183.32 142.918 183.414 142.954ZM186.511 142.766C187.775 141.893 188.999 140.857 190.406 140.335C191.249 140.022 192.844 140.179 193.31 140.76C194.144 141.803 194.874 143.37 194.753 144.633C194.588 146.41 194.52 148.819 191.988 149.162C190.859 149.315 189.626 148.731 188.439 148.481C188.488 148.255 188.537 148.029 188.586 147.803C189.281 147.803 189.976 147.803 190.765 147.803C190.083 146.873 189.357 146.133 188.981 145.244C188.811 144.846 189.286 143.714 189.577 143.672C190.402 143.552 191.289 143.816 192.145 143.966C192.176 143.971 192.221 144.496 192.109 144.574C191.872 144.745 191.544 144.838 191.244 144.865C190.796 144.906 190.343 144.861 189.891 144.853C189.985 145.118 190.025 145.575 190.177 145.613C190.796 145.769 191.616 146.074 192.046 145.809C192.692 145.412 193.615 144.353 193.458 143.976C192.898 142.628 191.67 141.751 190.119 142.144C189.124 142.397 188.246 143.1 187.296 143.565C187.107 143.659 186.682 143.669 186.628 143.572C186.498 143.34 186.404 142.84 186.511 142.766ZM189.254 150.098C189.205 150.008 189.16 149.95 189.147 149.885C189.142 149.86 189.209 149.819 189.245 149.785C189.29 149.841 189.344 149.892 189.371 149.955C189.38 149.978 189.313 150.029 189.254 150.098ZM170.942 147.616C170.928 147.621 170.906 147.6 170.883 147.591C170.897 147.572 170.901 147.541 170.915 147.536C170.928 147.531 170.951 147.551 170.973 147.561C170.964 147.58 170.955 147.611 170.942 147.616ZM165.626 146.862L165.586 146.825L165.635 146.81L165.626 146.862ZM165.232 145.477L165.191 145.44L165.241 145.424L165.232 145.477ZM159.325 147.219L159.379 147.182L159.383 147.245L159.325 147.219ZM139.022 149.922L139.067 149.87L139.089 149.935L139.022 149.922ZM136.736 149.581L136.687 149.535L136.745 149.513L136.736 149.581ZM132.152 171.233C132.42 171.573 132.492 172.067 132.653 172.489C132.084 172.524 131.148 172.791 131 172.558C129.74 170.577 128.615 168.512 127.486 166.45C127.378 166.252 127.54 165.904 127.58 165.586C129.176 167.544 130.69 169.37 132.152 171.233ZM132.411 168.648C132.949 168.989 133.608 169.249 133.967 169.731C134.451 170.377 134.724 171.188 135.015 171.956C135.051 172.048 134.617 172.315 134.137 172.73C133.429 171.341 132.797 170.102 132.178 168.855C132.165 168.828 132.385 168.632 132.411 168.648ZM136.028 168.696C136.862 169.555 137.651 170.455 138.448 171.35C138.099 171.559 137.754 171.768 136.965 172.242C136.337 171.177 135.773 170.262 135.284 169.308C135.253 169.243 136.01 168.673 136.028 168.696ZM138.95 168.137C139.856 169.117 140.707 170.146 141.536 171.19C141.545 171.201 141.075 171.593 140.304 172.263C139.466 170.73 138.807 169.526 138.148 168.322C138.422 168.253 138.856 168.038 138.95 168.137ZM143.392 169.118C143.374 169.124 143.352 169.142 143.338 169.135C143.325 169.128 143.32 169.099 143.311 169.08C143.334 169.073 143.356 169.055 143.369 169.062C143.383 169.069 143.387 169.098 143.392 169.118ZM143.894 167.068C144.804 168.255 145.817 169.567 146.798 170.902C146.825 170.937 146.404 171.414 146.336 171.382C145.96 171.199 145.552 170.986 145.297 170.668C144.575 169.776 143.952 168.802 143.217 167.925C143.092 167.778 142.59 167.95 142.258 167.975C142.334 168.244 142.334 168.579 142.5 168.768C142.948 169.274 143.499 169.689 143.948 170.197C144.234 170.527 144.409 170.955 144.638 171.339C144.373 171.439 144.055 171.681 143.849 171.61C143.365 171.441 142.845 171.205 142.504 170.842C142.177 170.498 142.074 169.951 141.846 169.505C141.554 168.922 141.236 168.351 140.927 167.774C141.689 167.593 142.446 167.412 143.894 167.068ZM146.767 166.93C147.824 168.219 148.882 169.505 149.922 170.81C149.949 170.847 149.711 171.218 149.613 171.212C149.115 171.185 148.362 171.258 148.174 170.976C147.412 169.85 146.825 168.606 146.171 167.406C146.372 167.247 146.569 167.088 146.767 166.93ZM149.312 166.775C150.195 168.149 151.083 169.522 151.966 170.895C151.719 170.947 151.298 171.11 151.248 171.034C150.41 169.74 149.622 168.417 148.819 167.1C148.985 166.992 149.147 166.883 149.312 166.775ZM151.957 167.021C152.463 167.183 153.068 167.298 153.409 167.649C154.063 168.323 154.583 169.135 155.121 169.915C155.305 170.179 155.533 170.565 155.457 170.81C155.385 171.051 154.955 171.184 154.05 171.78C153.122 170.159 152.297 168.713 151.473 167.267C151.634 167.179 151.836 166.982 151.957 167.021ZM158.747 170.708C157.147 171.164 155.107 169.067 155.004 166.475C156.479 168.142 157.577 169.387 158.747 170.708ZM174.899 168.279C175.405 167.871 175.898 167.445 176.436 167.086C176.49 167.052 176.822 167.44 177.019 167.632C176.557 168.024 176.096 168.416 175.558 168.87C175.24 168.585 175.069 168.432 174.899 168.279ZM168.01 167.11C168.754 167.116 169.507 167.385 170.238 167.322C170.865 167.267 171.762 167.09 172.026 166.656C173.474 164.243 175.383 163.332 177.669 164.441C180.013 165.577 179.533 167.827 179.063 169.677C178.753 170.885 177.781 172.129 176.754 172.874C176.1 173.351 174.576 173.304 173.859 172.842C173.12 172.365 172.891 171.1 172.286 169.871C174.823 170.065 176.75 170.587 177.87 168.338C178.623 166.834 177.861 165.873 176.616 165.857C174.877 165.835 172.846 166.036 173.021 168.721C173.035 168.953 172.658 169.434 172.492 169.422C170.13 169.259 167.616 170.847 165.393 168.819C165.182 168.629 164.609 168.843 163.977 168.885C164.497 169.375 164.725 169.559 164.9 169.785C164.931 169.825 164.734 170.152 164.658 170.148C164.147 170.115 163.524 170.187 163.148 169.923C162.534 169.491 162.144 168.751 161.539 168.301C161.279 168.108 160.723 168.316 160.302 168.343C160.459 168.629 160.607 168.925 160.781 169.201C161.014 169.564 161.274 169.91 161.525 170.264C161.243 170.455 160.952 170.81 160.683 170.796C160.32 170.775 159.849 170.558 159.643 170.269C158.975 169.312 158.406 168.286 157.68 167.098C161.288 167.098 164.649 167.083 168.01 167.11ZM128.826 173.487C128.158 172.568 127.62 171.856 127.15 171.103C127.118 171.054 127.768 170.49 127.786 170.509C128.512 171.165 129.194 171.863 129.888 172.555C129.682 172.735 129.476 172.916 128.826 173.487ZM126.464 161.123C126.8 160.917 127.136 160.711 127.472 160.505C128.813 162.723 130.153 164.94 131.493 167.158C131.188 167.347 130.879 167.536 130.569 167.725C129.202 165.525 127.836 163.324 126.464 161.123ZM130.327 159.552L130.372 159.505L130.39 159.563L130.327 159.552ZM125.335 153.697C125.675 153.531 126.016 153.364 126.356 153.199C128.064 156.423 129.772 159.647 131.479 162.871C131.089 163.065 130.704 163.259 130.318 163.454C128.656 160.202 126.997 156.949 125.335 153.697ZM119.504 145.801L119.455 145.754L119.513 145.736L119.504 145.801ZM102.191 128.174C102.191 128.173 102.204 128.157 102.204 128.157L102.191 128.174ZM101.245 125.939C101.178 125.913 101.137 125.825 101.088 125.765C101.151 125.73 101.214 125.661 101.272 125.668C101.348 125.676 101.415 125.744 101.568 125.835C101.375 125.901 101.294 125.958 101.245 125.939ZM100.42 127.428C99.7928 126.766 99.1654 126.104 98.5379 125.442C98.7665 125.212 98.9995 124.982 99.2281 124.752C99.9273 125.342 100.626 125.932 101.326 126.522C101.025 126.824 100.725 127.126 100.42 127.428ZM97.4309 120.209C96.678 118.691 96.0191 117.121 95.4231 115.534C95.2886 115.179 95.5396 114.678 95.6113 114.244C95.916 114.531 96.306 114.767 96.5121 115.112C97.7715 117.19 98.9861 119.293 100.214 121.388C100.035 121.477 99.8511 121.566 99.6718 121.655C99.515 121.292 99.3581 120.929 99.2057 120.566C99.0309 120.745 98.8561 120.922 98.6768 121.101C98.2511 120.809 97.6326 120.613 97.4309 120.209ZM99.0757 112.828C99.0533 112.836 99.0309 112.845 99.0085 112.854C99.022 112.822 99.0354 112.791 99.0488 112.759C99.0578 112.782 99.0668 112.805 99.0757 112.828ZM94.2094 103.133C94.4787 102.988 94.7463 102.843 95.0197 102.698C96.4628 105.356 97.9105 108.015 99.3581 110.673C99.2192 110.735 99.0847 110.797 98.9458 110.859C97.9329 109.252 96.911 107.651 95.9161 106.034C95.3245 105.08 94.7777 104.101 94.2094 103.133ZM94.3694 95.429C95.2931 97.916 96.2208 100.403 97.1441 102.89C94.939 102.097 93.4241 98.694 94.3694 95.429ZM97.3995 102.933C97.413 102.934 97.413 102.935 97.3995 102.933V102.933ZM97.2068 102.919C97.5205 103.073 97.3771 103.004 97.2068 102.919V102.919ZM93.7294 93.7049C93.6052 92.3473 93.5375 90.9849 94.0444 89.436C95.1676 91.965 96.288 94.4941 97.5116 97.2536C96.0684 96.1775 95.0645 95.4743 94.1206 94.6922C93.8791 94.4914 93.7612 94.0491 93.7294 93.7049ZM92.7407 85.1576C92.967 85.0429 93.1933 84.9281 93.4201 84.8134C94.2071 86.2781 94.9928 87.7423 95.7816 89.2065C95.5217 89.34 95.2572 89.474 94.9973 89.608C94.2439 88.1246 93.4923 86.6411 92.7407 85.1576ZM96.3553 90.3686C96.3015 90.4291 96.2522 90.5013 96.2432 90.4959C96.1805 90.4632 96.1267 90.413 96.0729 90.3686C96.1043 90.3314 96.1446 90.2588 96.167 90.2642C96.2298 90.2821 96.288 90.3283 96.3553 90.3686ZM96.3239 87.6728C95.2707 85.3727 94.2228 83.0722 93.1727 80.7722C93.357 80.6888 93.5416 80.6054 93.7258 80.5225C94.8942 82.7549 96.0595 84.9873 97.2292 87.2193C96.9245 87.3707 96.6242 87.5218 96.3239 87.6728ZM96.6511 89.708L96.6645 89.6932C96.6645 89.6936 96.6511 89.708 96.6511 89.708ZM96.669 93.5857L96.6869 93.639L96.6286 93.6296L96.669 93.5857ZM92.548 74.5254C92.8935 74.3762 93.2395 74.2269 93.585 74.0777C94.8001 76.8604 96.0147 79.6432 97.2292 82.4259C96.9021 82.5662 96.5749 82.7061 96.2477 82.8459C95.0152 80.0725 93.7814 77.2992 92.548 74.5254ZM92.0724 68.1554C92.4184 67.9976 92.7644 67.8403 93.1104 67.6826C94.4532 70.5886 95.795 73.4946 97.1396 76.4006C96.8393 76.5355 96.5435 76.6704 96.2477 76.8053C94.8538 73.9221 93.464 71.0386 92.0724 68.1554ZM92.4597 61.2857C92.4525 61.3332 92.4319 61.3789 92.4157 61.4255C92.3741 61.3964 92.3324 61.3672 92.2903 61.3386C92.3248 61.3005 92.3584 61.2651 92.3983 61.2422C92.4086 61.2364 92.4615 61.2736 92.4597 61.2857ZM93.1454 39.7927C94.0991 42.3886 95.0511 44.9849 96.0057 47.5812C95.6785 47.7022 95.3469 47.8237 95.0197 47.9447C94.0144 45.3658 93.0096 42.7866 92.0048 40.2077C92.3848 40.0692 92.7653 39.9312 93.1454 39.7927ZM92.5735 35.185C93.5999 37.2112 94.6262 39.237 95.6516 41.2627C95.4051 41.386 95.1542 41.5092 94.9077 41.632C93.9046 39.5942 92.9029 37.5563 91.9008 35.5184C92.1249 35.4073 92.3494 35.2961 92.5735 35.185ZM89.8633 26.5319C89.5761 25.9843 90.3407 24.8006 90.7732 23.984C91.19 23.197 91.7596 22.479 92.3413 21.7987C92.5036 21.6082 93.0226 21.5065 93.2489 21.6203C95.7502 22.881 96.6556 28.1324 94.7418 30.2137C94.5442 30.4293 94.2026 30.5131 93.8764 30.6857C93.499 30.5051 93.0764 30.4253 92.8465 30.1712C91.7888 29.0027 90.5777 27.8935 89.8633 26.5319ZM90.6096 28.5703C90.5948 28.5514 90.5638 28.5196 90.5674 28.5151C90.5925 28.4847 90.6239 28.4591 90.654 28.4318C90.6683 28.451 90.6831 28.4703 90.6979 28.4896C90.671 28.5196 90.6405 28.5447 90.6096 28.5703ZM95.4096 36.5192C95.4813 36.5837 95.5396 36.6339 95.5934 36.6837C95.5217 36.7527 95.4454 36.8222 95.3737 36.8912C95.3244 36.8329 95.2303 36.7693 95.2348 36.7177C95.2438 36.6532 95.3334 36.599 95.4096 36.5192ZM95.181 54.7122C94.2753 52.3333 93.3695 49.9548 92.4637 47.5763C92.8312 47.436 93.1987 47.2957 93.5658 47.1559C94.4953 49.5294 95.4231 51.9035 96.3553 54.277C95.9609 54.4222 95.5709 54.567 95.181 54.7122ZM95.6964 59.2855C94.7418 57.2861 93.7841 55.2868 92.8276 53.287C93.0477 53.2108 93.2677 53.1351 93.4878 53.0589C94.4487 55.0362 95.4096 57.0141 96.3687 58.9915C96.1446 59.0896 95.9205 59.1878 95.6964 59.2855ZM94.6324 58.0202C94.6522 58.0131 94.6764 57.9956 94.688 58.0019C94.706 58.0081 94.7059 58.0377 94.7149 58.057C94.697 58.0642 94.6714 58.0821 94.6589 58.0758C94.6445 58.0686 94.641 58.04 94.6324 58.0202ZM95.8264 62.1852C95.9833 62.498 95.7637 62.9986 95.7144 63.4132C95.432 63.1627 95.051 62.965 94.8807 62.6522C94.1592 61.3139 93.5004 59.9416 92.8182 58.5814C93.0849 58.4527 93.352 58.3237 93.6187 58.1946C94.3649 59.5198 95.1497 60.825 95.8264 62.1852ZM97.5205 71.5271C97.2247 71.6696 96.929 71.8121 96.6332 71.9542C95.9833 70.6509 95.3962 69.3095 94.6602 68.0568C94.1076 67.1174 93.1548 66.3734 92.7662 65.3901C92.4489 64.5861 92.7017 63.5571 92.7017 62.628C92.9101 62.5814 93.1185 62.5348 93.3269 62.4877C94.7239 65.5008 96.1222 68.5139 97.5205 71.5271ZM97.1486 66.6406C97.3771 67.1569 97.6012 67.6736 97.8298 68.1904C97.6998 68.2495 97.5699 68.3082 97.4399 68.3674C97.1979 67.8596 96.9558 67.3518 96.7093 66.844C96.8572 66.7759 97.0007 66.7082 97.1486 66.6406ZM98.39 63.8847C98.9099 64.6475 99.5105 65.3717 99.8825 66.2C99.9721 66.4044 99.3177 66.9453 99.004 67.3312C98.4438 66.5585 97.8835 65.7854 97.1351 64.7546C97.7312 64.3414 98.0628 64.1128 98.39 63.8847ZM97.7267 62.6083C97.7357 62.6544 97.7446 62.701 97.7401 62.7472C97.7401 62.7544 97.6953 62.7593 97.6684 62.7651C97.664 62.7181 97.655 62.671 97.655 62.624C97.655 62.619 97.6998 62.6136 97.7267 62.6083ZM100.38 61.5721C100.967 62.442 101.599 63.2868 102.087 64.2087C102.159 64.3409 101.532 64.8443 101.227 65.1755C100.698 64.3082 100.174 63.4406 99.6091 62.5106C99.9542 62.087 100.169 61.8298 100.38 61.5721ZM98.5917 105.321C98.4572 105.384 98.3273 105.447 98.1928 105.51C97.9777 105.075 97.7625 104.641 97.5474 104.207C97.6998 104.13 97.8567 104.055 98.009 103.979C98.2018 104.426 98.399 104.874 98.5917 105.321ZM98.641 99.7481C98.7486 99.866 98.8606 99.9422 98.8517 99.9808C98.8203 100.073 98.7351 100.148 98.6724 100.23C98.6096 100.177 98.502 100.122 98.502 100.07C98.502 99.9781 98.5738 99.888 98.641 99.7481ZM102.675 59.6431C103.078 60.4373 103.513 61.2252 103.822 62.0574C103.938 62.3765 103.795 62.7943 103.759 63.1698C103.365 62.8839 102.764 62.6665 102.634 62.2874C102.365 61.5031 102.347 60.6318 102.258 59.7928C102.253 59.756 102.666 59.6243 102.675 59.6431ZM106.049 58.8633C105.915 58.9256 105.745 59.0018 105.695 59.0255C105.695 59.7238 105.772 60.2163 105.659 60.6623C105.61 60.8608 105.184 60.9657 104.929 61.1131C104.763 60.6318 104.557 60.1594 104.44 59.6664C104.301 59.0748 104.239 58.4657 104.104 57.6205C104.969 58.1717 105.494 58.5061 106.049 58.8633ZM106.193 55.8219C106.408 56.0415 106.659 56.2356 106.834 56.4848C107.264 57.1037 107.658 57.7473 108.066 58.381C108.066 58.381 108.066 58.381 108.066 58.3815C107.824 58.6477 107.578 58.9139 107.336 59.1806C107.098 58.9085 106.793 58.6701 106.637 58.3577C106.39 57.8611 106.188 57.3269 106.067 56.786C106 56.4884 106.144 56.145 106.193 55.8219ZM108.08 58.3761C108.08 56.7537 108.08 55.1304 108.08 53.5071C108.407 55.1532 111.634 57.0136 108.08 58.3761ZM110.186 53.5824C110.209 52.7703 110.594 51.9684 110.818 51.1626C111.145 51.6018 111.446 52.0639 111.8 52.4776C113.534 54.4881 111.459 55.0793 110.737 56.1011C110.513 55.1546 110.164 54.3631 110.186 53.5824ZM112.131 50.9179C112.239 50.9946 112.328 51.0309 112.369 51.0963C112.382 51.1281 112.302 51.2155 112.266 51.2778C112.194 51.2343 112.104 51.2048 112.064 51.142C112.042 51.1057 112.1 51.0156 112.131 50.9179ZM113.234 49.0284C113.31 48.928 113.7 49.0665 113.951 49.0979C114.3 49.5537 114.646 50.0081 114.883 50.3174C114.399 51.3244 113.946 52.2634 113.4 53.4013C113.117 52.1334 112.835 51.1478 112.714 50.143C112.674 49.7894 112.987 49.3533 113.234 49.0284ZM115.165 47.1469C115.381 46.6629 116.537 46.5992 117.267 46.3384C117.496 46.2577 117.881 46.177 117.904 46.0444C118.15 44.707 118.222 43.3306 118.567 42.0229C118.841 40.9737 119.168 39.5041 119.925 39.1209C120.934 38.6104 122.511 38.627 123.618 39.0357C125.586 39.7627 126.93 43.7058 125.769 45.006C125.12 45.7347 124.004 46.0471 122.574 46.8341C121.678 46.8341 120.467 46.8099 119.257 46.8462C118.782 46.8605 118.159 46.852 117.872 47.1312C117.353 47.6417 117.111 48.422 116.613 48.9679C116.268 49.3511 115.699 49.5321 115.228 49.8033C115.174 48.9033 114.843 47.8806 115.165 47.1469ZM126.805 41.7898L126.764 41.8369L126.742 41.7795L126.805 41.7898ZM152.234 48.197C152.342 48.0881 152.71 48.0388 152.781 48.1222C153.664 49.1346 154.511 50.1766 155.399 51.2518C155.098 51.6247 154.942 51.9752 154.789 51.9734C154.466 51.9698 154 51.8779 153.852 51.6525C153.243 50.7212 152.719 49.7325 152.19 48.7483C152.113 48.6039 152.131 48.2996 152.234 48.197ZM156.492 48.3669C156.954 49.1391 157.102 50.1027 157.335 50.9995C157.357 51.0775 156.981 51.3733 156.918 51.3379C156.636 51.181 156.331 50.9856 156.17 50.7212C155.672 49.9167 155.242 49.0737 154.587 47.8869C155.426 48.076 156.291 48.0249 156.492 48.3669ZM158.451 47.9595C158.823 48.7671 159.204 49.5702 159.544 50.3895C159.585 50.4809 159.392 50.7879 159.329 50.7808C159.092 50.7525 158.706 50.6943 158.652 50.5477C158.37 49.7594 158.173 48.941 157.944 48.1325C158.115 48.0751 158.285 48.0173 158.451 47.9595ZM160.078 47.5453C160.445 48.4466 160.822 49.3457 161.158 50.2586C161.171 50.2873 160.795 50.4585 160.602 50.563C160.252 49.6281 159.903 48.6927 159.558 47.7578C159.728 47.687 159.903 47.6162 160.078 47.5453ZM162.207 47.7148C162.493 48.3915 162.785 49.0683 163.076 49.745C162.726 49.4394 162.319 49.1758 162.045 48.8124C161.875 48.5865 161.902 48.2091 161.844 47.8994C161.965 47.838 162.086 47.7762 162.207 47.7148ZM164.389 47.6906C164.707 48.249 165.021 48.8079 165.339 49.3663C165.147 49.434 164.815 49.6007 164.784 49.5536C164.43 49.0674 164.129 48.5466 163.811 48.0352C164.004 47.9205 164.196 47.8058 164.389 47.6906ZM166.738 47.1595C167.163 47.7443 167.603 48.3207 167.984 48.9343C168.006 48.9701 167.392 49.5034 167.343 49.4645C166.827 49.0602 166.366 48.5856 165.693 47.9411C166.267 47.5117 166.5 47.3356 166.738 47.1595ZM169.104 46.8354C169.4 47.5117 169.696 48.188 169.991 48.8644C169.857 48.9271 169.727 48.9898 169.597 49.053C169.283 48.3763 168.97 47.6995 168.66 47.0223C168.808 46.96 168.956 46.8977 169.104 46.8354ZM174.778 43.5821C174.953 43.5229 175.132 43.4638 175.307 43.4051C175.8 44.1549 176.293 44.9047 176.79 45.6549C176.463 45.6222 176.14 45.5891 175.813 45.5563C175.54 46.0072 175.267 46.4581 174.778 47.2706C174.778 45.9001 174.778 44.7411 174.778 43.5821ZM177.83 48.5807C178.108 47.8143 177.799 45.8817 179.497 47.2504C179.977 47.0394 180.282 46.9076 180.582 46.7758C180.51 47.4494 180.649 48.2647 180.313 48.7568C179.986 49.2318 179.193 49.4743 178.561 49.5998C178.377 49.637 177.745 48.82 177.83 48.5807ZM178.722 43.0882C182.939 43.6892 184.893 46.1403 183.979 49.5962C183.405 51.7573 179.583 53.3466 177.687 52.1916C177.53 52.0953 177.485 51.8102 177.391 51.6126C177.606 51.553 177.821 51.4907 178.041 51.4342C178.758 51.2482 179.479 51.0645 180.197 50.8798L180.183 50.8946C180.465 50.6405 180.891 50.4397 181.008 50.1246C181.51 48.7725 182.048 48.4552 183.128 49.871C182.787 48.4771 182.809 46.7875 181.989 45.7795C181.272 44.897 179.614 44.7801 178.251 44.2808C178.346 44.7586 178.399 45.0521 178.458 45.3452C178.381 45.3869 178.305 45.4281 178.225 45.4698C177.853 44.7608 177.481 44.0518 177.109 43.3423C177.646 43.25 178.207 43.0142 178.722 43.0882ZM176.306 50.8713C176.288 50.7109 176.27 50.55 176.253 50.3895C176.329 50.3761 176.4 50.3626 176.472 50.3492C176.517 50.5078 176.557 50.6669 176.602 50.8256C176.504 50.8408 176.405 50.8561 176.306 50.8713ZM175.567 49.5389C175.638 49.4546 175.71 49.3699 175.782 49.2856C175.952 49.4434 176.118 49.6016 176.288 49.7598C176.23 49.8302 176.167 49.9001 176.109 49.9705C175.925 49.8266 175.746 49.6827 175.567 49.5389ZM175.518 48.4041C175.513 48.3893 175.535 48.3651 175.544 48.3449C175.562 48.3543 175.594 48.3597 175.603 48.3745C175.607 48.3897 175.585 48.4135 175.576 48.4336C175.558 48.4242 175.526 48.4184 175.518 48.4041ZM150.428 59.06C151.432 60.9366 152.432 62.8135 153.436 64.6901C153.22 64.799 153.001 64.9083 152.786 65.0172C151.782 63.1403 150.778 61.2633 149.774 59.3863C149.994 59.2774 150.213 59.1685 150.428 59.06ZM150.724 55.5225C151.535 57.188 152.342 58.853 153.153 60.518C152.956 60.6107 152.763 60.7031 152.571 60.7954C151.647 59.19 150.724 57.5846 149.801 55.9788C150.11 55.8268 150.419 55.6749 150.724 55.5225ZM152.768 65.8199C152.759 65.7679 152.835 65.6994 152.875 65.638C152.934 65.6796 152.996 65.7213 153.082 65.7805C153.019 65.8607 152.97 65.9167 152.925 65.9728C152.866 65.9226 152.777 65.8786 152.768 65.8199ZM153.185 68.8438C153.247 68.9926 153.167 69.236 153.082 69.3991C153.059 69.4444 152.75 69.4085 152.624 69.3261C150.307 67.7615 150.222 65.2987 150.455 62.6845C151.369 64.7358 152.288 66.7844 153.185 68.8438ZM153.696 75.2452C153.301 75.3908 152.907 75.5365 152.512 75.6822C151.719 73.6304 150.926 71.5782 150.128 69.5264C150.567 69.3548 151.006 69.1826 151.441 69.0105C152.194 71.0888 152.943 73.167 153.696 75.2452ZM150.899 74.7347C151.75 75.8565 152.463 76.5368 152.835 77.3691C153.095 77.9441 152.884 78.7284 152.88 79.4195C152.221 78.9234 151.257 78.5564 150.975 77.898C150.643 77.1181 150.899 76.0873 150.899 74.7347ZM153.906 83.2869C153.772 83.4971 153.476 83.6038 152.727 84.0954C151.916 82.8979 151.132 81.7864 150.428 80.6283C150.37 80.5306 150.787 80.0672 151.056 79.887C151.145 79.8287 151.517 80.0936 151.683 80.2787C152.387 81.0581 153.073 81.8541 153.736 82.6671C153.866 82.8262 153.987 83.1623 153.906 83.2869ZM154.466 79.6571C155.237 81.513 155.945 83.2121 156.694 85.0075C155.166 84.9048 153.646 81.3911 154.466 79.6571ZM156.721 80.51C157.433 82.2969 158.15 84.0842 158.868 85.8711C158.648 85.9639 158.433 86.0571 158.213 86.1499C157.51 84.3576 156.806 82.5653 156.098 80.7735C156.304 80.6857 156.515 80.5978 156.721 80.51ZM158.926 82.3807C158.962 82.2722 159.19 82.1158 159.222 82.1378C159.504 82.3309 159.786 82.5331 160.01 82.7863C160.158 82.9557 160.226 83.2071 160.297 83.4312C160.768 84.8493 161.229 86.2704 161.736 87.8207C160.342 87.3806 158.491 83.5903 158.926 82.3807ZM161.682 83.1229C162.301 83.9152 162.919 84.7081 163.551 85.5188C163.345 85.6031 163.139 85.6874 162.933 85.7716C163.246 86.8903 163.56 88.0089 163.878 89.128C163.69 89.189 163.502 89.25 163.314 89.3109C162.673 87.3053 162.032 85.2997 161.391 83.2941C161.485 83.2372 161.584 83.1798 161.682 83.1229ZM164.403 84.9586C164.654 85.3297 164.981 85.6703 165.138 86.0773C165.743 87.6522 166.294 89.2482 166.863 90.8361C166.648 90.945 166.433 91.0539 166.213 91.1628C165.344 89.3055 164.479 87.4483 163.609 85.591C163.636 85.63 163.668 85.6681 163.699 85.7075C164.013 85.375 164.21 85.167 164.403 84.9586ZM167.325 86.1745C167.984 88.2985 168.642 90.4228 169.306 92.5468C169.149 92.6144 168.992 92.6817 168.835 92.7489C168.078 90.6532 167.316 88.5575 166.558 86.4618C166.814 86.3659 167.069 86.27 167.325 86.1745ZM169.897 88.1824C170.803 89.3387 171.708 90.495 172.734 91.8037C172.04 92.3998 171.668 92.7171 171.3 93.0339C170.655 91.593 170 90.1562 169.395 88.6991C169.36 88.6109 169.723 88.3585 169.897 88.1824ZM173.465 93.444C174.106 92.9936 174.706 92.3074 175.401 92.1914C175.755 92.1322 176.284 93.0922 177.014 93.9052C176.279 94.6371 175.822 95.0929 175.37 95.5482C174.733 94.8468 174.101 94.1454 173.465 93.444ZM172.828 89.0648C175.123 87.1901 176.611 87.3954 177.969 89.4328C180.349 93.0133 180.344 95.8239 177.046 98.4901C175.912 99.4057 173.335 98.8527 171.533 98.4538C170.906 98.3149 170.61 96.627 170.233 95.6182C170.22 95.5796 170.991 95.204 171.421 95.0633C171.744 94.9571 172.111 94.9755 172.456 94.9383C172.443 95.1749 172.425 95.4115 172.407 95.6482C173.805 95.8248 175.428 96.5351 176.557 96.0641C178.785 95.1337 177.718 92.8542 177.032 91.6087C176.642 90.897 174.5 91.1467 172.766 90.9114C172.766 90.7397 172.398 89.4149 172.828 89.0648ZM160.356 124.475C161.032 125.724 161.597 126.687 162.041 127.702C162.081 127.796 161.359 128.224 160.992 128.497C160.472 127.514 159.921 126.545 159.473 125.531C159.414 125.395 159.88 125.027 160.356 124.475ZM163.26 125.109C163.95 125.912 164.64 126.713 165.33 127.515C165.003 127.72 164.676 127.925 163.86 128.438C163.408 127.344 163.031 126.505 162.735 125.64C162.7 125.536 163.076 125.29 163.26 125.109ZM166.729 125.525C167.284 126.117 167.813 126.737 168.279 127.399C168.315 127.453 167.867 127.847 167.298 128.453C166.773 127.437 166.388 126.735 166.079 126.003C166.052 125.943 166.706 125.498 166.729 125.525ZM169.557 125.515C170.18 126.195 170.807 126.875 171.435 127.555C171.242 127.729 171.049 127.904 170.516 128.389C169.96 127.469 169.507 126.739 169.1 125.982C169.068 125.924 169.395 125.675 169.557 125.515ZM172.689 125.533C173.335 126.173 173.976 126.829 174.54 127.539C174.608 127.622 174.249 128.045 173.774 128.819C173.075 127.567 172.604 126.734 172.165 125.882C172.152 125.858 172.658 125.502 172.689 125.533ZM175.948 125.139C176.737 125.975 177.521 126.812 178.31 127.648C178.018 127.878 177.723 128.108 176.898 128.752C176.248 127.607 175.719 126.746 175.289 125.839C175.24 125.734 175.715 125.378 175.948 125.139ZM179.116 125.096C179.842 125.985 180.569 126.87 181.254 127.789C181.268 127.805 180.748 128.218 180.026 128.822C179.506 127.528 179.103 126.559 178.749 125.572C178.713 125.471 178.986 125.258 179.116 125.096ZM182.93 124.909C183.423 125.887 183.966 126.956 184.504 128.026C183.894 127.984 183.016 128.179 182.729 127.853C182.097 127.14 181.77 126.161 181.317 125.291C181.64 125.215 181.962 125.139 182.93 124.909ZM185.256 125.249C186.081 125.296 187.045 125.158 187.695 125.541C188.394 125.951 188.797 126.861 189.393 127.636C187.403 128.067 185.646 128.259 185.073 125.812C185.032 125.64 185.203 125.246 185.256 125.249ZM191.701 124.986C191.863 124.64 192.302 124.422 192.669 124.117C193.077 124.373 193.351 124.544 193.624 124.715C193.198 125.092 192.772 125.47 192.347 125.847C192.114 125.552 191.634 125.14 191.701 124.986ZM191.908 120.868C193.283 120.822 195.166 121.311 195.932 122.278C196.569 123.084 196.246 125.058 195.744 126.262C194.874 128.34 193.449 130.079 190.706 129.017C190.343 128.875 190.043 128.554 189.716 128.317C190.195 128.06 190.675 127.803 191.159 127.547C192.329 126.922 193.606 126.423 194.614 125.6C194.937 125.337 194.641 123.601 194.489 123.581C193.31 123.422 192.069 123.386 190.926 123.649C190.684 123.704 190.769 125.155 190.644 126.667C190.325 125.529 190.245 124.86 189.953 124.303C189.653 123.739 189.147 123.287 188.425 122.414C189.42 121.938 190.648 120.91 191.908 120.868ZM157.29 129.165C157.536 129.336 157.792 129.666 158.025 129.651C158.89 129.595 159.742 129.365 160.607 129.312C161.772 129.238 162.942 129.23 164.107 129.259C167.544 129.343 170.982 129.485 174.419 129.555C177.427 129.617 180.443 129.588 183.455 129.644C185.256 129.678 187.054 129.811 188.855 129.877C190.644 129.942 192.49 130.267 194.189 129.906C195.045 129.725 195.717 128.328 196.313 127.38C196.999 126.28 197.967 125.081 197.998 123.904C198.052 121.783 196.815 119.771 194.614 119.719C192.387 119.667 190.065 120.389 187.928 121.161C186.686 121.61 185.839 123.195 184.598 123.593C183.19 124.044 181.541 123.714 179.995 123.768C176.517 123.892 173.044 124.122 169.566 124.151C167.751 124.166 165.931 123.904 164.125 123.655C163.197 123.527 162.301 123.154 161.386 122.894C161.108 122.816 160.683 122.596 160.575 122.701C158.558 124.629 157.572 122.414 156.568 121.514C154.466 119.625 152.79 117.249 150.657 115.402C144.185 109.8 137.579 104.356 131.027 98.8428C130.906 98.742 130.802 98.5555 130.793 98.4023C130.655 96.5002 130.516 94.5985 130.408 92.6947C130.153 88.0771 129.848 83.4604 129.718 78.8392C129.678 77.448 129.74 75.7574 130.48 74.7083C131.69 72.9796 133.518 71.6889 135.033 70.1655C139.183 66.005 143.298 61.8159 147.443 57.6545C147.672 57.4273 148.039 57.2906 148.362 57.2413C148.474 57.2247 148.757 57.6034 148.77 57.8132C148.931 60.6143 149.106 63.4159 149.196 66.2202C149.348 71.0623 149.415 75.9076 149.595 80.7489C149.626 81.6416 149.743 82.9543 150.307 83.3254C152.1 84.4974 154.162 85.2414 156.049 86.2834C159.984 88.4616 163.883 90.7164 167.786 92.9591C168.777 93.5274 169.539 93.9124 168.961 95.5715C168.248 97.6336 168.862 99.7275 171.681 99.8351C173.752 99.914 176.566 100.571 177.781 99.5133C181.98 95.8472 181.662 93.4718 179.098 88.7171C177.727 86.1745 176.114 85.9733 173.55 87.3721C173.044 87.6504 172.465 87.8032 171.919 88.0139C171.95 87.7754 171.981 87.5366 172.013 87.2977C171.354 87.0956 170.641 86.9978 170.045 86.6743C165.102 83.9775 160.176 81.2477 155.264 78.4981C154.856 78.2713 154.278 77.8222 154.283 77.4821C154.323 74.2677 154.605 71.0524 154.552 67.8417C154.489 64.1424 154.166 60.4472 153.92 56.7523C153.879 56.1522 153.646 55.5651 153.498 54.9722C153.095 55.1505 152.692 55.3293 151.97 55.6467C149.761 50.4545 147.542 45.243 145.324 40.032C145.624 39.9101 145.92 39.7887 146.22 39.6668C147.385 42.4486 148.55 45.23 149.205 46.7969C151.307 50.2627 152.719 52.5852 154.099 54.8588C154.874 52.1616 157.38 52.928 159.069 52.3633C160.79 51.786 162.695 51.7497 164.896 51.4306C164.94 51.3571 165.012 51.2747 165.088 51.2666C167.092 51.0663 169.113 51.0008 171.112 50.7512C171.591 50.6907 172.008 50.0919 172.456 49.7405C172.223 49.5214 171.928 49.3399 171.771 49.0763C171.323 48.3144 170.901 47.5306 170.538 46.7238C170.498 46.6252 170.879 46.3362 171.063 46.1354C171.511 46.6069 172.053 47.0219 172.398 47.5619C173.03 48.5582 173.554 49.6263 174.119 50.6656C174.151 50.1475 174.182 49.6097 174.254 48.3355C175.042 50.0323 175.504 51.0273 176.055 52.2064C175.105 52.0155 174.549 51.903 173.433 51.678C174.128 52.4906 174.402 53.123 174.76 53.1736C176.633 53.4407 178.525 53.6178 180.416 53.7177C182.921 53.8495 184.342 52.1607 184.907 50.1529C186.404 44.8383 182.048 41.0095 177.216 42.009C175.101 42.4469 173.268 44.1499 171.157 44.7267C168.252 45.5196 165.218 45.8893 162.22 46.2375C160.804 46.4025 159.325 45.9785 157.886 46.0345C156.161 46.1013 154.449 46.4213 152.727 46.5531C152.557 46.5661 152.19 46.0404 152.176 45.7508C151.997 42.3841 151.733 39.0133 151.768 35.6466C151.795 32.9279 150.307 29.9372 154.126 27.8639C155.412 27.1656 155.358 23.6214 155.529 21.3492C155.735 18.5682 153.288 16.1964 150.491 16.001C147.578 15.798 145.252 16.6594 143.006 18.7264C140.057 21.446 139.632 24.7526 142.984 26.9684C145.041 28.3287 144.88 29.9744 144.902 31.8155C144.965 37.3663 145.019 42.917 145.041 48.4681C145.041 48.9804 144.961 49.6572 144.638 49.9799C142.612 52.0119 140.398 53.8665 138.453 55.9685C135.912 58.7158 133.604 61.6801 131.107 64.4709C129.404 66.3743 127.571 68.1644 125.747 69.9531C125.209 70.4774 124.187 70.6903 123.936 71.2797C123.439 72.4467 123.058 73.7841 123.094 75.0381C123.179 78.0826 123.537 81.1195 123.775 84.1604C124.057 87.7656 124.331 91.3707 124.595 94.9772C124.698 96.3698 124.515 97.5211 122.65 97.4387C121.655 97.3948 120.642 97.4987 119.647 97.6224C115.918 98.0854 112.198 98.6721 108.461 99.0378C106.144 99.2646 103.777 99.3681 101.469 99.1426C100.452 99.0436 98.753 98.0594 98.6903 97.3585C98.3452 93.4629 98.3228 89.531 98.3452 85.6125C98.3676 80.9075 98.3945 76.1917 98.7575 71.5065C98.8606 70.1901 100.142 68.9653 100.882 67.6983C101.577 67.5177 101.765 66.978 102.132 66.6168C103.867 64.9038 105.722 63.3101 107.398 61.5434C110.589 58.174 113.422 54.403 116.922 51.4055C119.235 49.4241 122.475 48.5407 125.254 47.0752C125.958 46.7037 126.728 46.0973 127.038 45.4062C128.512 42.1044 126.634 38.6449 123.47 37.563C119.602 36.2409 115.829 39.0061 117.075 42.9986C117.119 43.1433 117.03 43.4032 116.913 43.5131C116.035 44.3417 115.179 45.2076 114.224 45.9364C113.565 46.4343 112.786 46.7973 112.006 47.0788C111.75 47.1702 111.338 46.8121 110.997 46.6598C110.858 47.1129 110.693 47.5597 110.598 48.0218C110.486 48.5802 110.648 49.3434 110.33 49.6868C107.959 52.2548 105.53 54.7696 103.056 57.2368C102.24 58.0471 101.24 58.6696 100.326 59.3778L100.34 59.3764C100.236 59.6516 100.214 60.0563 100.017 60.1782C99.4074 60.5547 98.7396 60.8527 98.0628 61.0992C97.9732 61.132 97.5654 60.7022 97.5519 60.4714C97.3906 57.8177 97.2427 55.1622 97.162 52.5049C96.9827 46.7243 96.8348 40.9427 96.7228 35.1608C96.7138 34.8578 97.1082 34.4558 97.4175 34.2541C98.4528 33.5791 100.12 33.2085 100.488 32.2964C101.451 29.891 102.459 27.2342 102.343 24.7289C102.204 21.7064 99.8197 19.8836 96.9648 18.6247C93.3605 17.035 90.2179 17.4675 87.2303 19.8397C83.4418 22.8474 82.7691 27.7097 85.75 30.5526C86.0628 30.8506 86.5894 30.9241 87.0165 31.1016C87.0089 30.6606 87.1299 30.1653 86.9726 29.7862C85.7607 26.8649 85.9602 23.8621 87.8026 21.5163C90.0422 18.665 94.939 18.237 97.7805 20.555C99.1833 21.7028 100.29 23.6896 100.667 25.4787C100.981 26.9743 100.102 28.7549 99.6225 30.371C99.1878 31.8393 98.7082 33.364 96.5256 32.6469C96.2746 32.5645 95.4724 33.3591 95.3558 33.8494C95.1855 34.5521 95.4096 35.3494 95.4679 36.1064C94.5621 34.9178 94.0686 33.6464 93.6594 32.348C93.6478 32.3117 94.5616 32.045 94.9928 31.7967C97.655 30.263 98.5065 25.5634 96.669 22.6677C95.2034 20.3573 93.317 19.6864 91.7018 20.9861C91.1918 21.3967 90.9829 22.1886 90.4662 22.583C87.5454 24.814 87.3737 26.9667 89.845 29.8077C90.6141 30.6915 91.1344 31.7922 91.7681 32.7935C91.544 33.0368 91.3195 33.2802 91.0954 33.5231C89.5577 32.9772 88.0227 32.4242 86.4796 31.8958C86.3102 31.8379 86.0924 31.9213 85.8974 31.9388C85.9799 32.1091 86.0179 32.3655 86.1528 32.4358C87.0622 32.9082 88.0541 33.2493 88.8971 33.8144C89.6218 34.3002 90.6616 34.9734 90.7396 35.6569C91.1237 39.0375 91.3432 42.4464 91.4185 45.8499C91.5534 51.968 91.5189 58.0902 91.6046 64.2101C91.6512 67.5029 91.8295 70.7939 91.8954 74.0866C91.9922 78.8979 92.0756 83.71 92.1016 88.5221C92.1262 92.9882 92.0406 97.4553 92.072 101.921C92.0774 102.7 92.4207 103.477 92.608 104.256C93.1974 104.438 93.088 104.769 93.1149 105.088C93.3278 107.612 93.5882 110.132 93.7899 112.656C93.9387 114.514 93.9763 116.382 94.1453 118.237C94.3062 119.997 94.5661 121.748 94.8045 123.5C94.8314 123.722 94.939 123.981 95.0959 124.133C96.7183 125.686 98.3004 127.287 100.003 128.746C103.468 131.715 107.044 134.56 110.491 137.549C112.042 138.889 113.4 140.448 114.838 141.911C116.268 143.36 117.72 144.784 119.096 146.282C119.535 146.76 119.755 147.439 120.324 148.493C120.324 147.526 120.324 147.139 120.324 146.79C124.447 149.645 124.958 154.095 125.397 158.524C125.716 161.695 125.801 164.888 126.047 168.067C126.146 169.332 126.643 170.606 126.536 171.839C126.401 173.384 126.805 174.237 128.378 174.156C130.341 174.055 132.295 173.792 134.253 173.609C136.279 173.42 138.305 173.242 140.783 173.018C140.828 172.961 141.025 172.814 141.232 172.81C144.996 172.738 148.775 172.869 152.53 172.636C157.608 172.32 162.673 171.729 167.746 171.268C169.682 171.092 171.565 170.64 172.465 173.379C172.725 174.166 174.903 174.865 176.078 174.703C179.372 174.251 180.188 171.601 180.448 168.714C180.649 166.442 180.197 164.29 178.108 163.161C175.786 161.907 172.766 162.966 171.39 165.019C171.125 165.413 170.422 165.692 169.906 165.71C167.58 165.788 165.25 165.735 162.924 165.763C156.492 165.837 150.056 165.79 143.634 166.078C140.891 166.201 138.189 167.22 135.437 167.442C134.567 167.513 132.9 166.433 132.783 165.693C132.183 161.871 131.793 157.992 131.721 154.124C131.694 152.888 132.559 151.168 133.568 150.509C134.554 149.862 136.243 150.291 137.619 150.232C140.093 150.126 142.576 150.115 145.037 149.862C146.87 149.672 148.667 148.897 150.491 148.851C155.161 148.735 159.836 148.903 164.51 148.854C164.757 148.851 164.994 147.929 165.232 147.415C165.855 147.901 166.487 148.807 167.092 148.787C169.203 148.716 171.3 148.22 173.416 148.072C177.391 147.795 181.375 147.639 185.36 147.47C185.66 147.458 186.18 147.697 186.247 147.923C186.794 149.767 190.532 151.568 192.275 150.771C194.951 149.551 197.174 145.03 196.439 142.077C195.748 139.284 191.899 137.225 188.474 139.553C186.637 140.799 184.114 141.322 181.837 141.554C178.422 141.901 174.953 141.705 171.511 141.74C167.697 141.779 163.887 141.793 160.073 141.867C155.466 141.956 150.854 142.05 146.247 142.231C143.114 142.354 139.99 142.599 136.866 142.852C135.154 142.991 133.451 143.261 131.744 143.472C131.744 143.472 131.762 143.488 131.757 143.488C131.43 143.399 131.107 143.289 130.776 143.224C129.135 142.904 127.311 142.939 125.904 142.193C124.259 141.322 123.022 139.716 121.53 138.528C119.23 136.7 116.77 135.071 114.556 133.148C111.665 130.633 108.927 127.936 106.161 125.273C104.49 123.659 101.881 122.181 101.46 120.256C100.358 115.205 100.205 109.942 99.739 104.758C99.7211 104.515 100.38 103.959 100.694 103.98C102.401 104.095 104.1 104.346 105.803 104.55C105.789 104.471 105.781 104.391 105.772 104.312C108.573 104.312 111.369 104.312 114.22 104.312C114.22 104.287 114.22 104.034 114.22 104.007C115.551 103.741 116.774 103.339 118.002 103.319C118.572 103.31 119.15 104.046 119.723 104.443C119.629 104.22 119.531 103.996 119.437 103.772C120.001 103.555 120.629 103.429 121.113 103.099C121.704 102.699 122.439 105.479 122.829 102.991C122.838 102.928 123.246 102.834 123.407 102.902C124.223 103.257 125.169 103.494 125.792 104.071C129.588 107.57 133.276 111.183 137.064 114.692C140.111 117.519 143.257 120.242 146.336 123.039C146.807 123.466 147.134 124.049 147.645 124.715C147.869 124.189 147.977 123.937 148.102 123.644C148.42 123.783 148.743 123.841 148.949 124.026C150.823 125.717 152.642 127.471 154.561 129.111C155.094 129.568 155.901 129.706 156.582 129.99C156.358 129.497 156.187 128.971 155.905 128.515C154.377 126.05 152.777 123.628 151.289 121.138C150.28 119.45 149.42 117.675 148.492 115.939C150.437 117.493 152.096 119.274 153.337 121.31C154.471 123.174 155.143 125.317 156.057 127.322C156.147 127.521 156.492 127.605 156.716 127.743C156.77 127.509 156.905 127.262 156.864 127.045C156.654 125.857 156.403 124.677 156.165 123.495C157.209 124.574 157.976 125.783 158.496 127.091C158.648 127.485 158.155 128.168 157.891 128.684C157.783 128.892 157.496 129.007 157.29 129.165Z" fill="#4C494A"/>
<path d="M146.395 23.9728C146.399 23.9625 146.399 23.9522 146.404 23.9419C146.453 23.7093 146.489 23.4645 146.52 23.2158C146.332 23.3843 146.135 23.5609 145.924 23.7473C146.09 23.8208 146.247 23.897 146.395 23.9728Z" fill="#4C494A"/>
<path d="M122.937 42.4495C122.928 42.8049 123.045 43.3862 122.888 43.4741C122.399 43.7466 121.808 43.8317 121.252 43.989C121.194 43.803 121.135 43.6166 121.077 43.4302C121.696 43.1034 122.318 42.7763 122.937 42.4495ZM122.345 45.8347C123.094 45.0145 124.367 44.2445 124.452 43.3602C124.546 42.3738 123.564 41.2829 122.668 39.4615C121.422 41.0431 120.185 41.9655 120.32 42.5867C120.575 43.7609 121.624 44.7617 122.345 45.8347Z" fill="#4C494A"/>
</svg>
