<svg width="24" height="24" viewBox="0 0 24 24" fill="none" xmlns="http://www.w3.org/2000/svg">
<path d="M23.3205 6.44018C23.3917 6.38104 23.445 6.30331 23.4746 6.21564C23.5042 6.12798 23.5089 6.03382 23.4882 5.94364C23.4675 5.85347 23.4221 5.77081 23.3572 5.70488C23.2923 5.63894 23.2104 5.59231 23.1205 5.57018L22.3305 5.37018C22.2587 5.3522 22.1918 5.31848 22.1345 5.27148C22.0773 5.22447 22.0313 5.16534 21.9997 5.09836C21.9681 5.03138 21.9518 4.95822 21.952 4.88418C21.9521 4.81013 21.9687 4.73704 22.0005 4.67018L22.4405 3.78018C22.4821 3.69394 22.498 3.59758 22.4864 3.50254C22.4748 3.40751 22.4362 3.31781 22.3751 3.24409C22.314 3.17037 22.2331 3.11574 22.1419 3.08668C22.0506 3.05762 21.953 3.05537 21.8605 3.08018L19.8605 3.64018C19.786 3.66192 19.7075 3.666 19.6311 3.65212C19.5547 3.63823 19.4826 3.60675 19.4205 3.56018C18.555 2.91107 17.5024 2.56018 16.4205 2.56018C15.0944 2.56018 13.8227 3.08696 12.885 4.02465C11.9473 4.96233 11.4205 6.2341 11.4205 7.56018V7.92018C11.421 7.9816 11.3988 8.04103 11.3582 8.08714C11.3176 8.13325 11.2615 8.16281 11.2005 8.17018C8.39053 8.50018 5.70053 7.07018 2.80053 3.73018C2.73753 3.6607 2.65659 3.60994 2.56662 3.58348C2.47664 3.55701 2.38111 3.55587 2.29053 3.58018C2.20893 3.61769 2.13893 3.67649 2.0879 3.75039C2.03687 3.8243 2.00669 3.91058 2.00053 4.00018C1.59999 5.64552 1.76193 7.3776 2.46053 8.92018C2.4812 8.9611 2.49022 9.00691 2.48661 9.0526C2.483 9.0983 2.4669 9.14212 2.44006 9.17929C2.41322 9.21645 2.37668 9.24551 2.33444 9.26331C2.29219 9.2811 2.24587 9.28694 2.20053 9.28018L1.08053 9.06018C1.00099 9.04739 0.91954 9.05401 0.843111 9.07948C0.766682 9.10494 0.697538 9.1485 0.641564 9.20643C0.58559 9.26437 0.544445 9.33498 0.52163 9.41224C0.498815 9.4895 0.495007 9.57113 0.510529 9.65018C0.596868 10.4176 0.854703 11.1558 1.26495 11.8101C1.67519 12.4645 2.22735 13.0181 2.88053 13.4302C2.9228 13.4507 2.95844 13.4826 2.98339 13.5224C3.00833 13.5622 3.02156 13.6082 3.02156 13.6552C3.02156 13.7021 3.00833 13.7482 2.98339 13.788C2.95844 13.8277 2.9228 13.8597 2.88053 13.8802L2.35053 14.0902C2.28616 14.116 2.22787 14.1549 2.17935 14.2044C2.13083 14.254 2.09315 14.3131 2.0687 14.378C2.04425 14.4429 2.03356 14.5121 2.03732 14.5814C2.04108 14.6506 2.0592 14.7183 2.09053 14.7802C2.38362 15.4215 2.82789 15.9822 3.38523 16.4141C3.94257 16.8461 4.59636 17.1364 5.29053 17.2602C5.33879 17.2777 5.38049 17.3096 5.40996 17.3517C5.43943 17.3937 5.45524 17.4438 5.45524 17.4952C5.45524 17.5465 5.43943 17.5966 5.40996 17.6387C5.38049 17.6807 5.33879 17.7127 5.29053 17.7302C3.93089 18.2925 2.47179 18.5748 1.00053 18.5602C0.867921 18.5337 0.730208 18.5609 0.617686 18.6359C0.505164 18.7109 0.427051 18.8276 0.400529 18.9602C0.374007 19.0928 0.40125 19.2305 0.476265 19.343C0.551279 19.4555 0.667921 19.5337 0.800529 19.5602C3.34807 20.7684 6.12171 21.4261 8.94053 21.4902C11.42 21.528 13.8553 20.8322 15.9405 19.4902C17.6557 18.3452 19.061 16.7937 20.0312 14.9738C21.0013 13.154 21.5061 11.1224 21.5005 9.06018V8.19018C21.5011 8.11757 21.5176 8.04596 21.5486 7.98034C21.5797 7.91472 21.6247 7.85665 21.6805 7.81018L23.3205 6.44018Z" fill="black"/>
</svg>
