<svg width="24" height="24" viewBox="0 0 24 24" fill="none" xmlns="http://www.w3.org/2000/svg">
<path d="M23.3205 6.44006C23.3917 6.38091 23.445 6.30318 23.4746 6.21552C23.5042 6.12786 23.5089 6.0337 23.4882 5.94352C23.4675 5.85335 23.4221 5.77069 23.3572 5.70476C23.2923 5.63882 23.2104 5.59219 23.1205 5.57006L22.3305 5.37006C22.2587 5.35208 22.1918 5.31836 22.1345 5.27135C22.0773 5.22435 22.0313 5.16522 21.9997 5.09824C21.9681 5.03126 21.9518 4.9581 21.952 4.88405C21.9521 4.81001 21.9687 4.73691 22.0005 4.67006L22.4405 3.78006C22.4821 3.69382 22.498 3.59745 22.4864 3.50242C22.4748 3.40739 22.4362 3.31768 22.3751 3.24397C22.314 3.17025 22.2331 3.11561 22.1419 3.08656C22.0506 3.0575 21.953 3.05525 21.8605 3.08006L19.8605 3.64006C19.786 3.66179 19.7075 3.66588 19.6311 3.65199C19.5547 3.63811 19.4826 3.60663 19.4205 3.56006C18.555 2.91095 17.5024 2.56006 16.4205 2.56006C15.0944 2.56006 13.8227 3.08684 12.885 4.02452C11.9473 4.96221 11.4205 6.23398 11.4205 7.56006V7.92006C11.421 7.98148 11.3988 8.04091 11.3582 8.08702C11.3176 8.13313 11.2615 8.16269 11.2005 8.17006C8.39053 8.50006 5.70053 7.07006 2.80053 3.73006C2.73753 3.66058 2.65659 3.60982 2.56662 3.58335C2.47664 3.55689 2.38111 3.55575 2.29053 3.58006C2.20893 3.61757 2.13893 3.67636 2.0879 3.75027C2.03687 3.82417 2.00669 3.91046 2.00053 4.00006C1.59999 5.6454 1.76193 7.37748 2.46053 8.92006C2.4812 8.96097 2.49022 9.00678 2.48661 9.05248C2.483 9.09818 2.4669 9.142 2.44006 9.17916C2.41322 9.21632 2.37668 9.24539 2.33444 9.26319C2.29219 9.28098 2.24587 9.28682 2.20053 9.28006L1.08053 9.06006C1.00099 9.04727 0.91954 9.05389 0.843111 9.07936C0.766682 9.10482 0.697538 9.14837 0.641564 9.20631C0.58559 9.26425 0.544445 9.33486 0.52163 9.41212C0.498815 9.48938 0.495007 9.57101 0.510529 9.65006C0.596868 10.4175 0.854703 11.1557 1.26495 11.81C1.67519 12.4643 2.22735 13.018 2.88053 13.4301C2.9228 13.4505 2.95844 13.4825 2.98339 13.5223C3.00833 13.5621 3.02156 13.6081 3.02156 13.6551C3.02156 13.702 3.00833 13.748 2.98339 13.7878C2.95844 13.8276 2.9228 13.8596 2.88053 13.8801L2.35053 14.0901C2.28616 14.1159 2.22787 14.1548 2.17935 14.2043C2.13083 14.2539 2.09315 14.313 2.0687 14.3778C2.04425 14.4427 2.03356 14.512 2.03732 14.5812C2.04108 14.6505 2.0592 14.7182 2.09053 14.7801C2.38362 15.4214 2.82789 15.9821 3.38523 16.414C3.94257 16.8459 4.59636 17.1363 5.29053 17.2601C5.33879 17.2776 5.38049 17.3095 5.40996 17.3516C5.43943 17.3936 5.45524 17.4437 5.45524 17.4951C5.45524 17.5464 5.43943 17.5965 5.40996 17.6385C5.38049 17.6806 5.33879 17.7125 5.29053 17.7301C3.93089 18.2924 2.47179 18.5747 1.00053 18.5601C0.867921 18.5335 0.730208 18.5608 0.617686 18.6358C0.505164 18.7108 0.427051 18.8274 0.400529 18.9601C0.374007 19.0927 0.40125 19.2304 0.476265 19.3429C0.551279 19.4554 0.667921 19.5335 0.800529 19.5601C3.34807 20.7683 6.12171 21.4259 8.94053 21.4901C11.42 21.5279 13.8553 20.8321 15.9405 19.4901C17.6557 18.3451 19.061 16.7936 20.0312 14.9737C21.0013 13.1539 21.5061 11.1223 21.5005 9.06006V8.19006C21.5011 8.11745 21.5176 8.04584 21.5486 7.98022C21.5797 7.91459 21.6247 7.85653 21.6805 7.81006L23.3205 6.44006Z" fill="white"/>
</svg>
